<svg version="1.1" xmlns="http://www.w3.org/2000/svg" xmlns:xlink="http://www.w3.org/1999/xlink" x="0px" y="0px" viewBox="0 0 480 480" style="enable-background:new 0 0 480 480;" xml:space="preserve">
  <linearGradient id="bi-grad" gradientUnits="userSpaceOnUse" x1="76.077" y1="523.923" x2="403.923" y2="-43.923"><stop  offset="0" style="stop-color:#FFC437"/><stop  offset="1" style="stop-color:#DE25A6"/></linearGradient>
  <path d="M475.01,236.89c-0.31-0.34-31.33-34.74-75.07-67.7c-59.16-44.57-112.21-65.55-157.73-62.28 c-0.73,0.05-1.4,0.29-2,0.64c-4.96-0.86-9.93-1.51-14.9-1.88c-42.68-3.18-92.8,18.04-148.99,63.07 c-41.5,33.25-71.11,67.91-71.41,68.26c-1.58,1.85-1.54,4.62,0.09,6.43c0.29,0.33,29.89,33.11,71.37,65.41 c56.08,43.68,106.08,65.83,148.59,65.83c5.14,0,10.21-0.32,15.22-0.88c4.89,0.56,9.85,0.88,14.87,0.88 c39.25,0,88.24-22.14,145.61-65.79c42.41-32.27,73.93-65.01,74.24-65.33C476.66,241.7,476.71,238.78,475.01,236.89z M82.21,301.24 c-33.38-25.97-58.93-52.26-67.31-61.18c18.38-20.57,121.82-131.35,209.71-124.78c63.33,4.71,128.83,52.71,128.83,124.86 c0,62.67-50.47,116.31-113.25,123.9c-59.66-7.39-107.93-58.48-110.38-119.07h95.59c2.61,0,4.72-2.16,4.72-4.83 s-2.12-4.83-4.72-4.83H124.99c-2.61,0-4.72,2.16-4.72,4.83c0,53.38,33.1,100.66,79.5,122.18 C156.97,353.69,113.41,325.53,82.21,301.24z M284.66,360.89c45.84-22.15,78.23-68.54,78.23-120.74 c0-57.35-38.05-100.48-85.14-121.22c84.34,16.34,169.92,102.88,187.17,121.12C447.23,257.73,360.46,341.4,284.66,360.89z"/>
  <path d="M274.76,258.32c10.42,0,18.9-8.66,18.9-19.31c0-10.65-8.48-19.31-18.9-19.31s-18.9,8.66-18.9,19.31 C255.86,249.66,264.34,258.32,274.76,258.32z M274.76,229.35c5.21,0,9.45,4.33,9.45,9.65c0,5.32-4.24,9.66-9.45,9.66 s-9.45-4.33-9.45-9.66C265.31,233.68,269.55,229.35,274.76,229.35z"/>
</svg>