<svg version="1.1" xmlns="http://www.w3.org/2000/svg" xmlns:xlink="http://www.w3.org/1999/xlink" x="0px" y="0px" viewBox="0 0 480 480" style="enable-background:new 0 0 480 480;" xml:space="preserve">
  <linearGradient id="pd-grad" gradientUnits="userSpaceOnUse" x1="76.077" y1="523.923" x2="403.923" y2="-43.923"><stop  offset="0" style="stop-color:#2559FF"/><stop  offset="1" style="stop-color:#D20047"/></linearGradient>
  <path d="M434.78,237.06L242.87,40.96c-1.69-1.73-4.43-1.73-6.13,0L45.22,236.67c-1.69,1.73-1.69,4.53,0,6.26 l191.91,196.1c0.81,0.83,1.92,1.3,3.06,1.3c1.15,0,2.25-0.47,3.06-1.3l191.53-195.71C436.47,241.59,436.47,238.79,434.78,237.06z M240.19,429.65L54.41,239.8l185.4-189.45L368.25,181.6l-131.6,134.48l-59.81-61.12l45.74-46.74c1.69-1.73,1.69-4.53,0-6.26 c-1.69-1.73-4.43-1.73-6.13,0l-48.8,49.87c-1.69,1.73-1.69,4.53,0,6.26l65.93,67.37c0.84,0.86,1.95,1.3,3.06,1.3 c1.11,0,2.22-0.43,3.06-1.3l134.67-137.61l51.22,52.34L240.19,429.65z"/>
  <path d="M242.63,196.65c3.8,0,7.59-1.48,10.47-4.43c2.8-2.86,4.34-6.67,4.34-10.72c0-4.05-1.55-7.85-4.35-10.71 c-5.79-5.91-15.19-5.92-20.98-0.02c-5.78,5.91-5.77,15.52,0.02,21.44C235.02,195.16,238.83,196.65,242.63,196.65z M238.24,177.03 c1.2-1.22,2.77-1.83,4.35-1.83c1.58,0,3.17,0.62,4.38,1.85c1.17,1.19,1.81,2.78,1.81,4.46c0,1.68-0.64,3.26-1.8,4.45 c-2.41,2.45-6.32,2.45-8.72-0.01C235.84,183.48,235.84,179.48,238.24,177.03z"/>
</svg>