<?xml version="1.0" encoding="utf-8"?>
<!-- Generator: Adobe Illustrator 19.0.0, SVG Export Plug-In . SVG Version: 6.00 Build 0)  -->
<svg version="1.1" id="Layer_2" xmlns="http://www.w3.org/2000/svg" xmlns:xlink="http://www.w3.org/1999/xlink" x="0px" y="0px"
	 viewBox="-396.6 974.1 546.5 122.3" style="enable-background:new -396.6 974.1 546.5 122.3;" xml:space="preserve">
<style type="text/css">
	.st0{fill:#FFFFFF;}
</style>
<polygon class="st0" points="-396.6,974.9 -316.6,974.9 -301.9,1001.8 -367.9,1001.8 -367.9,1021.9 -306.2,1021.9 -306.2,1047.6 
	-366.7,1047.6 -366,1069.4 -298.3,1069.4 -298.2,1095.8 -396.6,1095.8 "/>
<polygon class="st0" points="-288.1,1095.8 -288.1,974.9 -216.6,974.9 -175.7,1046.3 -175.7,1095.8 -203.8,1095.8 -204.4,1048.1 
	-230.7,1003.6 -260.6,1003.6 -261.2,1095.8 "/>
<rect x="-100.6" y="1039.4" transform="matrix(2.977093e-004 1 -1 2.977093e-004 995.1349 1110.7719)" class="st0" width="85.3" height="27.5"/>
<polygon class="st0" points="57.7,974.3 91.1,974.3 113.1,1015.2 132.6,974.3 149.9,1003 105.3,1096.4 75.4,1096.4 99.2,1045.7 "/>
<polygon class="st0" points="-36.9,974.8 -36.9,1001.1 -0.3,1001.1 1,1095.7 29.7,1095.7 29.6,1001.7 61.4,1001.7 45.5,974.8 "/>
<polygon class="st0" points="-182.3,974.9 -182.3,1001.1 -145.6,1001.1 -144.4,1095.8 -115.7,1095.8 -115.7,1001.7 -85.2,1001.7 
	-99.8,974.8 "/>
<polygon class="st0" points="-86.3,974.1 -71.8,1001.5 -44.3,1001.3 -59,974.8 "/>
</svg>
