<?xml version="1.0" encoding="utf-8"?>
<!-- Generator: Adobe Illustrator 21.0.2, SVG Export Plug-In . SVG Version: 6.00 Build 0)  -->
<svg version="1.1" id="Layer_3" xmlns="http://www.w3.org/2000/svg" xmlns:xlink="http://www.w3.org/1999/xlink" x="0px" y="0px"
	 viewBox="0 0 780.1 168.3" style="enable-background:new 0 0 780.1 168.3;" xml:space="preserve">
<style type="text/css">
	.st0{fill:#0086a5;opacity:0.07}
	.st1{fill:none;stroke:#0086a5;stroke-width:3.6618;stroke-miterlimit:10;opacity:0.07}
</style>
<g>
</g>
<g>
</g>
<g>
</g>
<g>
</g>
<g>
</g>
<g>
</g>
<g>
</g>
<g>
</g>
<g>
</g>
<g>
</g>
<g>
</g>
<g>
</g>
<g>
</g>
<g>
</g>
<g>
</g>
<g>
</g>
<g>
</g>
<g>
</g>
<g>
</g>
<g>
</g>
<g>
</g>
<g>
</g>
<g>
	<g>
		<polygon class="st0" points="74.2,159.1 71.6,156.5 94.2,133.9 34.1,73.8 11.5,96.4 8.9,93.8 34.1,68.6 99.4,133.9 		"/>
	</g>
	<g>
		<polygon class="st0" points="69.5,154.3 66.9,151.8 84.9,133.8 33.9,82.9 16,100.8 13.4,98.2 33.9,77.7 90,133.8 		"/>
	</g>
	<g>
		<polygon class="st0" points="64.9,149.7 62.3,147.2 75.8,133.6 34.1,91.9 20.6,105.4 18,102.9 34.1,86.7 81,133.6 		"/>
	</g>
	<g>
		<polygon class="st0" points="60.3,145.1 57.7,142.6 66.3,133.9 33.8,101.4 25.2,110 22.6,107.5 33.8,96.2 71.5,133.9 		"/>
	</g>
	<g>
		<polygon class="st0" points="55.8,140.7 53.2,138.1 57.3,134 33.6,110.3 29.5,114.4 26.9,111.8 33.6,105.1 62.5,134 		"/>
	</g>
	<g>

			<rect x="59" y="81.5" transform="matrix(0.7071 -0.7071 0.7071 0.7071 -34.4445 83.5633)" class="st0" width="49.2" height="3.7"/>
	</g>
	<g>
		<polygon class="st0" points="119.8,131.6 90.3,102.1 102.4,90 131.9,119.5 129.3,122.1 102.4,95.2 95.5,102.1 122.4,129 		"/>
	</g>
	<g>
		<polygon class="st0" points="65.3,77.1 36.5,48.3 39.1,45.7 65.3,71.9 72.2,65 46,38.8 48.6,36.2 77.4,65 		"/>
	</g>
	<g>

			<rect x="123.4" y="31.1" transform="matrix(0.7071 -0.7071 0.7071 0.7071 6.4033 100.9043)" class="st0" width="3.3" height="23.2"/>
	</g>
	<g>

			<rect x="41" y="111.9" transform="matrix(0.7071 -0.7071 0.7071 0.7071 -76.0223 66.7642)" class="st0" width="3.3" height="26.4"/>
	</g>
	<g>

			<rect x="111.8" y="95.9" transform="matrix(0.7071 -0.7071 0.7071 0.7071 -46.848 113.5062)" class="st0" width="3.7" height="34.7"/>
	</g>
	<g>
		<rect x="52.7" y="37.3" transform="matrix(0.7071 -0.7071 0.7071 0.7071 -22.391 54.464)" class="st0" width="3.7" height="34"/>
	</g>
	<g>
		<polygon class="st0" points="134.2,99.1 68.9,33.8 93.8,8.9 96.4,11.5 74.1,33.8 134.2,93.9 156.5,71.6 159.1,74.2 		"/>
	</g>
	<g>
		<polygon class="st0" points="133.9,89.9 77.8,33.8 98.2,13.4 100.8,16 83,33.8 133.9,84.7 151.8,66.9 154.3,69.5 		"/>
	</g>
	<g>
		<polygon class="st0" points="133.8,80.8 86.9,33.9 102.9,18 105.4,20.6 92.1,33.9 133.8,75.7 147.2,62.3 149.7,64.9 		"/>
	</g>
	<g>
		<polygon class="st0" points="133.8,71.6 96.1,33.9 107.5,22.6 110,25.2 101.3,33.9 133.8,66.5 142.6,57.7 145.1,60.3 		"/>
	</g>
	<g>
		<polygon class="st0" points="133.3,62.6 105,34.2 112.1,27.2 114.6,29.8 110.2,34.2 133.3,57.4 137.8,52.9 140.4,55.5 		"/>
	</g>
	<g>
		<polygon class="st0" points="2.6,87.5 0,84.9 34.6,50.2 65.3,80.9 81.1,65 50.5,34.4 84.9,0 87.5,2.6 55.7,34.4 86.3,65 65.3,86
			34.6,55.4 		"/>
	</g>
	<g>
		<polygon class="st0" points="64.7,95.5 33.9,64.7 6.9,91.8 4.3,89.2 33.9,59.6 64.7,90.3 90.3,64.7 59.6,33.9 89.2,4.3 91.8,6.9
			64.7,33.9 95.5,64.7 		"/>
	</g>
	<g>
		<polygon class="st0" points="79,163.8 76.4,161.3 103.4,134.2 71.5,102.3 102.4,71.3 134.4,103.3 153,84.9 155.6,87.5
			134.3,108.5 102.4,76.5 76.7,102.3 108.6,134.2 		"/>
	</g>
	<g>
		<polygon class="st0" points="83.4,168.3 80.8,165.7 112.9,133.7 81.1,101.9 102.3,80.7 134.1,112.5 163.8,82.6 166.4,85.2
			134.1,117.7 102.3,85.9 86.3,101.9 118.1,133.7 		"/>
	</g>
	<g>
		<polygon class="st0" points="227.2,159.1 224.6,156.5 247.2,133.9 187.1,73.8 164.5,96.4 161.9,93.8 187.1,68.6 252.4,133.9 		"/>
	</g>
	<g>
		<polygon class="st0" points="222.5,154.3 219.9,151.8 237.9,133.8 186.9,82.9 168.9,100.8 166.4,98.2 186.9,77.7 243,133.8 		"/>
	</g>
	<g>
		<polygon class="st0" points="217.9,149.7 215.3,147.2 228.8,133.6 187.1,91.9 173.6,105.4 171,102.9 187.1,86.7 234,133.6 		"/>
	</g>
	<g>
		<polygon class="st0" points="213.3,145.1 210.7,142.6 219.3,133.9 186.8,101.4 178.2,110 175.6,107.5 186.8,96.2 224.5,133.9
			"/>
	</g>
	<g>
		<polygon class="st0" points="208.8,140.7 206.2,138.1 210.3,134 186.6,110.3 182.5,114.4 179.9,111.8 186.6,105.1 215.5,134 		"/>
	</g>
	<g>

			<rect x="212" y="81.5" transform="matrix(0.7071 -0.7071 0.7071 0.7071 10.3631 191.7381)" class="st0" width="49.2" height="3.7"/>
	</g>
	<g>
		<polygon class="st0" points="272.8,131.6 243.3,102.1 255.4,90 284.9,119.5 282.3,122.1 255.4,95.2 248.5,102.1 275.4,129 		"/>
	</g>
	<g>
		<polygon class="st0" points="218.3,77.1 189.5,48.3 192.1,45.7 218.3,71.9 225.2,65 199,38.8 201.6,36.2 230.4,65 		"/>
	</g>
	<g>

			<rect x="276.4" y="31.1" transform="matrix(0.7071 -0.7071 0.7071 0.7071 51.2129 209.0817)" class="st0" width="3.3" height="23.2"/>
	</g>
	<g>

			<rect x="193.9" y="111.9" transform="matrix(0.7071 -0.7071 0.7071 0.7071 -31.2144 174.9367)" class="st0" width="3.3" height="26.4"/>
	</g>
	<g>

			<rect x="264.7" y="95.9" transform="matrix(0.7071 -0.7071 0.7071 0.7071 -2.043 221.6765)" class="st0" width="3.7" height="34.7"/>
	</g>
	<g>

			<rect x="205.7" y="37.3" transform="matrix(0.7071 -0.7071 0.7071 0.7071 22.4161 162.6378)" class="st0" width="3.7" height="34"/>
	</g>
	<g>
		<polygon class="st0" points="287.2,99.1 221.9,33.8 246.8,8.9 249.4,11.5 227.1,33.8 287.2,93.9 309.5,71.6 312.1,74.2 		"/>
	</g>
	<g>
		<polygon class="st0" points="286.9,89.9 230.8,33.8 251.2,13.4 253.8,16 236,33.8 286.9,84.7 304.7,66.9 307.3,69.5 		"/>
	</g>
	<g>
		<polygon class="st0" points="286.8,80.8 239.9,33.9 255.8,18 258.4,20.6 245,33.9 286.8,75.7 300.1,62.3 302.7,64.9 		"/>
	</g>
	<g>
		<polygon class="st0" points="286.8,71.6 249.1,33.9 260.4,22.6 263,25.2 254.3,33.9 286.8,66.5 295.5,57.7 298.1,60.3 		"/>
	</g>
	<g>
		<polygon class="st0" points="286.3,62.6 258,34.2 265,27.2 267.6,29.8 263.2,34.2 286.3,57.4 290.8,52.9 293.4,55.5 		"/>
	</g>
	<g>
		<polygon class="st0" points="155.6,87.5 153,84.9 187.6,50.2 218.3,80.9 234.1,65 203.5,34.4 237.9,0 240.4,2.6 208.7,34.4
			239.3,65 218.3,86 187.6,55.4 		"/>
	</g>
	<g>
		<polygon class="st0" points="217.7,95.5 186.9,64.7 166.4,85.2 163.8,82.6 186.9,59.6 217.7,90.3 243.3,64.7 212.5,33.9
			242.2,4.3 244.8,6.9 217.7,33.9 248.5,64.7 		"/>
	</g>
	<g>
		<polygon class="st0" points="380.1,159.1 377.5,156.5 400.1,133.9 339.9,73.8 317.3,96.4 314.8,93.8 339.9,68.6 405.2,133.9 		"/>
	</g>
	<g>
		<polygon class="st0" points="375.3,154.3 372.7,151.8 390.7,133.8 339.8,82.9 321.8,100.8 319.2,98.2 339.8,77.7 395.9,133.8
			"/>
	</g>
	<g>
		<polygon class="st0" points="370.7,149.7 368.1,147.2 381.6,133.6 339.9,91.9 326.4,105.4 323.8,102.9 339.9,86.7 386.8,133.6
			"/>
	</g>
	<g>
		<polygon class="st0" points="366.1,145.1 363.5,142.6 372.2,133.9 339.6,101.4 331,110 328.4,107.5 339.6,96.2 377.3,133.9 		"/>
	</g>
	<g>
		<polygon class="st0" points="361.7,140.7 359.1,138.1 363.2,134 339.4,110.3 335.3,114.4 332.7,111.8 339.4,105.1 368.3,134 		"/>
	</g>
	<g>

			<rect x="364.9" y="81.5" transform="matrix(0.7071 -0.7071 0.7071 0.7071 55.1324 299.8218)" class="st0" width="49.2" height="3.7"/>
	</g>
	<g>
		<polygon class="st0" points="425.7,131.6 396.2,102.1 408.3,90 437.7,119.5 435.2,122.1 408.3,95.2 401.4,102.1 428.3,129 		"/>
	</g>
	<g>
		<polygon class="st0" points="371.1,77.1 342.3,48.3 344.9,45.7 371.1,71.9 378,65 351.8,38.8 354.4,36.2 383.3,65 		"/>
	</g>
	<g>

			<rect x="429.2" y="31.1" transform="matrix(0.7071 -0.7071 0.7071 0.7071 95.981 317.164)" class="st0" width="3.3" height="23.2"/>
	</g>
	<g>

			<rect x="346.8" y="111.9" transform="matrix(0.7071 -0.7071 0.7071 0.7071 13.5562 283.0225)" class="st0" width="3.3" height="26.4"/>
	</g>
	<g>

			<rect x="417.6" y="95.9" transform="matrix(0.7071 -0.7071 0.7071 0.7071 42.7255 329.7602)" class="st0" width="3.7" height="34.7"/>
	</g>
	<g>

			<rect x="358.6" y="37.3" transform="matrix(0.7071 -0.7071 0.7071 0.7071 67.1867 270.7237)" class="st0" width="3.7" height="34"/>
	</g>
	<g>
		<polygon class="st0" points="440,99.1 374.7,33.8 399.6,8.9 402.2,11.5 379.9,33.8 440,93.9 462.3,71.6 464.9,74.2 		"/>
	</g>
	<g>
		<polygon class="st0" points="439.8,89.9 383.7,33.8 404.1,13.4 406.7,16 388.8,33.8 439.8,84.7 457.6,66.9 460.2,69.5 		"/>
	</g>
	<g>
		<polygon class="st0" points="439.6,80.8 392.7,33.9 408.7,18 411.3,20.6 397.9,33.9 439.6,75.7 453,62.3 455.6,64.9 		"/>
	</g>
	<g>
		<polygon class="st0" points="439.6,71.6 401.9,33.9 413.3,22.6 415.9,25.2 407.1,33.9 439.6,66.5 448.4,57.7 451,60.3 		"/>
	</g>
	<g>
		<polygon class="st0" points="439.2,62.6 410.8,34.2 417.9,27.2 420.5,29.8 416,34.2 439.2,57.4 443.6,52.9 446.2,55.5 		"/>
	</g>
	<g>
		<polygon class="st0" points="232,163.8 229.4,161.3 256.4,134.2 224.5,102.3 255.4,71.3 287.3,103.3 314.2,76.4 340.5,50.2
			371.1,80.9 387,65 356.3,34.4 390.7,0 393.3,2.6 361.5,34.4 392.1,65 371.1,86 340.5,55.4 316.8,79 287.3,108.5 255.4,76.5
			229.7,102.3 261.6,134.2 		"/>
	</g>
	<g>
		<polygon class="st0" points="236.4,168.3 233.8,165.7 265.9,133.7 234.1,101.9 255.3,80.7 287,112.5 310.1,89.2 339.8,59.6
			370.6,90.3 396.2,64.7 365.4,33.9 395,4.3 397.6,6.9 370.6,33.9 401.4,64.7 370.6,95.5 339.8,64.7 312.7,91.8 287.1,117.7
			255.3,85.9 239.3,101.9 271.1,133.7 		"/>
	</g>
	<g>
		<polygon class="st0" points="384.8,163.8 382.2,161.3 409.3,134.2 377.3,102.3 408.3,71.3 440.2,103.3 458.8,84.9 461.4,87.5
			440.2,108.5 408.3,76.5 382.5,102.3 414.4,134.2 		"/>
	</g>
	<g>
		<polygon class="st0" points="533,159.1 530.5,156.5 553,133.9 492.9,73.8 470.3,96.4 467.7,93.8 492.9,68.6 558.2,133.9 		"/>
	</g>
	<g>
		<polygon class="st0" points="528.3,154.3 525.7,151.8 543.7,133.8 492.8,82.9 474.8,100.8 472.2,98.2 492.8,77.7 548.9,133.8
			"/>
	</g>
	<g>
		<polygon class="st0" points="523.7,149.7 521.1,147.2 534.6,133.6 492.9,91.9 479.4,105.4 476.8,102.9 492.9,86.7 539.8,133.6
			"/>
	</g>
	<g>
		<polygon class="st0" points="519.1,145.1 516.5,142.6 525.1,133.9 492.6,101.4 484,110 481.4,107.5 492.6,96.2 530.3,133.9 		"/>
	</g>
	<g>
		<polygon class="st0" points="514.6,140.7 512,138.1 516.1,134 492.4,110.3 488.3,114.4 485.7,111.8 492.4,105.1 521.3,134 		"/>
	</g>
	<g>

			<rect x="517.9" y="81.5" transform="matrix(0.7071 -0.7071 0.7071 0.7071 99.9392 407.9956)" class="st0" width="49.2" height="3.7"/>
	</g>
	<g>
		<polygon class="st0" points="578.6,131.6 549.2,102.1 561.2,90 590.7,119.5 588.1,122.1 561.2,95.2 554.3,102.1 581.2,129 		"/>
	</g>
	<g>
		<polygon class="st0" points="524.1,77.1 495.3,48.3 497.9,45.7 524.1,71.9 531,65 504.8,38.8 507.4,36.2 536.3,65 		"/>
	</g>
	<g>

			<rect x="582.2" y="31.1" transform="matrix(0.7071 -0.7071 0.7071 0.7071 140.7882 425.3382)" class="st0" width="3.3" height="23.2"/>
	</g>
	<g>

			<rect x="499.8" y="111.9" transform="matrix(0.7071 -0.7071 0.7071 0.7071 58.3633 391.1964)" class="st0" width="3.3" height="26.4"/>
	</g>
	<g>

			<rect x="570.6" y="95.9" transform="matrix(0.7071 -0.7071 0.7071 0.7071 87.5369 437.9416)" class="st0" width="3.7" height="34.7"/>
	</g>
	<g>

			<rect x="511.5" y="37.3" transform="matrix(0.7071 -0.7071 0.7071 0.7071 111.994 378.8979)" class="st0" width="3.7" height="34"/>
	</g>
	<g>
		<polygon class="st0" points="593,99.1 527.7,33.8 552.6,8.9 555.2,11.5 532.9,33.8 593,93.9 615.3,71.6 617.9,74.2 		"/>
	</g>
	<g>
		<polygon class="st0" points="592.7,89.9 536.6,33.8 557.1,13.4 559.7,16 541.8,33.8 592.7,84.7 610.6,66.9 613.2,69.5 		"/>
	</g>
	<g>
		<polygon class="st0" points="592.6,80.8 545.7,33.9 561.7,18 564.3,20.6 550.9,33.9 592.6,75.7 606,62.3 608.6,64.9 		"/>
	</g>
	<g>
		<polygon class="st0" points="592.6,71.6 554.9,33.9 566.3,22.6 568.9,25.2 560.1,33.9 592.6,66.5 601.4,57.7 604,60.3 		"/>
	</g>
	<g>
		<polygon class="st0" points="592.2,62.6 563.8,34.2 570.9,27.2 573.5,29.8 569,34.2 592.2,57.4 596.6,52.9 599.2,55.5 		"/>
	</g>
	<g>
		<polygon class="st0" points="461.4,87.5 458.8,84.9 493.5,50.2 524.1,80.9 539.9,65 509.3,34.4 543.7,0 546.3,2.6 514.5,34.4
			545.1,65 524.1,86 493.5,55.4 		"/>
	</g>
	<g>
		<polygon class="st0" points="389.3,168.3 386.7,165.7 418.7,133.7 386.9,101.9 408.1,80.7 439.9,112.5 471.6,80.8 492.8,59.6
			523.6,90.3 549.2,64.7 518.4,33.9 548,4.3 550.6,6.9 523.6,33.9 554.3,64.7 523.6,95.5 492.8,64.7 474.1,83.4 439.9,117.7
			408.1,85.9 392.1,101.9 423.9,133.7 		"/>
	</g>
	<g>
		<polygon class="st0" points="686,159.1 683.4,156.5 706,133.9 645.9,73.8 623.3,96.4 620.7,93.8 645.9,68.6 711.2,133.9 		"/>
	</g>
	<g>
		<polygon class="st0" points="681.3,154.3 678.7,151.8 696.6,133.8 645.7,82.9 627.7,100.8 625.1,98.2 645.7,77.7 701.8,133.8
			"/>
	</g>
	<g>
		<polygon class="st0" points="676.6,149.7 674.1,147.2 687.6,133.6 645.9,91.9 632.3,105.4 629.8,102.9 645.9,86.7 692.8,133.6
			"/>
	</g>
	<g>
		<polygon class="st0" points="672,145.1 669.5,142.6 678.1,133.9 645.6,101.4 636.9,110 634.4,107.5 645.6,96.2 683.3,133.9 		"/>
	</g>
	<g>
		<polygon class="st0" points="667.6,140.7 665,138.1 669.1,134 645.4,110.3 641.3,114.4 638.7,111.8 645.4,105.1 674.3,134 		"/>
	</g>
	<g>

			<rect x="670.8" y="81.5" transform="matrix(0.7071 -0.7071 0.7071 0.7071 144.7411 516.153)" class="st0" width="49.2" height="3.7"/>
	</g>
	<g>
		<polygon class="st0" points="731.6,131.6 702.1,102.1 714.2,90 743.7,119.5 741.1,122.1 714.2,95.2 707.3,102.1 734.2,129 		"/>
	</g>
	<g>
		<polygon class="st0" points="677.1,77.1 648.3,48.3 650.9,45.7 677.1,71.9 683.9,65 657.7,38.8 660.4,36.2 689.2,65 		"/>
	</g>
	<g>

			<rect x="735.1" y="31.1" transform="matrix(0.7071 -0.7071 0.7071 0.7071 185.6017 533.5085)" class="st0" width="3.3" height="23.2"/>
	</g>
	<g>

			<rect x="652.7" y="111.9" transform="matrix(0.7071 -0.7071 0.7071 0.7071 103.1622 499.3506)" class="st0" width="3.3" height="26.4"/>
	</g>
	<g>

			<rect x="723.5" y="95.9" transform="matrix(0.7071 -0.7071 0.7071 0.7071 132.327 546.0836)" class="st0" width="3.7" height="34.7"/>
	</g>
	<g>

			<rect x="664.5" y="37.3" transform="matrix(0.7071 -0.7071 0.7071 0.7071 156.7926 487.0514)" class="st0" width="3.7" height="34"/>
	</g>
	<g>
		<polygon class="st0" points="746,99.1 680.7,33.8 705.6,8.9 708.1,11.5 685.9,33.8 746,93.9 768.3,71.6 770.9,74.2 		"/>
	</g>
	<g>
		<polygon class="st0" points="745.7,89.9 689.6,33.8 710,13.4 712.6,16 694.8,33.8 745.7,84.7 763.5,66.9 766.1,69.5 		"/>
	</g>
	<g>
		<polygon class="st0" points="745.6,80.8 698.7,33.9 714.6,18 717.2,20.6 703.8,33.9 745.6,75.7 758.9,62.3 761.5,64.9 		"/>
	</g>
	<g>
		<polygon class="st0" points="745.6,71.6 707.9,33.9 719.2,22.6 721.8,25.2 713,33.9 745.6,66.5 754.3,57.7 756.9,60.3 		"/>
	</g>
	<g>
		<polygon class="st0" points="745.1,62.6 716.8,34.2 723.8,27.2 726.4,29.8 722,34.2 745.1,57.4 749.6,52.9 752.2,55.5 		"/>
	</g>
	<g>
		<polygon class="st0" points="537.8,163.8 535.2,161.3 562.2,134.2 530.3,102.3 561.2,71.3 593.2,103.3 611.8,84.9 646.4,50.2
			677.1,80.9 692.9,65 662.3,34.4 696.6,0 699.2,2.6 667.4,34.4 698.1,65 677.1,86 646.4,55.4 614.4,87.5 593.2,108.5 561.2,76.5
			535.5,102.3 567.4,134.2 		"/>
	</g>
	<g>
		<polygon class="st0" points="542.3,168.3 539.7,165.7 571.7,133.7 539.9,101.9 561.1,80.7 592.9,112.5 645.7,59.6 676.5,90.3
			702.1,64.7 671.3,33.9 701,4.3 703.5,6.9 676.5,33.9 707.3,64.7 676.5,95.5 645.7,64.7 592.9,117.7 561.1,85.9 545.1,101.9
			576.9,133.7 		"/>
	</g>
	<g>
		<path class="st1" d="M592.9,115.1"/>
	</g>
	<g>
		<polygon class="st0" points="690.7,163.8 688.2,161.3 715.2,134.2 683.3,102.3 714.2,71.3 746.1,103.3 773,76.4 775.6,79
			746.1,108.5 714.2,76.5 688.4,102.3 720.4,134.2 		"/>
	</g>
	<g>
		<polygon class="st0" points="695.2,168.3 692.6,165.7 724.7,133.7 692.9,101.9 714,80.7 745.8,112.5 777.5,80.8 780.1,83.4
			745.8,117.7 714,85.9 698.1,101.9 729.8,133.7 		"/>
	</g>
</g>
</svg>
