<?xml version="1.0" encoding="utf-8"?>
<!-- Generator: Adobe Illustrator 23.0.1, SVG Export Plug-In . SVG Version: 6.00 Build 0)  -->
<svg version="1.1" id="Layer_1" xmlns="http://www.w3.org/2000/svg" xmlns:xlink="http://www.w3.org/1999/xlink" x="0px" y="0px"
	 viewBox="0 0 804.12 536.69" style="enable-background:new 0 0 804.12 536.69;" xml:space="preserve">
<style type="text/css">
	.st0{fill:#3B1F11;}
	.st1{fill:#2B1B10;}
	.st2{fill:#100705;}
	.st3{fill:#996A39;}
	.st4{fill:#472B1D;}
	.st5{fill:#22100C;}
	.st6{fill:#644028;}
	.st7{fill:#2D1E13;}
	.st8{fill:#794617;}
	.st9{fill:#2F180E;}
	.st10{fill:#26190F;}
	.st11{fill:#4A2B16;}
	.st12{fill:#180F09;}
	.st13{fill:#462917;}
	.st14{fill:#673917;}
	.st15{fill:#351B12;}
	.st16{fill:#442A19;}
	.st17{fill:#824913;}
	.st18{fill:#402618;}
	.st19{fill:#4C2A14;}
	.st20{fill:#432A15;}
	.st21{fill:#95612F;}
	.st22{fill:#BE893B;}
	.st23{fill:#100E1A;}
	.st24{fill:#4F2E13;}
	.st25{fill:#593615;}
	.st26{fill:#542C11;}
	.st27{fill:#E1B750;}
	.st28{fill:#865113;}
	.st29{fill:#2C1D12;}
	.st30{fill:#784111;}
	.st31{fill:#F1C584;}
	.st32{fill:#6C3712;}
	.st33{fill:#663B1B;}
	.st34{fill:#D3AD4E;}
	.st35{fill:#28170E;}
	.st36{fill:#AF721A;}
	.st37{fill:#A37641;}
	.st38{fill:#CD922B;}
	.st39{fill:#21120B;}
	.st40{fill:#D29B51;}
	.st41{fill:#4C2D16;}
	.st42{fill:#9A6629;}
	.st43{fill:#3B2010;}
	.st44{fill:#D7A454;}
	.st45{fill:#352116;}
	.st46{fill:#18100A;}
	.st47{fill:#4E3227;}
	.st48{fill:#24170E;}
	.st49{fill:#402A22;}
	.st50{fill:#9B6C3E;}
	.st51{fill:#221A12;}
	.st52{fill:#453229;}
	.st53{fill:#BB7825;}
	.st54{fill:#573B2F;}
	.st55{fill:#4D311C;}
	.st56{fill:#452813;}
	.st57{fill:#81441F;}
	.st58{fill:#814313;}
	.st59{fill:#B5801A;}
	.st60{fill:#EBDFB5;}
	.st61{fill:#301F13;}
	.st62{fill:#603B21;}
	.st63{fill:#4F2E12;}
	.st64{fill:#1E1711;}
	.st65{fill:#402113;}
	.st66{fill:#A5671C;}
	.st67{fill:#EECB6E;}
	.st68{fill:#451B0E;}
	.st69{fill:#633710;}
	.st70{fill:#9B5A16;}
	.st71{fill:#572913;}
	.st72{fill:#502610;}
	.st73{fill:#EDECD7;}
	.st74{fill:#915315;}
	.st75{fill:#DDBC60;}
	.st76{fill:#E4C875;}
	.st77{fill:#965715;}
	.st78{fill:#DCC46F;}
	.st79{fill:#040708;}
	.st80{fill:#936F5D;}
	.st81{fill:#392313;}
	.st82{fill:#E2D495;}
	.st83{fill:#DAB763;}
	.st84{fill:#C69839;}
	.st85{fill:#F0F0D5;}
	.st86{fill:#866A59;}
	.st87{fill:#66422A;}
	.st88{fill:#AE6E1C;}
	.st89{fill:#EAE2B3;}
	.st90{fill:#361B0F;}
	.st91{fill:#826037;}
	.st92{fill:#D1B15F;}
	.st93{fill:#C7A062;}
	.st94{fill:#DEC470;}
	.st95{fill:#F5C76E;}
	.st96{fill:#1A0F08;}
	.st97{fill:#E6D28C;}
	.st98{fill:#653312;}
	.st99{fill:#D7A948;}
	.st100{fill:#D9AF59;}
	.st101{fill:#2F1F11;}
	.st102{fill:#7F501B;}
	.st103{fill:#EFE3B9;}
	.st104{fill:#D3AA50;}
	.st105{fill:#9E611C;}
	.st106{fill:#AC6F19;}
	.st107{fill:#644027;}
	.st108{fill:#432918;}
	.st109{fill:#E9C47D;}
	.st110{fill:#B6792A;}
	.st111{fill:#DABB69;}
	.st112{fill:#160A06;}
	.st113{fill:#CEB55B;}
	.st114{fill:#EBE8C7;}
	.st115{fill:#E2C777;}
	.st116{fill:#3E2413;}
	.st117{fill:#9C5E1B;}
	.st118{fill:#7D4921;}
	.st119{fill:#986C42;}
	.st120{fill:#EEE2B2;}
	.st121{fill:#EAD59B;}
	.st122{fill:#EAF4EC;}
	.st123{fill:#C9992B;}
	.st124{fill:#EBCC74;}
	.st125{fill:#AF9063;}
	.st126{fill:#381A10;}
	.st127{fill:#E7DEB3;}
	.st128{fill:#DDAF58;}
	.st129{fill:#E6BF51;}
	.st130{fill:#70360F;}
	.st131{fill:#E4B95D;}
	.st132{fill:#EEC762;}
	.st133{fill:#965515;}
	.st134{fill:#ECDFAB;}
	.st135{fill:#FCE5A0;}
	.st136{fill:#D7A148;}
	.st137{fill:#925A19;}
	.st138{fill:#E6C879;}
	.st139{fill:url(#SVGID_1_);}
	.st140{fill:#A55E16;}
	.st141{fill:#CC9B40;}
	.st142{fill:#4F392C;}
	.st143{fill:#613A1C;}
	.st144{fill:#BC8A2A;}
	.st145{fill:#2F1C13;}
	.st146{fill:#1D120C;}
	.st147{fill:#F3F3F1;}
	.st148{fill:#E1C675;}
	.st149{fill:#EFDA99;}
	.st150{fill:#DEC27A;}
	.st151{fill:#2D1B0F;}
	.st152{fill:#A46915;}
	.st153{fill:#E9CA89;}
	.st154{fill:#DCAA45;}
	.st155{fill:#E1A140;}
	.st156{fill:#ECD496;}
	.st157{fill:#0C090A;}
	.st158{fill:#492E23;}
	.st159{fill:url(#SVGID_2_);}
	.st160{fill:#E5C86A;}
	.st161{fill:#DDC274;}
	.st162{fill:#C09035;}
	.st163{fill:#B07119;}
	.st164{fill:#070908;}
	.st165{fill:#4C2C14;}
	.st166{fill:#532E11;}
	.st167{fill:#D49B2F;}
	.st168{fill:#F1D079;}
	.st169{fill:#73482B;}
	.st170{fill:#603417;}
	.st171{fill:#C3861E;}
	.st172{fill:#D3BA5D;}
	.st173{fill:#623319;}
	.st174{fill:#945B1E;}
	.st175{fill:#DFC882;}
	.st176{fill:#67360E;}
	.st177{fill:#DCB55A;}
	.st178{fill:#2D1A10;}
	.st179{fill:#C1871C;}
	.st180{fill:#D6AF47;}
	.st181{fill:#E5B35D;}
	.st182{fill:#F9E6AB;}
	.st183{fill:#7D4112;}
	.st184{fill:#9B5716;}
	.st185{fill:#CB9923;}
	.st186{fill:#965815;}
	.st187{fill:#110805;}
	.st188{fill:#703A14;}
	.st189{fill:#A36216;}
	.st190{fill:#150B06;}
	.st191{fill:#774D25;}
	.st192{fill:#93745D;}
	.st193{fill:#482B15;}
	.st194{fill:#2E1A10;}
	.st195{fill:#EABF62;}
	.st196{fill:#1A140E;}
	.st197{fill:#A56016;}
	.st198{fill:#D1911E;}
	.st199{fill:#432513;}
	.st200{fill:#422612;}
	.st201{fill:#6C320E;}
	.st202{fill:#2D190F;}
	.st203{fill:#C5852C;}
	.st204{fill:#C08125;}
	.st205{fill:#1B0807;}
	.st206{fill:#D1A830;}
	.st207{fill:#B47F42;}
	.st208{fill:#1E1B14;}
	.st209{fill:#4E2F1A;}
	.st210{fill:#6D4019;}
	.st211{fill:#17110B;}
	.st212{fill:#2B1B11;}
	.st213{fill:#583321;}
	.st214{fill:#4C2B21;}
	.st215{fill:#2D1F15;}
	.st216{fill:#563A2E;}
	.st217{fill:#130F0B;}
	.st218{fill:#1D150E;}
	.st219{fill:#563128;}
	.st220{fill:#624024;}
	.st221{fill:#56341D;}
	.st222{fill:#321B10;}
	.st223{fill:#713F28;}
	.st224{fill:#5C3820;}
	.st225{fill:#2C190F;}
	.st226{fill:#281B12;}
	.st227{fill:#3E1E15;}
	.st228{fill:#331E12;}
	.st229{fill:#2C1C10;}
	.st230{fill:#412615;}
	.st231{fill:#704427;}
	.st232{fill:#462412;}
	.st233{fill:#4B2710;}
	.st234{fill:#8D5320;}
	.st235{fill:#4A2B17;}
	.st236{fill:#80451D;}
	.st237{fill:#28160D;}
	.st238{fill:#7D4212;}
	.st239{fill:#21110B;}
</style>
<g id="XMLID_9_">
	<g>
		<path class="st0" d="M785.74,432.4c0,0,3.6,2.53,1.27,3.8h-10.14v-3.8H785.74z"/>
		<path class="st1" d="M766.11,461.54h2.31l27.45-2.11l8.02,22.38l-5.68,1.32c-0.63-8.58-3.63-4.27-19.24-9.98
			C763.36,467.46,766.11,461.54,766.11,461.54z"/>
		<path class="st2" d="M757.03,368.6c0.51,0.17,0.56,0.32,0.22,0.46L757.03,368.6z"/>
		<path class="st3" d="M751.11,399.66c0,0,5.69-6.4-12.42-6.82l29.73,0.29l2.96,6.54H751.11z"/>
		<path class="st4" d="M744.78,369.86c6.88-0.14,11.44-0.39,12.47-0.81l7.13,14.49c0,0-10.29-7.96-12.42-10.07
			c-2.11-2.11-7.18-3.46-7.18-3.46V369.86z"/>
		<path class="st5" d="M726.63,370.02c6.94,0,13.16-0.05,18.14-0.15v0.15c0,0,5.07,1.35,7.18,3.46
			c2.13,2.11,12.42,10.07,12.42,10.07l3.01,6.12h-22.91v-3.23c0.25,0,0.49-0.02,0.73-0.05
			C750.27,385.52,752.03,372.92,726.63,370.02z"/>
		<path class="st6" d="M742.63,441.09v-4.88h34.24h10.14c0,0-1.69,12.03-19.63,8.97C754.58,443,748.22,441.09,742.63,441.09z"/>
		<path class="st7" d="M720.08,405.58c-4.87-1.47-6.55-5.91-6.55-5.91h37.59h20.27l3.87,9v0.02c0.42,5.57-23.92,1.33-28.14-1.18
			C742.89,404.99,724.93,407.06,720.08,405.58z"/>
		<path class="st2" d="M726.62,370.02c-4.7,0-9.75-0.02-14.98-0.07C717.78,369.68,723.17,369.63,726.62,370.02z"/>
		<path class="st8" d="M713.09,459.43c0.29-0.74,0.44-1.17,0.44-1.17l41.05,1.17l41.3-1.59v1.59l-27.45,2.11h-2.31h-17.82
			l-35.21-1.06l-0.37-0.17c0.15-0.34,0.27-0.63,0.35-0.88H713.09z"/>
		<polygon class="st9" points="721.55,330.1 642.17,327.61 642.17,327.6 704.66,322.24 732.53,307.29 745.2,333.51 739.29,333.51 		
			"/>
		<path class="st5" d="M708.04,389.66h-20.36v-3.28c5.76,0,23.74-0.3,32.18-3.82c9.66-4.04,19.34,3.87,24.61,3.87v3.23H708.04z"/>
		<path class="st10" d="M687.88,452.46l-9.88-0.19l0.07-3.67c10.81,0,35.46-3.43,35.46-3.43c9.29,1.59,14.16-0.52,22.38-3.06
			c2.37-0.73,4.49-1.03,6.72-1.03c5.59,0,11.94,1.91,24.75,4.09c17.94,3.06,19.63-8.97,19.63-8.97l6.98,17.94L687.88,452.46z"/>
		<path class="st11" d="M629.48,363.31c0,0-9.29-29.8,16.89-29.8h81.09c0,0,16.4,33.2-59.6,30.68v0.07
			C653.86,363.87,640.41,363.56,629.48,363.31z"/>
		<path class="st12" d="M680.5,486.46h-10.58v-1.25c7.01,0,14.14-0.47,20.27-2.13c13.19-3.58,20.27-17.5,22.52-22.77l0.37,0.17
			l35.21,1.06h17.82c0,0-2.75,5.91,12.87,11.61c15.61,5.71,18.62,1.4,19.24,9.98v0.02l-4.24,0.98L680.5,486.46z"/>
		<path class="st13" d="M757.03,368.6c-5.02-1.72-49.4-3.28-89.16-4.34v-0.07c76,2.52,59.6-30.68,59.6-30.68h11.83h5.91
			L757.03,368.6z"/>
		<path class="st14" d="M607.96,166.33c2.06-1.67,6.96-20.49,9.27-23.45c2.33-2.96,7.4-5.49,15.85-5.49s5.91,6.34,8.23,9.29
			c2.33,2.96,6.55,2.11,6.55,2.11l6.33-2.11l10.07,14.83l5.56,8.19h-63.99C605.83,169.71,605.91,168.01,607.96,166.33z"/>
		<path class="st15" d="M639.19,196.74c0,0,9.71-9.09,17.74-7.82c8.02,1.27,12.47,2.96,15.63,2.96c3.18,0,6.76,4.87,6.76,4.87
			H639.19z"/>
		<path class="st6" d="M673.83,448.23c-5.49-1.69-25.76-12.03-34.63-12.03c1.22,0,1.91,0,1.91,0h22.59h78.94v4.88
			c-2.23,0-4.36,0.3-6.72,1.03c-8.23,2.53-13.09,4.65-22.38,3.06c0,0-24.65,3.43-35.46,3.43
			C676.14,448.6,674.65,448.49,673.83,448.23z"/>
		<path class="st16" d="M668.56,372.85c-7.82-0.22-20.47-3.75-20.47-3.75v-0.02c17.81,0.34,42.27,0.73,63.55,0.86
			C695.55,370.71,674.2,373.01,668.56,372.85z"/>
		<path class="st17" d="M620.83,191.45c-3.8-0.2-12.25-5.91-13.73-11.4c-1.47-5.49,9.29-7.38,9.29-7.38h48.99l4.65-2.5l12.04,26.57
			h-2.75c0,0-3.58-4.87-6.76-4.87c-3.16,0-7.6-1.69-15.63-2.96c-8.02-1.27-17.74,7.82-17.74,7.82h-6.12
			C633.08,196.74,624.63,191.67,620.83,191.45z"/>
		<path class="st18" d="M691.99,410.65c-5.27-8.45-66.09-10.98-66.09-10.98h74.11h13.51c0,0,1.69,4.44,6.55,5.91
			c4.85,1.49,22.81-0.59,27.03,1.93c4.22,2.52,28.57,6.76,28.14,1.18l8.8,20.54h-34.21c0,0-1.69-2.96-2.74-6.54
			c-1.06-3.6-17.96-3.8-26.4-2.11S697.27,419.09,691.99,410.65z"/>
		<path class="st19" d="M641.1,484.55c-9.29,1.06-25.56-0.84-25.56-0.84s-6.76-2.11,10.36-8.23c17.1-6.13,26.67-16.71,26.64-17.21
			c0-0.05-0.39-0.1-1.06-0.14c0.86,0.05,17.16,0.9,24.01,1.3c6.89,0.42,36.59,0.02,37.59,0c-0.08,0.25-0.2,0.54-0.35,0.88
			c-2.25,5.27-9.33,19.19-22.52,22.77c-6.13,1.66-13.26,2.13-20.27,2.13C658.25,485.21,646.92,483.89,641.1,484.55z"/>
		<path class="st20" d="M727.46,303.24l-95.97-3.26l0.15-4.39c17.92,0,55.9-19.66,66.26-15.68
			C710.57,284.79,727.46,303.24,727.46,303.24z"/>
		<path class="st21" d="M623.15,456.26c0,0-3.73-4.75,6.49-4.75v-0.1l5.98,0.1l28.7,0.52l6.77,0.12l6.91,0.12l9.88,0.19l106.11,1.69
			l1.89,3.7l-41.3,1.59l-41.05-1.17l-33.03-0.95l-27.57-1.06H623.15z"/>
		<path class="st22" d="M626.46,102.22c1.69-2.06,3.02-2.42,3.02-2.42l23.45,35.86c-2.11-1.23-5.1-2.3-6.76,0.25
			c-2.75,4.22-4.87-4.59-4.87-4.59c0.63-0.05,0.78-0.69,1.06-2.8c0.63-4.85,0.84-1.05-6.76-13.94c-7.6-12.87-13.97-2.38-13.97-2.38
			c0.86-2.28,1.42-3.72,1.49-3.92c0.02-0.02,0.02-0.03,0.02-0.03c0.51-1.35,1.05-2.48,1.59-3.45c0-0.02,0.02-0.05,0.03-0.07
			C625.34,103.69,625.92,102.87,626.46,102.22z"/>
		<path class="st23" d="M622.27,363.17c2.25,0.03,4.66,0.08,7.21,0.14c10.93,0.25,24.38,0.56,38.38,0.95
			c39.77,1.06,84.15,2.62,89.16,4.34l0.22,0.46c-1.03,0.42-5.59,0.68-12.47,0.81c-4.98,0.1-11.2,0.15-18.14,0.15c0,0,0,0-0.02,0
			c-3.45-0.39-8.84-0.34-14.98-0.07c-21.29-0.14-45.75-0.52-63.55-0.86c-14.75-0.27-24.93-0.49-24.93-0.49l-19.6-5.81
			C603.55,362.79,610.85,362.92,622.27,363.17z"/>
		<path class="st24" d="M614.23,456.26h-12.7c0,0-12.28-5.56-0.07-5.36c0.02,0,0.05,0,0.07,0l28.11,0.51v0.1
			c-10.22,0-6.49,4.75-6.49,4.75H614.23z"/>
		<path class="st25" d="M609.97,146.1c3.62-12.28,9.04-26.98,11.67-33.89c0,0,6.37-10.49,13.97,2.38c7.6,12.89,7.38,9.09,6.76,13.94
			c-0.29,2.11-0.44,2.75-1.06,2.8c-0.81,0.05-2.42-0.9-6.12-0.9c-6.55,0-10.78,2.96-14.16,2.96S609.97,146.1,609.97,146.1z"/>
		<path class="st26" d="M651.44,458.13c-5.91-0.29-33.99,0.14-33.99,0.14s-5.59-0.74-3.23-2.01h8.92h29.78l27.57,1.06l33.03,0.95
			c0,0-0.15,0.42-0.44,1.17h-0.02c-1,0.02-30.7,0.42-37.59,0c-6.84-0.41-23.14-1.25-24.01-1.3
			C651.46,458.13,651.44,458.13,651.44,458.13z"/>
		<path class="st27" d="M613.65,88.35c4.85-1.11,15.83,11.45,15.83,11.45s-1.33,0.35-3.02,2.42c0,0-3.72-5.27-6.44-7.16
			c-0.08-0.07-0.17-0.14-0.24-0.17l-7.01-5C612.77,89.89,613.03,89.22,613.65,88.35z"/>
		<path class="st28" d="M610.48,218.06c-1.35-4.9-2.42-10.61-3.19-16.62l0.68-0.08l69.25-1.88c4.24-0.1,8.41,1.88,8.41,1.88
			l12.28,34.23h-88.35h-0.02C611.29,229.63,612.11,224.01,610.48,218.06z"/>
		<path class="st0" d="M619.35,436.2c0,0-19.39-1.64-12.01-8.53c16.78,0.35,45.21,2.82,45.21,2.82l8.19,1.91h116.14v3.8h-34.24
			h-78.94H641.1c0,0-0.69,0-1.91,0C635.6,436.2,627.47,436.2,619.35,436.2z"/>
		<path class="st29" d="M632.44,446.97c-1.89-4.51-19-4.43-19.93-5.27s1.15-5.49,1.15-5.49c1.86,0,3.78,0,5.69,0
			c8.13,0,16.25,0,19.85,0c8.87,0,29.14,10.34,34.63,12.03c0.83,0.25,2.31,0.37,4.24,0.37l-0.07,3.67l-6.91-0.12l-6.77-0.12
			l-28.7-0.52C635.61,451.51,634.33,451.49,632.44,446.97z"/>
		<path class="st30" d="M618.5,257.64c-15.2-4.34,4.65-17.21,4.65-17.21h74.75v12.69c0,12.7-24.5,8.02-38.85,3.09
			C644.69,251.26,633.7,261.98,618.5,257.64z"/>
		<path class="st31" d="M677.2,199.48l-69.25,1.88v-4.61h25.12h6.12h40.12h2.75h1.89l1.66,4.61
			C685.62,201.35,681.45,199.38,677.2,199.48z"/>
		<path class="st32" d="M612.47,84.05l-10.85,7.91c0.88-3.75,1.99-6.99,2.91-9.33h0.02C608.31,78.39,612.47,84.05,612.47,84.05z"/>
		<path class="st33" d="M607.96,240.43c0.57-1.64,1.11-3.26,1.57-4.85h0.02h88.35v4.85h-74.75H607.96z"/>
		<path class="st34" d="M605.83,108.19c-1.08,2.69-2.15,2.84-3.01,2.13c-0.37-0.3-0.69-0.76-0.98-1.23
			c-0.41-0.73-0.73-1.52-0.9-1.98c-0.07-0.22-0.12-0.35-0.12-0.35c-0.56-1.86-0.68-3.56-0.68-3.56c0.07-3.99,0.66-7.82,1.47-11.23
			l10.85-7.91c0,0-4.16-5.66-7.92-1.42h-0.02c0.98-2.47,1.72-3.94,1.72-3.94c11.52-1.47,27.67,9.71,18.52,6.76
			c-6.39-2.06-9.7,0.91-11.12,2.91c-0.63,0.86-0.88,1.54-0.88,1.54l7.01,5c-0.78-0.49-1.45-0.68-1.91-0.35
			C615.76,96.01,608.4,101.84,605.83,108.19z"/>
		<path class="st15" d="M616.39,172.67c0,0-10.76,1.89-9.29,7.38c1.49,5.49,9.93,11.2,13.73,11.4c3.8,0.22,12.25,5.29,12.25,5.29
			h-25.12v4.61l-0.68,0.08c-1.27-9.85-1.79-20.51-1.54-29.61h0.08l5.68,0.84H616.39z"/>
		<path class="st35" d="M599.92,421.42c-6.33-1.06-6.96-10.78-7.31-12.47c-0.34-1.69,4.78-9.29,4.78-9.29h28.52
			c0,0,60.82,2.53,66.09,10.98c5.29,8.45,20.27,11.62,28.72,9.93s25.34-1.49,26.4,2.11c1.05,3.58,2.74,6.54,2.74,6.54h-1.55
			c0,0-68.13-1.05-74.25-1.05c-6.13,0-8.87-2.96-12.67-3.8C657.57,423.53,606.25,422.47,599.92,421.42z"/>
		<path class="st36" d="M617.23,142.89c-2.31,2.96-7.21,21.78-9.27,23.45c-2.04,1.67-2.13,3.38-2.13,3.38h-0.02
			c0.17-3.65,0.44-7.03,0.86-9.93c0.51-3.56,1.72-8.4,3.29-13.68c0,0,7.69-12.7,11.07-12.7s7.6-2.96,14.16-2.96
			c3.7,0,5.3,0.95,6.12,0.9c0,0,2.11,8.82,4.87,4.59c1.66-2.55,4.65-1.49,6.76-0.25v0.02c1.4,0.81,2.42,1.71,2.42,1.71l8.92,24.12
			l-10.07-14.83l-6.33,2.11c0,0-4.22,0.84-6.55-2.11c-2.31-2.96,0.22-9.29-8.23-9.29S619.56,139.93,617.23,142.89z"/>
		<path class="st23" d="M611.51,172.67l-5.68-0.84h-0.08c0.02-0.71,0.03-1.42,0.07-2.11h0.02h63.99l0.2,0.46l-4.65,2.5h-48.99
			H611.51z"/>
		<path class="st37" d="M606.25,394.39c-3.67-1.84,2.11-2.77,2.53-2.84h0.02l128.79,1.27c0.37,0,0.74,0.02,1.1,0.02
			c18.11,0.42,12.42,6.82,12.42,6.82h-37.59h-13.51c0.84-5.07-49.84-3.26-49.84-3.26S610.05,396.29,606.25,394.39z"/>
		<path class="st24" d="M607.32,381.3c-7.4,0-3.77-7.18-3.77-7.18l3.97-5.52h15.63c0,0,10.19,0.22,24.93,0.49v0.02
			c0,0,12.65,3.53,20.47,3.75c5.64,0.15,27-2.15,43.08-2.91c5.24,0.05,10.29,0.07,14.98,0.07c0.02,0,0.02,0,0.02,0
			c25.39,2.91,23.63,15.51,18.57,16.37c-0.24,0.03-0.47,0.05-0.73,0.05c-5.27,0-14.95-7.91-24.61-3.87
			c-8.45,3.51-26.42,3.82-32.18,3.82c-1.15,0-1.81-0.02-1.81-0.02s-44.14-1.27-46.25-2.82C637.51,381.98,614.7,381.3,607.32,381.3z"
			/>
		<path class="st23" d="M593.08,389.66c2.16-7.97,3.97-15.44,4.73-20.51c0.29-1.88,0.52-4.16,0.74-6.77l5,0.41l19.6,5.81h-15.63
			l-3.97,5.52c0,0-3.63,7.18,3.77,7.18c7.38,0,30.19,0.68,32.3,2.25c2.11,1.55,46.25,2.82,46.25,2.82s0.66,0.02,1.81,0.02v3.28
			H593.08z"/>
		<path class="st38" d="M606.25,78.69c-21.96-3.01-49.63,31.51-70.17,63.37l-0.02,0.02c-36.78,32.06,6.42-43.43,6.42-43.43
			c5.95-7.5,12.18-14.09,18.55-19.04c5.39-4.17,10.85-7.16,16.32-8.51c0,0,9.05,1.69,15.81,0S606.25,78.69,606.25,78.69z"/>
		<path class="st39" d="M732.53,307.29l-132.58-2.23h-0.02c0.02-2.08,0.02-4.12,0.02-6.15l31.54,1.06l95.97,3.26L732.53,307.29z"/>
		<path class="st40" d="M718.17,272.96l-118.25,2.55c0-2.72,0.17-5.32,0.46-7.8h0.02h111.02L718.17,272.96z"/>
		<path class="st41" d="M623.15,292.12c-7.97-13.48-23.23-16.61-23.23-16.61l118.25-2.55l9.29,30.27c0,0-16.89-18.45-29.56-23.33
			c-10.36-3.99-48.33,15.68-66.26,15.68C627.62,295.58,624.62,294.59,623.15,292.12z"/>
		<path class="st42" d="M605.83,108.19c2.57-6.35,9.93-12.18,12.04-13.65c0.46-0.32,1.13-0.14,1.91,0.35
			c0.07,0.03,0.15,0.1,0.24,0.17c2.72,1.89,6.44,7.16,6.44,7.16c-0.54,0.64-1.11,1.47-1.69,2.52c-0.02,0.02-0.03,0.05-0.03,0.07
			c-0.44,0.59-3.9,5.15-7.28,2.01c-3.63-3.38,0.2-5.1-3.38-4.48c-3.6,0.64-3.18,8.02-8.24,8.87c-1.25,0.2-2.25-0.17-3.01-0.9
			C603.69,111.03,604.75,110.87,605.83,108.19z"/>
		<path class="st43" d="M600.37,267.71c1.25-10.74,4.85-19.39,7.59-27.28h15.19c0,0-19.85,12.87-4.65,17.21
			c15.2,4.34,26.18-6.39,40.54-1.44c14.36,4.93,38.85,9.61,38.85-3.09v-12.69v-4.85l13.51,32.13H600.39H600.37z"/>
		<path class="st20" d="M599.92,275.52c0,0,15.25,3.13,23.23,16.61c1.47,2.47,4.48,3.46,8.5,3.46l-0.15,4.39l-31.54-1.06
			C599.95,290.2,599.92,282.09,599.92,275.52z"/>
		<path class="st44" d="M607.96,330.49c-4.73-0.1-6.44-0.46-6.44-0.9c0-1.13,11.25-2.91,11.25-2.91l29.39,0.93l79.38,2.48
			l17.74,3.41h-11.83h-81.09h-9.29C637.08,333.51,620.22,330.77,607.96,330.49z"/>
		<path class="st45" d="M607.96,348.92c-3.73-2.06-5.9-11.74-7.01-19.26l0.57-0.07c0,0.44,1.71,0.79,6.44,0.9
			c12.26,0.29,29.12,3.02,29.12,3.02h9.29c-26.18,0-16.89,29.8-16.89,29.8c-2.55-0.05-4.97-0.1-7.21-0.14
			C619.89,360.1,613.08,351.7,607.96,348.92z"/>
		<path class="st8" d="M599.87,320.37c0.03-5.12,0.07-10.27,0.07-15.31h0.02l132.58,2.23l-27.87,14.95l-62.49,5.36v0.02l-29.39-0.93
			c0,0-11.25,1.77-11.25,2.91l-0.57,0.07c-0.71-4.65-1.01-8.46-1.08-9.17C599.87,320.4,599.87,320.37,599.87,320.37z"/>
		<path class="st46" d="M598.55,362.38c0.83-10.37,1.18-25.97,1.32-41.9c0.07,0.71,0.37,4.53,1.08,9.17
			c1.11,7.52,3.28,17.2,7.01,19.26c5.12,2.79,11.93,11.18,14.31,14.26c-11.42-0.25-18.72-0.39-18.72-0.39L598.55,362.38z"/>
		<path class="st47" d="M601.61,114.59c-1.13-3.77-1.52-7.65-1.45-11.4c0,0,0.12,1.71,0.68,3.56c0,0,0.05,0.14,0.12,0.35
			c0.22,0.68,0.51,1.37,0.9,1.98c0.29,0.47,0.61,0.93,0.98,1.23c0.76,0.73,1.76,1.1,3.01,0.9c5.07-0.84,4.65-8.23,8.24-8.87
			c3.58-0.63-0.25,1.1,3.38,4.48c3.38,3.14,6.84-1.42,7.28-2.01c-0.54,0.96-1.08,2.09-1.59,3.45c0,0,0,0.02-0.02,0.03
			C618.86,114.17,601.61,114.59,601.61,114.59z"/>
		<path class="st48" d="M625.9,399.66h-28.52h-7.11c0.79-2.74,1.59-5.52,2.33-8.26l16.18,0.15c-0.42,0.07-6.2,1-2.53,2.84
			c3.8,1.89,43.92,2.01,43.92,2.01s50.68-1.81,49.84,3.26H625.9z"/>
		<path class="st12" d="M598.65,436.2c-6.54,0-6.54-5.29-3.16-7.82c0.91-0.69,5.57-0.84,11.84-0.71
			c-7.38,6.89,12.01,8.53,12.01,8.53c-1.91,0-3.83,0-5.69,0C606.91,436.2,600.97,436.2,598.65,436.2z"/>
		<path class="st40" d="M608.79,391.56l-16.18-0.15l0.47-1.74h94.6h20.36h36.44h22.91l1.05,3.46l-29.73-0.29
			c-0.35,0-0.73-0.02-1.1-0.02l-128.79-1.27H608.79z"/>
		<path class="st12" d="M591.47,485.21c0,0,2.96-2.77,5.71-4.24c2.74-1.49,12.45-0.22,16.47-6.82c4-6.61-5.91-8.18-10.1-9.02
			c-4.19-0.84-8.9-8.87-8.9-8.87h6.88h12.7c-2.37,1.27,3.23,2.01,3.23,2.01s28.08-0.42,33.99-0.14c0,0,0.02,0,0.03,0
			c0.68,0.03,1.06,0.08,1.06,0.14c0.03,0.51-9.54,11.08-26.64,17.21c-17.11,6.12-10.36,8.23-10.36,8.23s16.27,1.91,25.56,0.84
			c5.81-0.66,17.15,0.66,28.82,0.66v1.25h-48.25c0,0-18.04-0.93-32.93-0.44L591.47,485.21z"/>
		<path class="st49" d="M593.16,272.29v6.44c0,0,0,0-0.02-0.02c-1.44-4.17-4.29-7.72-8.72-9.39c0,0,8.41-3.92-3.89-7.52
			c2.16,0.46,4.29,1.3,6.28,2.45C591.47,266.92,593.16,272.29,593.16,272.29z"/>
		<path class="st23" d="M580.91,430.07c0,0,4.81-14.71,9.36-30.41h7.11c0,0-5.12,7.6-4.78,9.29c0.35,1.69,0.98,11.4,7.31,12.47
			c6.34,1.05,57.66,2.11,61.46,2.96c3.8,0.84,6.54,3.8,12.67,3.8c6.12,0,74.25,1.05,74.25,1.05h1.55h34.21l1.69,3.18h-8.87H660.73
			l-8.19-1.91c0,0-28.43-2.47-45.21-2.82c-6.27-0.14-10.93,0.02-11.84,0.71c-3.38,2.53-3.38,7.82,3.16,7.82c2.31,0,8.26,0,15,0
			c0,0-2.08,4.65-1.15,5.49s18.04,0.76,19.93,5.27c1.89,4.53,3.18,4.54,3.18,4.54l-5.98-0.1l-28.11-0.51c-0.02,0-0.05,0-0.07,0
			l-22.43-0.41C580.59,438.45,580.91,430.07,580.91,430.07z"/>
		<path class="st12" d="M594.65,456.26h-16.44c0.3-1.99,0.57-3.92,0.81-5.76l22.43,0.41c-12.21-0.2,0.07,5.36,0.07,5.36H594.65z"/>
		<path class="st50" d="M580.54,261.8c12.3,3.6,3.89,7.52,3.89,7.52c-2.03-0.78-4.38-1.17-7.08-1.05c-3.31,0.14-6.88,2.21-10.02,4.7
			c-10.79,1.66,4-10.1,4.7-10.64c0.02-0.02,0.02-0.02,0.02-0.02C574.71,261.27,577.65,261.17,580.54,261.8z"/>
		<path class="st23" d="M571.08,488.29c3.41-11.03,5.66-22.35,7.13-32.03h16.44c0,0,4.71,8.02,8.9,8.87
			c4.19,0.84,14.11,2.42,10.1,9.02c-4.02,6.61-13.73,5.34-16.47,6.82c-2.75,1.47-5.71,4.24-5.71,4.24l-2.72,0.81
			c0,0-0.02-0.02-0.02,0C581,486.28,574.1,486.92,571.08,488.29z"/>
		<path class="st51" d="M567.33,272.96c3.14-2.48,6.71-4.56,10.02-4.7c2.7-0.12,5.05,0.27,7.08,1.05c4.43,1.67,7.28,5.22,8.72,9.39
			c-0.41-0.56-11.13-14.78-34.85,3.46C558.66,281.68,562.5,276.82,567.33,272.96z"/>
		<path class="st52" d="M567.33,272.96c-4.83,3.85-8.67,8.72-9.04,9.21c-0.02,0.02-0.02,0.02-0.03,0.03c0,0,0,0,0-7.26
			s9.12-10.85,13.77-12.62C571.33,262.86,556.54,274.62,567.33,272.96z"/>
		<path class="st53" d="M542.48,362.79c0,0,11.83-0.29,17.47-7.01c5.63-6.72,10.14-9.85,10.14-9.85s-1.98,4.66-4.41,9.87
			c0,0.02-0.02,0.03-0.02,0.05c-1.42,3.04-2.99,6.25-4.39,8.8c-1.17,2.09-2.23,3.75-3.01,4.51c0,0-0.02,0-0.03,0.02
			c-0.1,0.05-0.52,0.27-1.18,0.59C552.58,370.66,542.48,362.79,542.48,362.79z"/>
		<path class="st54" d="M561.27,364.64c1.4-2.55,2.97-5.76,4.39-8.8c-0.2,1.06-2.7,14.43,1.32,13.31
			c4.21-1.17,13.51-17.21,9.29-6.37c-4.09,10.51-14.12,13.35-14.75,13.5c3.33-1.18-0.03-11.52-0.03-11.52L561.27,364.64z"/>
		<path class="st55" d="M561.49,376.3c-2.4,0.79-5.68-1.91-7.8-1.88l-0.17-3.07c1.45-0.61,2.69-1.18,3.53-1.59
			c0.46-0.08,0.86-0.27,1.18-0.59c0.02-0.02,0.03-0.02,0.03-0.02c0.78-0.76,1.84-2.42,3.01-4.51l0.22,0.12
			c0,0,3.36,10.34,0.03,11.52C561.5,376.3,561.49,376.3,561.49,376.3z"/>
		<path class="st27" d="M547.16,55.04c1.59,0.98,3.94,2.21,6.54,3.5c-30.63,22.59-51.02,50.71-63.79,73.38
			c-1.42,2.52-2.74,4.95-3.97,7.31l-0.02,0.02c-27.16,25.81-10.2-21.56-2.87-40.22c0.02-0.08,0.05-0.15,0.08-0.24
			c0.91-2.15,1.77-4.31,2.6-6.44c0.05-0.1,0.08-0.2,0.12-0.3c0.03-0.07,0.05-0.1,0.05-0.1c13.23-34.09,32.98-47.17,42.25-47.66
			C538.54,49.53,545.1,53.77,547.16,55.04z"/>
		<path class="st56" d="M547.16,387.23c-11.77,5.73-22.42-10.79-22.84-13.24c-0.42-2.45,3.38-4.73,6.71-4.83
			c2.91-0.08,5.37-3.38,5.95-4.21c-0.68,1.2-1.06,2.99-0.83,5.66c0.59,6.69,11.03,3.38,17.37,0.74l0.17,3.07
			c-0.88,0.02-1.55,0.49-1.91,1.88C550.61,381.03,558.95,381.5,547.16,387.23z"/>
		<path class="st57" d="M537.09,364.76c1.79-2.89,5.39-1.98,5.39-1.98s10.1,7.87,14.56,6.98c-0.84,0.41-2.08,0.98-3.53,1.59
			c-6.34,2.64-16.78,5.95-17.37-0.74c-0.24-2.67,0.15-4.46,0.83-5.66C537.04,364.83,537.09,364.76,537.09,364.76z"/>
		<path class="st58" d="M534.41,99.79c0,0-0.02,0,0,0.02c-27.43,34.02-46.79,78.74-46.79,78.74l-4.27,1.23
			c-2.65-1.91-5.49-3.72-8.48-5.41c4.34-9.63,8.6-18.46,12.74-26.57l0.02,0.02C487.61,147.82,532.21,73.66,534.41,99.79z"/>
		<path class="st59" d="M489.91,131.92c12.77-22.67,33.16-50.8,63.79-73.38c0.84,0.41,1.71,0.83,2.58,1.25
			c0,0-20.49,7.33-50.6,55.82l-0.02,0.02L489.91,131.92z"/>
		<path class="st60" d="M497.71,31.29c3.97,1.4,7.72,2.84,11.25,4.29c-7.31-2.82-16.34-1.76-23.06,18.9
			c-6.98,21.39-12.11,34.92-28.48,62.61s-13.19,44.43-13.19,44.43c-2.42-0.76-4.88-1.49-7.35-2.16c0,0-2.47-9.71,2.01-18.16
			c4.49-8.45,34.31-106.56,58.81-109.91C497.71,31.29,497.71,31.29,497.71,31.29z"/>
		<path class="st23" d="M534.41,99.79c-2.2-26.13-46.79,48.03-46.79,48.03l-0.02-0.02c6.32-12.35,12.37-23.01,18.08-32.18l0.02-0.02
			c30.1-48.48,50.6-55.82,50.6-55.82c7.42,3.53,15.76,7.08,15.76,7.08c-4.98,2.4-9.9,5.61-14.68,9.43
			C549.29,82.73,541.57,90.89,534.41,99.79z"/>
		<path class="st61" d="M536.06,142.07c-16.99,26.34-29.11,50.87-29.11,50.87l-11.37-7.62l-0.95-0.63c0,0,20.95-52.18,47.84-86.05
			C542.48,98.64,499.28,174.14,536.06,142.07z"/>
		<path class="st62" d="M502.88,282.14l-5.17-12.82c0,0,5.9,3.26,5.2,12.89L502.88,282.14z"/>
		<path class="st63" d="M484.18,299.4c4.24,1.52,8.89,3.55,13.53,6.2l-6.34,8.77l-7.01-3.65
			C484.37,310.72,491.78,305.57,484.18,299.4z"/>
		<path class="st64" d="M490.36,240.41c-0.05-0.35-0.81-5.2-0.81-6.13c0-0.24-1.01-1.37-2.52-2.94l2.21-1.44l0.05,0.08
			c0,0,4.61,5.39,8.41,8.94c3.8,3.55,3.28,12.99,3.28,12.99l-10.63-11.49C490.36,240.43,490.36,240.43,490.36,240.41z"/>
		<path class="st65" d="M473.37,218.06c-1.57-1.6-3.23-3.09-4.95-4.49c14.48-18.24-0.05-38.77-0.05-38.77v-0.02
			c23.4,10.76,31.22,21.69,32.45,23.57c0.03,0.05,0.07,0.1,0.08,0.15c0.07,0.08,0.08,0.14,0.08,0.14l-15.09,26.1l3.34,5.17
			l-2.21,1.44c-4.38-4.49-12.92-12.57-13.62-13.23C473.39,218.08,473.37,218.06,473.37,218.06z"/>
		<path class="st66" d="M483.05,99.03c-7.33,18.67-24.29,66.04,2.87,40.22c-9.87,18.92-14,32.6-14.22,33.38
			c-6.55-3.46-13.73-6.45-21.25-9.05C450.45,163.58,469.7,131.03,483.05,99.03z"/>
		<path class="st67" d="M474.52,251.46c0.44,0.52,5.46,6.44,0.79,6.52l-0.02-0.02l-0.81-6.54
			C474.48,251.43,474.5,251.44,474.52,251.46z"/>
		<path class="st62" d="M482.7,264.03c-2.53-2.28-5.12-4.34-7.38-6.05c4.66-0.08-0.35-6-0.79-6.52c6.32,5.37,15.09,12.5,23.19,17.86
			l5.17,12.82c-1.05-2.09-1.89-3.41-1.89-3.41l-18.26-14.68C482.73,264.03,482.71,264.03,482.7,264.03z"/>
		<polygon class="st67" points="475.3,257.96 475.31,257.98 475.3,257.98 		"/>
		<path class="st68" d="M471.7,172.63c0.22-0.78,4.36-14.46,14.22-33.38l0.02-0.02c1.23-2.37,2.55-4.8,3.97-7.31l15.76-16.3
			c-5.71,9.17-11.76,19.83-18.08,32.18c-4.14,8.11-8.4,16.94-12.74,26.57C473.83,173.78,472.76,173.21,471.7,172.63z"/>
		<path class="st69" d="M470.94,220.53c2.3,1.81,20.8,16.3,2.48-2.42c0.69,0.66,9.24,8.73,13.62,13.23c1.5,1.57,2.52,2.7,2.52,2.94
			c0,0.93,0.76,5.78,0.81,6.13l-9.54-10.32L470.94,220.53z"/>
		<path class="st70" d="M468.37,174.8c0,0,14.53,20.53,0.05,38.77c-9.26-7.6-20.51-12.59-29.9-15.74l0.37-1.08
			c0-19.83-16.37-36.37-16.37-36.37v-0.02c19.6,4.07,34.55,9.24,45.85,14.43V174.8z"/>
		<path class="st71" d="M471.09,330.49c6.72-11.39,9.73-21.62,9.73-21.62l3.55,1.86l7.01,3.65l-12.48,12.1l-15.09,14.61
			C466.6,337.62,469.03,334,471.09,330.49z"/>
		<path class="st72" d="M468.37,229.99c4.85-4.32,0-11.93,0-11.93l2.35,2.28c0,0,0.08,0.07,0.22,0.19l9.88,9.56
			c0,0-2.53,7.82-3.23,13.53c-0.69,5.69,20.12,25.69,20.12,25.69c-8.11-5.36-16.88-12.48-23.19-17.86
			c-0.02-0.02-0.03-0.03-0.03-0.03c-3.09-2.64-5.61-4.87-7.15-6.25C467.34,245.17,463.5,234.33,468.37,229.99z"/>
		<path class="st23" d="M558.26,274.94c0,7.26,0,7.26,0,7.26c0.02-0.02,0.02-0.02,0.03-0.03c23.72-18.24,34.45-4.02,34.85-3.46
			c0.02,0.02,0.02,0.02,0.02,0.02v-6.44c0,0-1.69-5.37-6.33-8.04c-1.99-1.15-4.12-1.99-6.28-2.45c-2.89-0.63-5.83-0.52-8.5,0.51
			c0,0,0,0-0.02,0.02C567.38,264.1,558.26,267.68,558.26,274.94z M524.32,373.99c0.42,2.45,11.07,18.97,22.84,13.24
			c11.79-5.73,3.45-6.2,4.61-10.93c0.35-1.39,1.03-1.86,1.91-1.88c2.13-0.03,5.41,2.67,7.8,1.88c0,0,0.02,0,0.03-0.02
			c0.63-0.15,10.66-2.99,14.75-13.5c4.22-10.85-5.08,5.2-9.29,6.37c-4.02,1.11-1.52-12.25-1.32-13.31c0-0.02,0.02-0.03,0.02-0.05
			c2.43-5.2,4.41-9.87,4.41-9.87s-4.51,3.13-10.14,9.85c-5.64,6.72-17.47,7.01-17.47,7.01s-3.6-0.91-5.39,1.98
			c0,0-0.05,0.07-0.12,0.19c-0.57,0.83-3.04,4.12-5.95,4.21C527.7,369.26,523.9,371.54,524.32,373.99z M520.94,536.08
			c-37.86-5.1-69.35-169.63-69.35-169.63c5.83-4.8,7.55-7.89,7.55-7.89l19.75-32.1c17.92-7.04,23.89-16.76,27.27-25.49
			c2.31-5.96-0.95-14.17-3.24-18.77c0.69-9.63-5.2-12.89-5.2-12.89s-20.81-20-20.12-25.69c0.69-5.71,3.23-13.53,3.23-13.53
			l9.54,10.32c0,0.02,0,0.02,0,0.02l10.63,11.49c0,0,0.52-9.44-3.28-12.99c-3.8-3.55-8.41-8.94-8.41-8.94l-0.05-0.08l-3.34-5.17
			l15.09-26.1c0,0,5.07,2.96,5.96,0c0.9-2.96,0-5.69,0-5.69s12.11-24.53,29.11-50.87l0.02-0.02c20.54-31.86,48.21-66.37,70.17-63.37
			c0,0-0.74,1.47-1.72,3.94c-0.91,2.33-2.03,5.57-2.91,9.33c-0.81,3.41-1.4,7.25-1.47,11.23c-0.07,3.75,0.32,7.64,1.45,11.4
			c0,0,17.25-0.42,21.52-6.3c-0.07,0.2-0.63,1.64-1.49,3.92c-2.64,6.91-8.06,21.61-11.67,33.89c-1.57,5.29-2.79,10.12-3.29,13.68
			c-0.42,2.91-0.69,6.28-0.86,9.93c-0.03,0.69-0.05,1.4-0.07,2.11c-0.25,9.11,0.27,19.77,1.54,29.61
			c0.78,6.01,1.84,11.72,3.19,16.62c1.64,5.95,0.81,11.57-0.95,17.52c-0.46,1.59-1,3.21-1.57,4.85c-2.74,7.89-6.34,16.54-7.59,27.28
			c-0.29,2.48-0.46,5.08-0.46,7.8c0,6.57,0.03,14.68,0.03,23.4c0,2.03,0,4.07-0.02,6.15c0,5.03-0.03,10.19-0.07,15.31
			c0,0,0,0.03,0,0.12c-0.14,15.93-0.49,31.52-1.32,41.9c-0.22,2.62-0.46,4.9-0.74,6.77c-0.76,5.07-2.57,12.53-4.73,20.51l-0.47,1.74
			c-0.74,2.74-1.54,5.52-2.33,8.26c-4.54,15.69-9.36,30.41-9.36,30.41s-0.32,8.38-1.89,20.42c-0.24,1.84-0.51,3.77-0.81,5.76
			c-1.47,9.68-3.72,21-7.13,32.03C562.89,514.84,547.97,539.73,520.94,536.08z"/>
		<path class="st73" d="M463.81,69.67c-6.17,14.6-11.61,30.75-16.23,43.8c0,0-40.27,56.24-25.05-9.54c2.84-12.3,5.68-22.3,8.4-30.42
			c0-0.02,0.02-0.05,0.03-0.07c0.14-0.41,0.27-0.79,0.39-1.18c0.51-1.47,0.74-2.11,0.74-2.11c1.66-4.68,3.26-8.68,4.8-12.1
			c1.33-2.96,2.62-5.47,3.83-7.6c0,0,0-0.02,0.02-0.05c6.98-12.25,11.79-12.25,11.79-12.25s12.55-1.11,10.71,11.27
			S463.81,69.67,463.81,69.67z"/>
		<path class="st74" d="M465.62,243.62l-11.66-11.81c0,0-0.44-14.17-3.55-21.13c-1.15-2.6-1.84-3.92-2.25-4.54
			c2.42,0.71,11.89,3.9,20.2,11.93c0,0,4.85,7.6,0,11.93c-4.87,4.34-1.03,15.19-1.03,15.19
			C466.22,244.2,465.62,243.62,465.62,243.62z"/>
		<path class="st75" d="M453.96,231.81l-15.07-15.24c-0.02-0.02-0.02-0.02-0.03-0.03c-0.74-0.81-12.59-13.87-12.65-19.8l21.37,9.22
			c0,0,0.2,0.05,0.59,0.17c0.41,0.63,1.1,1.94,2.25,4.54C453.52,217.64,453.96,231.81,453.96,231.81z"/>
		<path class="st76" d="M444.23,161.52c0,0-3.18-16.74,13.19-44.43s21.51-41.22,28.48-62.61c6.72-20.66,15.74-21.72,23.06-18.9
			c0.25,0.1,0.51,0.2,0.76,0.3c7.04,2.89,13.23,5.78,18.43,8.41c-9.27,0.49-29.02,13.57-42.25,47.66c0,0-0.02,0.03-0.05,0.1
			c-0.02,0.07-0.07,0.17-0.12,0.3c-0.37,0.88-1.33,3.21-2.6,6.44c-0.03,0.08-0.07,0.15-0.08,0.24c-13.35,32-32.6,64.55-32.6,64.55
			C448.4,162.85,446.32,162.18,444.23,161.52z"/>
		<path class="st77" d="M480.82,308.86c0,0-19.87-10.96-31.67-9.29c1.44-1.32,2.42-3.04,2.45-5.27c4.61-0.83,9.22-0.84,14.02,0.52
			c0,0,8.11,0.79,18.57,4.58c7.6,6.17,0.19,11.32,0.19,11.32L480.82,308.86z"/>
		<path class="st78" d="M452.52,38.15c0,0-4.81,0-11.79,12.25c0.42-1.1,7.38-18.67,22.5-28.8c11.45,2.4,21.96,5.41,31.39,8.63
			c-11.64,0.81-21.98,18.53-30.81,39.45c0,0-2.42-7.87-0.57-20.26S452.52,38.15,452.52,38.15z"/>
		<path class="st79" d="M450.14,248.2c-1.28-1.94-4.46-4.29-8.45-6.64c7.69,4.14,24.11,12.69,26.67,11.56c0,0,2.97,1.88,6.93,4.85
			v0.02h0.02c2.26,1.71,4.85,3.77,7.38,6.05c0.02,0,0.03,0,0.03,0.02c6.3,5.66,12.23,12.6,11.89,18.5
			C494.62,282.54,453.52,253.27,450.14,248.2z"/>
		<path class="st80" d="M458.86,280.57c-14.98-1.08-17.96-6.93-18.13-7.3c3.82,2.25,7.4,4.26,9.41,5.05
			c5.63,2.25-6.71-5.52-9.41-10.64c5.24,3.31,10.56,6.98,11.61,7.7c0.07,0.07,0.12,0.1,0.19,0.14c4.38,2.65,19.87-2.67,42.1,10.24
			c0,0,7.38,12.72,6.25,12.72c-0.32,0-1.27-0.95-3.16-3.34C488.84,283.93,458.86,280.57,458.86,280.57z"/>
		<path class="st81" d="M452.34,275.38c-1.05-0.73-6.37-4.39-11.61-7.7c-0.02,0-0.02-0.02-0.02-0.02s-2.38-13.01,3.51-16.23
			l0.9-0.22c3.5,7.52,6.13,16.84,6.13,21.76C451.26,274.13,451.63,274.89,452.34,275.38z"/>
		<path class="st82" d="M436.88,58.05c9.05-24.77-20.74-17.47-22.23-17.1c6.61-5.12,10.46-10.93,7.87-16.32
			c-2.25-4.7-3.46-7.2-4.07-8.45c16.12,0.51,31.12,2.53,44.78,5.41c-15.12,10.14-22.08,27.71-22.5,28.8
			c-0.02,0.03-0.02,0.05-0.02,0.05C439.5,52.57,438.21,55.09,436.88,58.05z"/>
		<path class="st83" d="M373.99,153.73c18.72,1.44,34.78,3.77,48.53,6.62v0.02c0,0,16.37,16.54,16.37,36.37l-0.37,1.08
			c-9.73-3.29-17.43-4.63-18.82-4.85c-0.02,0-0.03,0-0.03,0c-13.19-3.41-43.64-4.85-66.1-4.68l-18.65-0.02l3.16-9.07
			c0,0,4.53-26.91,33.13-25.68C372.13,153.6,373.06,153.66,373.99,153.73z"/>
		<path class="st23" d="M445.12,251.21c-2.09-4.51-4.49-8.36-6.81-10.2c-0.57-0.46-1.28-0.96-2.11-1.47
			c-0.02-0.02-0.03-0.03-0.05-0.03c-0.91-0.84-2.09-1.72-3.58-2.6c1.76,0.79,3.5,1.64,5.17,2.5l0.02,0.02
			c0.03,0.02,0.12,0.05,0.24,0.12c0.05,0.03,0.1,0.05,0.14,0.07c0.02,0.02,0.03,0.03,0.05,0.03c0.22,0.12,0.44,0.22,0.64,0.35
			c0,0,0,0,0.02,0c0.59,0.34,1.42,0.79,2.42,1.33c0.07,0.03,0.14,0.07,0.22,0.12c0.07,0.05,0.15,0.08,0.22,0.12
			c3.99,2.35,7.16,4.7,8.45,6.64c3.38,5.07,44.48,34.34,44.48,34.34c0.34-5.9-5.59-12.84-11.89-18.5l18.26,14.68
			c0,0,0.84,1.32,1.89,3.41l0.03,0.07c2.3,4.59,5.56,12.81,3.24,18.77c-3.38,8.73-9.34,18.45-27.27,25.49l12.48-12.1l6.34-8.77
			l3.26-7.08l-0.1-0.05c1.13,0-6.25-12.72-6.25-12.72c-22.23-12.91-37.72-7.59-42.1-10.24c-0.07-0.03-0.12-0.07-0.19-0.14
			c-0.71-0.49-1.08-1.25-1.08-2.42C451.26,268.05,448.62,258.72,445.12,251.21z"/>
		<path class="st84" d="M468.2,252.96l-35.85-34.82c2.23,1.76,39.5,31.29,36.02,34.97l-0.03-0.03L468.2,252.96z"/>
		<path class="st85" d="M419.67,192.97c0,0,0.02,0,0.03,0c4.07,1.06,6.49,2.31,6.5,3.77c0.07,5.93,11.91,18.99,12.65,19.8
			c-2.67-2.37-13.06-5.71-26.24-8.18c-0.03-0.02-0.05-0.02-0.05-0.02c-15.12-2.82-33.87-4.48-48.74-2.11
			c-4.32,0.69-8.21,1.17-11.67,1.45c0,0-0.27,0.02-0.76,0.07c-0.27,0.02-0.52,0.03-0.78,0.05c-0.03,0.02-0.08,0.02-0.14,0.02
			c-17.52,1.18-23.63-2.6-23.82-6.23l4.34-8.65l3.9-4.66l18.65,0.02C376.03,188.13,406.47,189.56,419.67,192.97z"/>
		<path class="st86" d="M440.72,273.25c-5.9-3.5-12.32-7.59-14.06-8.72c5.12,3.06,4.32-2.23,4.32-2.23
			c2.03,0.68,5.86,2.92,9.75,5.37c2.7,5.12,15.04,12.89,9.41,10.64c-2.01-0.79-5.59-2.8-9.41-5.05
			C440.72,273.25,440.72,273.25,440.72,273.25z"/>
		<path class="st87" d="M429.35,261.17c-1.84-2.67,2.37-8.08,4.46-9.26c2.38-1.35,8.73-6.42,2.4-12.38
			c0.83,0.51,1.54,1.01,2.11,1.47c2.31,1.84,4.71,5.69,6.81,10.2l-0.9,0.22c-5.9,3.23-3.51,16.23-3.51,16.23s0,0.02,0.02,0.02
			c-3.89-2.45-7.72-4.7-9.75-5.37C430.98,262.3,430.43,261.87,429.35,261.17z"/>
		<path class="st84" d="M432.35,218.15l35.85,34.82c-1.32-1.23-10.44-9.51-23.97-18.43c0,0-1.2-4.43-16.83-14.56
			c-2.75-1.79-6.71-3.09-11.37-4.04c14.75,1.77,17.28,4.04,16.22,2.13L432.35,218.15z"/>
		<path class="st88" d="M426.2,246.78c-2.18-3.04-6.94-7.75-11.57-9.87c20.74,5.86,19.17,15,19.17,15c-2.09,1.18-6.3,6.59-4.46,9.26
			c-1.42-0.91-3.75-2.28-6.82-3.7C422.52,257.47,429.02,250.73,426.2,246.78z"/>
		<path class="st89" d="M432.25,218.06c-1.01-1.84-18.53-9.22-19.63-9.7c13.18,2.47,23.57,5.81,26.24,8.18
			c0.02,0.02,0.02,0.02,0.03,0.03l15.07,15.24l11.66,11.81c0,0,0.61,0.57,1.72,1.55c1.54,1.39,4.05,3.62,7.15,6.25l0.81,6.54
			c-3.95-2.97-6.93-4.85-6.93-4.85c3.48-3.68-33.79-33.21-36.02-34.97L432.25,218.06z"/>
		<path class="st23" d="M447.57,205.97l-21.37-9.22c-0.02-1.45-2.43-2.7-6.5-3.77c1.39,0.22,9.09,1.55,18.82,4.85
			c9.39,3.16,20.64,8.14,29.9,15.74c1.72,1.4,3.38,2.89,4.95,4.49c0,0,0.02,0.02,0.05,0.05c18.31,18.72-0.19,4.22-2.48,2.42
			c-0.14-0.12-0.22-0.19-0.22-0.19l-2.35-2.28c-8.31-8.02-17.79-11.22-20.2-11.93C447.47,205.07,447.57,205.97,447.57,205.97z"/>
		<path class="st90" d="M420.21,305.6c3.02-1.01,5.95-2.16,8.78-3.33c7.91-3.24,15.24-6.66,22.6-7.97
			c-0.03,2.23-1.01,3.95-2.45,5.27c-4.19,3.83-12.25,4.39-12.25,4.39l-24.11,3.65C415.21,307.11,417.71,306.45,420.21,305.6z"/>
		<path class="st91" d="M410.05,36.02c0,0,10.86-9.12,8.29-19.83c0.03,0,0.07,0,0.1,0c0.61,1.25,1.82,3.75,4.07,8.45
			c2.58,5.39-1.27,11.2-7.87,16.32c-0.03,0.02-0.05,0.02-0.05,0.02c-4.93,3.82-11.39,7.23-17.84,9.8v-0.02
			C401.96,48.86,410.05,36.02,410.05,36.02z"/>
		<path class="st92" d="M406.22,152.55c5.36-17.86,9.73-32.15,13.24-43.48c0.02-0.02,0.02-0.02,0.02-0.02
			c6.17-19.85,9.76-30.63,11.44-35.54c-2.72,8.13-5.56,18.13-8.4,30.42c-15.22,65.78,25.05,9.54,25.05,9.54
			c-2.53,7.13-4.81,13.35-6.86,17.86c-11.12,24.61-8.63,26.74-8.63,26.74c-8.63-2.21-17.37-4-25.88-5.46L406.22,152.55z"/>
		<path class="st93" d="M418.35,16.19c2.57,10.71-8.29,19.83-8.29,19.83s-11.72,4.39-22.92,5.85c-11.2,1.45-35.75-2.2-35.75-2.2
			l7.3,11.08c-3.06,0.47-7.92,1.64-8.38,4.16c-1.54-3.43-3.62-8.95-4.31-15.24c-0.51-4.46-1.32-9.26-4.02-13.43
			c6.3,1.13,52.93,9.11,64.25-0.14c10.95-8.95-0.25-17.62-2.53-19.21c10.58,4.24,14.44,9.02,14.65,9.27
			C418.35,16.19,418.35,16.19,418.35,16.19z"/>
		<path class="st94" d="M419.46,109.07c-3.51,11.34-7.89,25.63-13.24,43.48l-0.02,0.07c-6.57-1.11-12.99-2.03-19.09-2.79l0.02-0.12
			l15.42-69.9c-1.39,6.54-7.21,35.86,0.29,37.28C411.05,118.63,419.01,109.59,419.46,109.07z"/>
		<path class="st95" d="M415.51,254.77c0,0,4.22-17.18-10.42-19.19v-0.02c2.08,0.03,3.99,0.17,5.56,0.24
			c1.25,0.07,2.6,0.46,3.95,1.1c0.02,0,0.02,0,0.03,0.02c4.63,2.11,9.39,6.82,11.57,9.87c2.82,3.95-3.68,10.69-3.68,10.69
			C420.49,256.56,418.15,255.62,415.51,254.77z"/>
		<path class="st69" d="M409.58,361.47c0.1-0.02,0.2-0.03,0.3-0.05C409.8,361.43,409.7,361.45,409.58,361.47z"/>
		<path class="st23" d="M422.52,160.35c-13.75-2.85-29.82-5.19-48.53-6.62c-0.96-0.1-1.89-0.17-2.79-0.2
			c-9.71-0.69-20.14-1.13-31.3-1.3c0.76-2.91,1.17-5.02,1.32-5.79c3.34,0.07,11.94,0.3,23.57,1.18c5.79,0.44,12.32,1.03,19.33,1.86
			c1,0.1,1.99,0.24,3.01,0.35c6.1,0.76,12.52,1.67,19.09,2.79c8.51,1.45,17.25,3.24,25.88,5.46c1.6,0.42,3.21,0.84,4.8,1.28
			c2.47,0.68,4.93,1.4,7.35,2.16c2.09,0.66,4.17,1.33,6.22,2.06c7.52,2.6,14.7,5.59,21.25,9.05c1.06,0.57,2.13,1.15,3.16,1.74
			c2.99,1.69,5.83,3.5,8.48,5.41c3.75,2.69,7.15,5.57,10.12,8.72c2.89,3.06,5.37,6.34,7.37,9.85c-1.23-1.88-9.05-12.81-32.45-23.57
			C457.07,169.59,442.12,164.42,422.52,160.35z"/>
		<path class="st96" d="M410.05,36.02c0,0-8.09,12.84-13.3,14.73v0.02c-7.52,2.99-15.04,4.85-20.2,4.85
			c-15.59,0-15.39-5.17-15.39-5.17s-1.05,0.08-2.48,0.3l-7.3-11.08c0,0,24.55,3.65,35.75,2.2
			C398.33,40.41,410.05,36.02,410.05,36.02z"/>
		<path class="st97" d="M397.2,251.92c0,0-3.4-0.54-7.87-0.47v-0.02c0,0,1.33-13.4,7.25-15.15c0.29-0.07,0.57-0.12,0.86-0.17
			c0.03-0.02,0.05-0.02,0.08-0.02c2.52-0.46,5.15-0.54,7.57-0.52v0.02c14.65,2.01,10.42,19.19,10.42,19.19
			C410.39,253.15,404.21,251.92,397.2,251.92z"/>
		<path class="st69" d="M409.58,361.47c-1,0.2-3.45,0.73-6.67,1.54C404.99,362.38,407.2,361.86,409.58,361.47z"/>
		<path class="st23" d="M406.22,263.83c-24.36-6.62-31.64,11.69-31.64,11.69c-9.73,12.87,26.3,3.21,26.3,3.21
			S430.56,270.43,406.22,263.83z M424.21,290.92h-34.88c0,0-7.75,1.05-21.69,0c-10.36-0.79-14.43-1.69-18.5,0.24l-2.33-4.11
			c0,0,6.2-1.13,12.67-10.14c6.47-9.02,16.61-18.03,16.61-18.03c2.82-0.56,3.95-1.55,18.58-1.55c14.65,0,25.91,3.24,31.54,6.91
			c0,0,0.17,0.1,0.46,0.29c1.74,1.13,8.16,5.22,14.06,8.72c0,0,0,0,0.02,0.02c0.17,0.37,3.14,6.22,18.13,7.3
			c0,0,29.99,3.36,38.85,14.56c1.89,2.4,2.84,3.34,3.16,3.34l0.1,0.05l-3.26,7.08c-4.65-2.65-9.29-4.68-13.53-6.2
			c-10.46-3.78-18.57-4.58-18.57-4.58c-4.8-1.37-9.41-1.35-14.02-0.52c-7.37,1.32-14.7,4.73-22.6,7.97l-0.1-0.24
			c-22.21,5.29-31.37-4.88-31.37-4.88c2.3-0.02,4.21-0.08,5.59-0.22C414.51,295.77,424.21,290.92,424.21,290.92z"/>
		<path class="st98" d="M397.52,297.16c0,0,9.16,10.17,31.37,4.88l0.1,0.24c-2.84,1.17-5.76,2.31-8.78,3.33
			c-2.5,0.84-5,1.5-7.42,2.01c-7.77,1.66-14.83,1.84-19.51,1.69c-0.12,0.02-0.24,0-0.34-0.02c-5.02-0.71-12.1-12.13-12.1-12.13
			l0.02-0.47C387.13,296.97,393.04,297.17,397.52,297.16z"/>
		<path class="st99" d="M400.75,320.37c0,0-8.73,5.61-17.96-1.89c-4.24-3.45-9.26-6.72-13.4-9.73c-4.88-3.53-8.53-6.66-8.23-9.17
			c0.12-0.96,0.17-1.39,0.41-1.39c0.95,0,4.73,6.03,25.91,10.68c0,0,2.04,0.3,5.46,0.42c0.1,0.02,0.22,0.03,0.34,0.02
			c4.68,0.15,11.74-0.03,19.51-1.69l24.11-3.65c0,0,8.06-0.56,12.25-4.39c11.81-1.67,31.67,9.29,31.67,9.29s-3.01,10.24-9.73,21.62
			c-8.46,8.51-23.52,13.99-23.52,13.99c5.42-2.82,10.46-6.44,13.4-10.96c8.87-13.67,5.49-22.1,0-24.65
			c-4.41-2.03-24.09,0.88-31.73,2.11c-0.22,0-0.34,0-0.34,0s-0.96,0.15-2.62,0.49c-0.05,0.02-0.08,0.02-0.08,0.02
			C421.46,312.46,411.15,315.01,400.75,320.37z"/>
		<path class="st100" d="M357.52,345.62c9.83,4,18.4-0.03,47.57-1.71c36.88-2.11,49.85-9.58,47.17-21.67
			c-2.48-11.18-20.31-11.32-23.01-11.27c7.64-1.23,27.32-4.14,31.73-2.11c5.49,2.55,8.87,10.98,0,24.65
			c-2.94,4.53-7.97,8.14-13.4,10.96c-10.9,5.66-23.36,8.08-23.36,8.08s-33.77,5.47-48.13,18.06c-0.34,0.29-0.66,0.57-0.98,0.83
			C362.06,381.98,368.65,357.18,357.52,345.62z"/>
		<path class="st101" d="M418.28,231.47c-0.88-0.42-10.61-4.81-25.48-7.7c-5.88-4.44,8.62-1.91,25.54,1.93
			c16.61,3.78,48.79,26.54,49.99,27.38l0.03,0.03c-2.57,1.13-18.99-7.42-26.67-11.56c-0.07-0.03-0.15-0.07-0.22-0.12
			c-0.08-0.05-0.15-0.08-0.22-0.12c-0.78-0.46-1.59-0.9-2.42-1.33c-0.02,0-0.02,0-0.02,0c-0.2-0.14-0.42-0.24-0.64-0.35
			c-0.02,0-0.03-0.02-0.05-0.03c-0.03-0.02-0.08-0.03-0.14-0.07c-0.12-0.07-0.2-0.1-0.24-0.12l-0.02-0.02
			c-1.67-0.86-3.41-1.71-5.17-2.5c-4.16-1.91-8.41-3.56-11.99-4.65c-0.12-0.05-0.25-0.08-0.37-0.12c-0.61-0.22-1.23-0.44-1.86-0.64
			C418.33,231.47,418.3,231.47,418.28,231.47z"/>
		<path class="st102" d="M362.79,215.93c16.05,0.24,49.84,0.08,70.53,11.88c3.89,2.21,7.53,4.48,10.91,6.72
			c13.53,8.92,22.65,17.2,23.97,18.43l0.14,0.12c-1.2-0.84-33.38-23.6-49.99-27.38c-16.93-3.83-31.42-6.37-25.54-1.93
			c-5.49-1.08-11.69-1.94-18.41-2.33c-25.76-1.47-43.38,12.84-43.38,12.84c-1.98-1.35-3.77-3.01-4.34-4.83
			c0,0,17.86-12.25,33.36-13.41C360.96,215.95,361.87,215.92,362.79,215.93z"/>
		<path class="st23" d="M328.48,275.53c-1.54-3.4-1.81-7.21-1.81-7.21c1.27-4.22,1.27-8.09,0-13.55
			c-1.27-5.46,9.29-13.77,9.29-13.77l2.11-3.09c0,0,13.16-16.54,56.32-11.12c-2.31-0.07-4.44,0.27-6.44,0.98
			c-8.75,3.14-14.98,13.28-23.57,25.34c0,0-0.02,0.03-0.05,0.08c-4.24,5.96-9.05,12.37-15,18.65c-3.09,3.26-5.76,5.47-8.08,6.88
			C334.03,283.13,330.33,279.64,328.48,275.53z"/>
		<path class="st103" d="M366.32,310.48c5,5.39,21.52,22.2,31.2,20c11.5-2.62,30.98-19.95,31.37-9.6
			c0.41,10.36-16.32,12.62-16.32,12.62s-13.43,2.69-24.55,4.53c0.84-0.19,1.3-0.3,1.3-0.3s7.26-3.67-8.48-4.22
			c-15.74-0.57-14.61-15.04-14.61-15.04S368.09,313.68,366.32,310.48z"/>
		<path class="st104" d="M374.58,254.77c0,0,9.39-10.52,15.02-15.31c1.94-1.64,4.39-2.62,6.98-3.19
			c-5.91,1.76-7.25,15.15-7.25,15.15v0.02c-4.59,0.05-10.34,0.76-14.75,3.34V254.77z"/>
		<path class="st105" d="M376.08,370.61c14.36-12.59,48.13-18.06,48.13-18.06s12.47-2.42,23.36-8.08c0,0,15.05-5.47,23.52-13.99
			c-2.06,3.51-4.49,7.13-7.28,10.59c-9.05,11.23-22.03,20.85-39.6,19.75c-5.24-0.32-9.93-0.08-14.16,0.56c0,0-0.07,0.02-0.17,0.03
			c-0.1,0.02-0.2,0.03-0.3,0.05c-2.38,0.39-4.6,0.91-6.67,1.54c-0.02,0.02-0.05,0.02-0.07,0.02c-6.64,1.71-16.49,4.73-23.41,9
			l-4.32-0.59C375.42,371.18,375.74,370.9,376.08,370.61z"/>
		<path class="st89" d="M384.12,149.34c0,0-12.82-5.88-14.27-8.7c-1.47-2.82-0.79-24.21-3.62-16.88c0,0,0.29-14.22,11.4-38.65
			c1.32,2.38,1.59,6.59,0,13.53c-6.62,28.96,7.74,25.66,6.49,20.71c-1.25-4.95,18.72-40.83,18.72-40.83l-0.02,0.05
			c-0.02,0.08-0.07,0.32-0.15,0.68l-0.12,0.56l-15.42,69.9l-0.02,0.12c-1.01-0.12-2.01-0.25-3.01-0.35L384.12,149.34z"/>
		<path class="st106" d="M387.48,308.86c-21.18-4.65-24.97-10.68-25.91-10.68l0.19-2.64c5.93,0.39,12.69,0.81,19.11,1.13l-0.02,0.47
			c0,0,7.08,11.42,12.1,12.13C389.53,309.17,387.48,308.86,387.48,308.86z"/>
		<path class="st107" d="M381.91,272.69c0,0,3.6-1.42,5.22-3.38c1.62-1.98,2.69-5.1,8.06-4.24c5.39,0.86,9.9,3.19,9.9,3.19
			s-5.73,5-11.59,4.43c0,0-1.37-1.13-4.17,1.11C386.5,276.07,376.67,276.09,381.91,272.69z"/>
		<path class="st108" d="M374.58,275.52c0,0,7.28-18.31,31.64-11.69c24.34,6.61-5.34,14.9-5.34,14.9S364.85,288.39,374.58,275.52z
			 M405.09,268.27c0,0-4.51-2.33-9.9-3.19c-5.37-0.86-6.44,2.26-8.06,4.24c-1.62,1.96-5.22,3.38-5.22,3.38
			c-5.24,3.4,4.6,3.38,7.42,1.11c2.8-2.25,4.17-1.11,4.17-1.11C399.36,273.27,405.09,268.27,405.09,268.27z"/>
		<path class="st69" d="M406.22,370.56c-15.47,0.44-31.64,18.97-31.64,18.97s5.69-19.63,28.26-26.51c0.02,0,0.05,0,0.07-0.02
			c3.23-0.81,5.68-1.33,6.67-1.54c0.12-0.02,0.22-0.03,0.3-0.05c0.1-0.02,0.17-0.03,0.17-0.03c4.22-0.64,8.92-0.88,14.16-0.56
			c17.57,1.1,30.54-8.51,39.6-19.75l15.09-14.61l-19.75,32.1c0,0-1.72,3.09-7.55,7.89c-8.45,6.93-32.71,5.1-43.13,4.16
			C407.72,370.54,406.98,370.52,406.22,370.56z"/>
		<path class="st109" d="M375.59,8.31c0,0,21.93,13.28-16.91,6.45c-6.69-1.18-14.11-3.75-22.38-4.92l4.97-1.79
			C362.77,4.7,375.59,8.31,375.59,8.31z"/>
		<path class="st101" d="M364.39,253.11c8.58-12.06,14.82-22.2,23.57-25.34c-10.54,5.3-17.72,29.78-18.08,31.07
			c-0.03,0.03-0.03,0.05-0.03,0.05c-3.94,4.22-6.23,7.08-7.48,8.72c1.1-1.81,2.42-4.73,1.33-7.25c-1.54-3.56,0.29-6.64,0.64-7.16
			C364.37,253.15,364.39,253.11,364.39,253.11z"/>
		<path class="st103" d="M376.84,339.61c-0.93,0.08-1.71,0.12-2.26,0.1C375.34,339.68,376.1,339.64,376.84,339.61z"/>
		<path class="st110" d="M374.58,254.77v0.02c-1.2,0.69-2.31,1.54-3.28,2.55c-0.49,0.52-0.96,1.01-1.42,1.5
			c0.35-1.28,7.53-25.76,18.08-31.07c1.99-0.71,4.12-1.05,6.44-0.98c7.91,0.25,16.39,2.18,23.89,4.68c0.02,0,0.05,0,0.07,0.02
			c0.63,0.2,1.25,0.42,1.86,0.64c0.12,0.03,0.25,0.07,0.37,0.12c6.49,2.31,12.04,5,15.58,7.25c0.02,0,0.03,0.02,0.05,0.03
			c6.33,5.96-0.02,11.03-2.4,12.38c0,0,1.57-9.14-19.17-15c-0.02-0.02-0.02-0.02-0.03-0.02c-1.35-0.64-2.7-1.03-3.95-1.1
			c-1.57-0.07-3.48-0.2-5.56-0.24c-2.42-0.02-5.05,0.07-7.57,0.52c-0.03,0-0.05,0-0.08,0.02c-0.3,0.02-0.59,0.08-0.86,0.17
			c-2.58,0.57-5.03,1.55-6.98,3.19C383.97,244.25,374.58,254.77,374.58,254.77z"/>
		<path class="st111" d="M373.99,153.73c-0.93-0.07-1.86-0.14-2.79-0.2C372.09,153.56,373.02,153.63,373.99,153.73z"/>
		<path class="st112" d="M394.39,226.79c-43.16-5.42-56.32,11.12-56.32,11.12s-3.8-1.42-7.06-3.63c0,0,17.62-14.31,43.38-12.84
			c6.72,0.39,12.92,1.25,18.41,2.33c14.87,2.89,24.6,7.28,25.48,7.7C410.78,228.97,402.3,227.05,394.39,226.79z"/>
		<path class="st113" d="M371.2,153.53c-28.6-1.23-33.13,25.68-33.13,25.68l-3.16,9.07l-3.9,4.66h-31.25v-0.08
			c16.59,0,26.88-11.1,33.04-22.49c3.63-6.69,5.85-13.46,7.1-18.14C351.06,152.4,361.49,152.84,371.2,153.53z"/>
		<path class="st114" d="M380.86,296.68c-6.42-0.32-13.18-0.74-19.11-1.13c-9.7-0.66-17.13-1.25-17.13-1.25
			c1.67-1.47,3.09-2.47,4.51-3.14c4.07-1.93,8.14-1.03,18.5-0.24c13.94,1.05,21.69,0,21.69,0h34.88c0,0-9.7,4.85-21.1,6.01
			c-1.39,0.14-3.29,0.2-5.59,0.22C393.04,297.17,387.13,296.97,380.86,296.68z"/>
		<path class="st115" d="M384.11,149.47c-7.01-0.83-13.53-1.42-19.33-1.86l0.07-0.84c0,0-1.44-15.68,1.39-23.01
			c2.82-7.33,2.15,14.06,3.62,16.88c1.45,2.82,14.27,8.7,14.27,8.7L384.11,149.47z"/>
		<path class="st116" d="M368.29,496.04c-0.07-0.14-1-2.13-2.04-4.83C367.53,492.71,368.33,494.33,368.29,496.04z"/>
		<path class="st117" d="M374.58,389.53c0,0-7.8,15.37-16.39,17.81c10.24-3.72,8.18-12.74,7.75-16.12c-0.1-0.84-0.2-1.57-0.15-2.37
			c0.17-2.37,1.67-5.15,8.33-12.55c1.39-1.54,3.21-2.96,5.3-4.27c6.93-4.27,16.78-7.3,23.41-9
			C380.27,369.9,374.58,389.53,374.58,389.53z"/>
		<path class="st114" d="M364.66,308.76c0.12,0.07,0.19,0.1,0.19,0.1s0.52,0.61,1.45,1.6l0.02,0.02c1.77,3.19-0.08,7.99-0.08,7.99
			s-1.13,14.46,14.61,15.04c15.74,0.56,8.48,4.22,8.48,4.22s-0.46,0.12-1.3,0.3c0,0.02-0.02,0.02-0.03,0.02
			c-4.29,0.71-8.24,1.28-10.93,1.54c-0.08,0-0.15,0.02-0.22,0.02c-0.74,0.03-1.5,0.07-2.26,0.1c-4.98,0.14-10.63-0.29-15.9-1.98
			c-11.49-3.7-21.1-14.46-19.9-23.35c0.27-1.98,1.06-3.85,2.48-5.52C348.61,300.16,362.9,307.78,364.66,308.76z"/>
		<path class="st112" d="M349.34,271.85c5.95-6.28,10.76-12.69,15-18.65c-0.35,0.52-2.18,3.6-0.64,7.16
			c1.08,2.52-0.24,5.44-1.33,7.25c-0.03,0.03-0.05,0.07-0.07,0.1c-0.54,0.73-0.86,1.2-1.01,1.44c-0.03,0.05-0.07,0.1-0.08,0.14
			c-0.02,0.02-0.03,0.03-0.03,0.03l-0.03,0.03c-0.88,0.69-17.05,13.6-19.87,9.38C343.58,277.32,346.25,275.11,349.34,271.85z"/>
		<path class="st118" d="M344.19,480.79c3.7-0.95,10.09-4.21,14.49-15.24c6.52-16.32,7.55-6.18,7.55-6.18s-1.69,11.83-3.24,16.89
			c-0.98,3.19,1.37,10.19,3.26,14.95c-1.89-2.23-4.78-4.19-7.57-5.81c-2.57-1.5-5.05-2.7-6.52-3.51
			C350.18,480.79,347.18,480.55,344.19,480.79z"/>
		<path class="st119" d="M376.08,258.89c0,0-10.14,9-16.61,18.03c-6.47,9-12.67,10.14-12.67,10.14l14.33-17.7l0.03-0.03
			c0,0,0.02-0.02,0.03-0.03C361.91,268.71,373.36,259.43,376.08,258.89z"/>
		<path class="st120" d="M376.08,258.89c-2.72,0.54-14.17,9.82-14.88,10.39c0.02-0.03,0.05-0.08,0.08-0.14
			c0.22-0.25,0.59-0.76,1.01-1.44c0.02-0.03,0.03-0.07,0.07-0.1c1.25-1.64,3.55-4.49,7.48-8.72c0,0,0-0.02,0.03-0.05
			c0.46-0.49,0.93-0.98,1.42-1.5c0.96-1.01,2.08-1.86,3.28-2.55c4.41-2.58,10.15-3.29,14.75-3.34c4.48-0.07,7.87,0.47,7.87,0.47
			c7.01,0,13.19,1.23,18.31,2.85c2.64,0.84,4.98,1.79,7.01,2.7c3.07,1.42,5.41,2.79,6.82,3.7c0.34,0.47,0.86,0.86,1.64,1.13
			c0,0,0.79,5.29-4.32,2.23c-0.29-0.19-0.46-0.29-0.46-0.29c-5.63-3.67-16.89-6.91-31.54-6.91
			C380.03,257.34,378.9,258.33,376.08,258.89z"/>
		<path class="st121" d="M338.68,314.37c0,0-2.48,7.6,1.72,16.12c0,0-9.51-12.75-8.8-22.84c0.71-10.09,13.02-13.35,13.02-13.35
			s7.43,0.59,17.13,1.25l-0.19,2.64c-0.24,0-0.29,0.42-0.41,1.39c-0.3,2.52,3.34,5.64,8.23,9.17l-4.73,0.02
			c-1.76-0.98-16.05-8.6-23.4,0.1c-1.42,1.67-2.21,3.55-2.48,5.52L338.68,314.37z"/>
		<path class="st122" d="M358.68,50.75c1.44-0.22,2.48-0.3,2.48-0.3s-0.2,5.17,15.39,5.17c5.17,0,12.69-1.86,20.2-4.85
			c6.45-2.57,12.91-5.98,17.84-9.8c0,0,0.02,0,0.05-0.02c1.49-0.37,31.29-7.67,22.23,17.1c-1.54,3.41-3.14,7.42-4.8,12.1
			c0,0-0.24,0.64-0.74,2.11c-0.12,0.34-0.25,0.74-0.39,1.18c-0.02,0.02-0.03,0.05-0.03,0.07c-1.67,4.92-5.27,15.69-11.44,35.54
			c0,0,0,0-0.02,0.02c-0.46,0.52-8.41,9.56-16.62,8.02c-7.5-1.42-1.67-30.75-0.29-37.28l0.12-0.56c0.08-0.35,0.14-0.59,0.15-0.68
			l0.02-0.05c0,0-19.97,35.88-18.72,40.83c1.25,4.95-13.11,8.24-6.49-20.71c1.59-6.94,1.32-11.15,0-13.53
			c-4.17-7.57-18.95,3.18-18.95,3.18s0.79-22.89-6.52-29.75l-0.02-0.02c-0.12-0.2-0.88-1.5-1.84-3.62
			C350.76,52.39,355.62,51.22,358.68,50.75z"/>
		<path class="st123" d="M341.26,278.73c2.82,4.22,18.99-8.68,19.87-9.38l-14.33,17.7l2.33,4.11c-1.42,0.68-2.84,1.67-4.51,3.14
			c0,0-12.32,3.26-13.02,13.35c-0.71,10.09,8.8,22.84,8.8,22.84c1.67,3.34,4.36,6.82,8.65,10.05c3.18,2.38,5.86,4.02,8.46,5.07v0.02
			c11.13,11.56,4.54,36.35,17.59,25.81l4.32,0.59c-2.09,1.32-3.92,2.74-5.3,4.27c-6.66,7.4-8.16,10.19-8.33,12.55
			c-10.56,5.93-12.23-22.4-12.23-22.4s0-19.71-15.49-23.94c-0.08-0.02-0.19-0.05-0.27-0.08c-15.27-4.41-20.95-26.66-20.95-26.66
			c-6.28-24.23-0.74-20.85,0-16.62s10.81,23.09,7.15,6.22c-3.56-16.45,4.09-29.19,4.48-29.83
			C330.33,279.64,334.03,283.13,341.26,278.73z"/>
		<path class="st124" d="M433.32,227.81c-20.69-11.79-54.48-11.64-70.53-11.88c-0.91-0.02-1.82,0.02-2.75,0.1v-0.1
			c-0.69-0.34-1.54-0.57-2.52-0.71c0,0,36.76-3.65,58.48,0.71c0.02,0,0.03,0,0.03,0c4.66,0.95,8.62,2.25,11.37,4.04
			c15.63,10.14,16.83,14.56,16.83,14.56C440.85,232.29,437.2,230.02,433.32,227.81z"/>
		<path class="st125" d="M352.7,83.62c1.35-9.12,2.25-20.44-0.54-25.09c7.31,6.86,6.52,29.75,6.52,29.75
			c-1.37,12.55-7.77,24.14-7.77,24.14c0.29-5.34-0.07-10.56-1-15.54l0.35-0.07C350.27,96.82,351.64,90.92,352.7,83.62z"/>
		<path class="st109" d="M352.38,78.52c0.3,3.06,0.32,5.1,0.32,5.1c-1.06,7.3-2.43,13.19-2.43,13.19l-0.35,0.07
			c-2.6-14.22-9.78-26.49-20-34.18c0,0,1.01-1.57,2.37-4.17c0,0,17.4,8.48,19.82,17.6c0.12,0.81,0.2,1.59,0.29,2.3
			C352.38,78.47,352.38,78.49,352.38,78.52z"/>
		<path class="st122" d="M350.3,54.91c0.96,2.11,1.72,3.41,1.84,3.62C350.62,57.08,350.13,55.9,350.3,54.91z"/>
		<path class="st126" d="M372.15,400.75c-11.4,14.43-22.15,6.54-20.14,11.17c0,0-1.1-0.86-0.37-1.93c0.54-0.79,2.11-1.72,5.88-2.48
			c0.22-0.05,0.46-0.1,0.68-0.17c8.58-2.43,16.39-17.81,16.39-17.81s16.17-18.53,31.64-18.97v0.05
			C406.22,370.61,385.1,384.36,372.15,400.75z"/>
		<path class="st127" d="M350.62,207.81c0.25-0.02,0.51-0.03,0.78-0.05C351.18,207.77,350.93,207.79,350.62,207.81z"/>
		<path class="st128" d="M339.98,146.42c-11.13,16.99-29.31,26.79-47.84,23.68c-12.72-2.13-23.31-9.98-30.31-21.08
			c-4.09-6.45-6.94-14.02-8.29-22.21c-1.18-7.13-1.22-14.73,0.08-22.49c1.91-11.37,6.45-21.52,12.72-29.65
			c8.5-11.1,20.22-18.46,32.84-20.14c4.04-0.54,8.19-0.49,12.35,0.2c1.82,0.3,3.6,0.73,5.32,1.28c4.75,1.44,9.12,3.72,13.06,6.69
			c10.22,7.69,17.4,19.95,20,34.18c0.93,4.98,1.28,10.2,1,15.54c-0.12,2.67-0.42,5.37-0.88,8.09
			C348.41,130.2,344.88,139,339.98,146.42z M340.52,124.79c2.45-14.63-1.57-28.55-9.73-37.72c-4.7-8.35-12.01-14.24-20.93-15.73
			c-18.19-3.06-36.12,13.36-40.04,36.68c-0.66,3.92-0.88,7.79-0.69,11.52c-0.79,20.69,11.25,38.65,28.92,41.63
			C317.58,164.44,336.58,148.17,340.52,124.79z"/>
		<path class="st129" d="M335.45,51.56c11.62,0.96,15.42,15.41,16.64,24.58c-2.42-9.12-19.82-17.6-19.82-17.6
			C333.24,56.68,334.37,54.28,335.45,51.56z"/>
		<path class="st130" d="M323.44,348.44c-3.83-1.66-6.98-5.12-7.16-5.32l-0.02-0.02c-0.3-1.22-0.74-2.48-1.25-3.7
			c0,0,13.5,0.29,20.53,5.93c0,0,0.42,0.22,1.11,0.69c3.45,2.31,13.43,10.51,10.52,26.12c-0.15-0.37-0.24-0.56-0.24-0.56l-3.8-7.11
			C333,350.67,327.38,350.13,323.44,348.44z"/>
		<path class="st131" d="M334.42,500.47c-15.49,0-16.37-7.97-9.68-9.58c0,0,0,0,0.02-0.02c0.76-0.22,19.06-5.49,21.23,0.02
			c1.89,4.81,3.43,8.4-5.85,9.34C338.56,500.38,336.67,500.47,334.42,500.47z"/>
		<path class="st100" d="M346.26,376.35c0.44-2.91,0.68-4.76,0.68-4.76s0.08,0.19,0.24,0.56v0.02c1.44,3.48,8.53,22.08,2.3,35.34
			c-0.3,0.64-0.57,1.25-0.83,1.82c-4.38,10.14-1.55,11.57-0.2,11.74l-31.59,0.02c0,0,16.81-3.5,21.83-13.58
			c2.35-4.73,4.31-12.87,5.73-20.24C345.22,383.13,345.84,379.22,346.26,376.35z"/>
		<path class="st132" d="M345.99,376.3c-5.78-13.16-29.99-27.03-29.99-27.03c1.15-0.93,1.01-3.38,0.27-6.15
			c0.19,0.2,3.33,3.67,7.16,5.32c3.94,1.69,9.56,2.23,19.7,16.03l3.8,7.11c0,0-0.24,1.86-0.68,4.76L345.99,376.3z"/>
		<path class="st127" d="M326.67,201.59c0.19,3.63,6.3,7.42,23.82,6.23c-4.66,0.41-18.4,1.6-32.11,3.21
			c-16.89,1.96-30.21-18.09-30.21-18.09h11.59h31.25L326.67,201.59z"/>
		<path class="st133" d="M343.71,376.3c-1.71-3.92-13.51-7.04-21.56-15.47c-7.86-8.24-22.28-11.4-22.96-11.56
			c0.39-0.12,0.76-0.24,1.15-0.37h0.02c2.23-0.64,7.33-1.62,12.57,0.37c1.47,0.56,2.47,0.51,3.07,0c0,0,24.21,13.87,29.99,27.03
			l0.27,0.05c-0.42,2.87-1.05,6.77-1.86,10.91l-0.19-0.03C344.22,387.23,345.4,380.24,343.71,376.3z"/>
		<path class="st116" d="M335.37,483.07c5.74-3.75,14.6-10.54,19.41-19.21c7.52-13.51,17.1-24.78,19.9-21.12
			c2.82,3.67-1.84,20.56-1.77,26.18c0.08,5.64-2.89,12.7,0,25.51c2.2,9.7-18.62,14.26-28.8,15.9c9.68-1.74,17.97-5.41,22.13-9.87
			c1.42-1.52,2.03-2.99,2.06-4.41c0,0,0,0,0-0.02c0.03-1.71-0.76-3.33-2.04-4.83c-1.89-4.76-4.24-11.76-3.26-14.95
			c1.55-5.07,3.24-16.89,3.24-16.89s-1.03-10.14-7.55,6.18c-4.41,11.03-10.79,14.29-14.49,15.24
			C340.71,481.07,337.23,482.02,335.37,483.07z"/>
		<path class="st134" d="M339.98,146.42c4.9-7.42,8.43-16.22,10.05-25.9c0.46-2.72,0.76-5.42,0.88-8.09c0,0,6.4-11.59,7.77-24.14
			c0,0,14.78-10.74,18.95-3.18c-11.12,24.43-11.4,38.65-11.4,38.65c-2.82,7.33-1.39,23.01-1.39,23.01l-0.07,0.84
			c-11.62-0.88-20.22-1.11-23.57-1.18C340.66,146.43,340.23,146.42,339.98,146.42z"/>
		<path class="st135" d="M335.45,51.56c4.16-10.54,7.2-25.97-5.52-34.07c6.05,2.04,9.75,5.17,12.04,8.75
			c2.7,4.17,3.51,8.97,4.02,13.43c0.69,6.28,2.77,11.81,4.31,15.24c-0.17,1,0.32,2.18,1.84,3.62l0.02,0.02
			c2.79,4.65,1.89,15.96,0.54,25.09c0,0-0.02-2.04-0.32-5.1c0-0.03,0-0.05,0-0.08c0.03-0.78-0.07-1.54-0.29-2.3
			C350.88,66.97,347.08,52.52,335.45,51.56z"/>
		<path class="st136" d="M324.76,490.87l-0.79-2.55c2.13-0.64,4.22-1.32,5.95-1.98c2.25-0.83,3.89-1.62,4.19-2.21
			c0.1-0.2,0.29-0.41,0.54-0.59c0.24-0.15,0.47-0.3,0.73-0.47c1.86-1.05,5.34-1.99,8.82-2.28c2.99-0.24,6,0,7.97,1.1
			c1.47,0.81,3.95,2.01,6.52,3.51c7.42,13.43-5.17,18.14-18.04,19.51l-0.49-4.68c9.27-0.95,7.74-4.53,5.85-9.34
			C343.82,485.38,325.52,490.65,324.76,490.87z"/>
		<path class="st23" d="M298.05,161.16c-17.67-2.97-29.72-20.93-28.92-41.63c0.86,18.46,11.42,33.69,26.54,36.22
			c18.19,3.06,36.13-13.36,40.05-36.68c1.99-11.89-0.03-23.3-4.93-32.01c8.16,9.17,12.18,23.09,9.73,37.72
			C336.58,148.17,317.58,164.44,298.05,161.16z"/>
		<path class="st137" d="M336.65,346.03l1.15-3.6c0.08,0.03,0.19,0.07,0.27,0.08c15.49,4.22,15.49,23.94,15.49,23.94
			s1.67,28.33,12.23,22.4c-0.05,0.79,0.05,1.52,0.15,2.37c0.42,3.38,2.48,12.4-7.75,16.12c-0.22,0.07-0.46,0.12-0.68,0.17
			c-3.77,0.76-5.34,1.69-5.88,2.48l-2.99-0.66c0.25-0.57,0.52-1.18,0.83-1.82c6.23-13.26-0.86-31.86-2.3-35.34v-0.02
			C350.08,356.54,340.1,348.34,336.65,346.03z"/>
		<path class="st23" d="M339.9,152.23c-1.25,4.68-3.46,11.45-7.1,18.14c-6.17,11.39-16.45,22.49-33.04,22.49
			c-0.86,0-1.76-0.02-2.65-0.08c-24.41-1.67-31.95-20.86-34.24-33.26c-0.35-1.84-0.59-3.55-0.74-5c-0.34-3.34-0.29-5.49-0.29-5.49
			c6.99,11.1,17.59,18.95,30.31,21.08c18.53,3.11,36.71-6.69,47.84-23.68c0.25,0,0.68,0.02,1.23,0.02
			C341.06,147.21,340.66,149.32,339.9,152.23z"/>
		<path class="st138" d="M340.4,330.49c-4.21-8.51-1.72-16.12-1.72-16.12l0.1,0.02c-1.2,8.89,8.41,19.65,19.9,23.35
			c5.27,1.69,10.91,2.11,15.9,1.98c0.56,0.02,1.33-0.02,2.26-0.1c0.07,0,0.14-0.02,0.22-0.02c4.92-0.3,8.95-1.1,10.93-1.54
			c0.02,0,0.03,0,0.03-0.02c11.12-1.84,24.55-4.53,24.55-4.53s16.72-2.26,16.32-12.62c-0.39-10.36-19.87,6.98-31.37,9.6
			c-9.68,2.2-26.2-14.61-31.2-20l-0.02-0.02c-0.32-0.61-0.81-1.17-1.45-1.6c0,0-0.07-0.03-0.19-0.1l4.73-0.02
			c4.14,3.01,9.16,6.28,13.4,9.73c9.22,7.5,17.96,1.89,17.96,1.89c10.41-5.36,20.71-7.91,25.46-8.89c0,0,0.03,0,0.08-0.02
			c0.29-0.05,1.35-0.24,2.96-0.49c2.7-0.05,20.53,0.08,23.01,11.27c2.69,12.1-10.29,19.56-47.17,21.67
			c-29.17,1.67-37.74,5.71-47.57,1.71v-0.02c-2.6-1.05-5.29-2.69-8.46-5.07C344.76,337.31,342.08,333.83,340.4,330.49z"/>
		<radialGradient id="SVGID_1_" cx="302.8063" cy="113.5444" r="38.3876" gradientUnits="userSpaceOnUse">
			<stop  offset="0" style="stop-color:#FFFFFF"/>
			<stop  offset="0.9683" style="stop-color:#FFFFB8"/>
		</radialGradient>
		<path class="st139" d="M330.79,87.07c4.9,8.72,6.93,20.12,4.93,32.01c-3.92,23.31-21.86,39.73-40.05,36.68
			c-15.12-2.53-25.68-17.75-26.54-36.22c0.08-2.18,0.3-4.39,0.68-6.62c3.92-23.36,22.94-39.65,42.47-36.37
			C319.57,77.78,325.93,81.58,330.79,87.07z"/>
		<path class="st140" d="M335.54,345.34c-7.03-5.64-20.53-5.93-20.53-5.93c-0.64-1.6-1.37-3.13-2.08-4.36
			c-2.85-4.97-7.23-28.21-5.36-39.72c0.25-1.03,0.52-2.11,0.79-3.21c0.56-2.3,1.28-4.41,2.11-6.39c0.68-0.59,14.95-13.3,16.18-17.42
			c0,0,0.27,3.82,1.81,7.21c-0.39,0.64-8.04,13.38-4.48,29.83c3.67,16.88-6.4-1.99-7.15-6.22s-6.28-7.6,0,16.62
			c0,0,5.68,22.25,20.95,26.66l-1.15,3.6C335.96,345.56,335.54,345.34,335.54,345.34z"/>
		<path class="st141" d="M360.03,216.03c-15.51,1.17-33.36,13.41-33.36,13.41c-0.34-1.08-0.27-2.2,0.42-3.36
			c0,0,6.33-7.6,10.98-8.02c0,0,12.62-3.75,19.44-2.84c0.98,0.14,1.82,0.37,2.52,0.71V216.03z"/>
		<path class="st142" d="M329.89,448.05c0.41,2.97-5.91,0.2-9.07,0c-3.16-0.2-7.96-0.9-7.55-3.09c0.41-2.21,6.77-2.21,6.77-2.21
			C322.29,442.61,329.47,445.09,329.89,448.05z"/>
		<path class="st136" d="M312.44,491.46c0,0,5.88-1.45,11.52-3.14l0.79,2.55c-0.02,0.02-0.02,0.02-0.02,0.02
			c-6.69,1.6-5.81,9.58,9.68,9.58c2.25,0,4.14-0.08,5.73-0.24l0.49,4.68c-7.25,0.76-14.58,0.47-18.48,0.07
			c-10.86-1.13-13.78-13.08-13.78-13.08C309.57,491.38,310.96,491.19,312.44,491.46z"/>
		<path class="st143" d="M338.68,511.08c-7.16,0.69-14.78,0.3-21.83-1.6c-15.61-4.22-14.39-15-8.48-17.57
			c0,0,2.92,11.94,13.78,13.08c3.9,0.41,11.23,0.69,18.48-0.07c12.87-1.37,25.46-6.08,18.04-19.51c2.79,1.62,5.68,3.58,7.57,5.81
			c1.05,2.7,1.98,4.7,2.04,4.83c0,0.02,0,0.02,0,0.02c-0.03,1.42-0.64,2.89-2.06,4.41c-4.16,4.46-12.45,8.13-22.13,9.87
			c-0.22,0.03-0.44,0.07-0.64,0.1c-0.96,0.15-1.81,0.27-2.52,0.37c-0.57,0.07-1.05,0.14-1.42,0.17c-0.2,0.03-0.37,0.05-0.51,0.07
			C338.92,511.06,338.8,511.06,338.68,511.08z"/>
		<path class="st144" d="M321.47,263.67c2.53-9.29-2.53-13.23-5.63-18.85c-3.11-5.64-18.87-4.51-18.87,0c0,2.94-4.44,3.36-7.01,5.47
			c-1.77-14.19,2.5-14.49,2.18-19.56s0-6.33,0-6.33s7.77,2.72,16.2,2.97c0.02,0.02,0.02,0.02,0.03,0.02
			c4.83,0.14,9.88-0.52,13.78-2.99c10.68-6.76,15.91-6.34,15.91-6.34c-4.65,0.42-10.98,8.02-10.98,8.02
			c-0.69,1.17-0.76,2.28-0.42,3.36c0.57,1.82,2.37,3.48,4.34,4.83c3.26,2.21,7.06,3.63,7.06,3.63l-2.11,3.09
			c0,0-10.56,8.31-9.29,13.77c1.27,5.46,1.27,9.33,0,13.55c-1.23,4.12-15.51,16.83-16.18,17.42
			C314.02,277.26,319.4,271.21,321.47,263.67z"/>
		<path class="st82" d="M297.05,15.09c2.72,0.19,5.14,0.63,7.25,1.27l0.02,0.02c13.87,11.91-14.68,12.43-17.65,12.45
			c-11.83-0.66-25.46,2.47-25.46,2.47s-32.69,6.86-15.2-9.33c0.14-0.12,0.27-0.24,0.42-0.37c9.8-8.85,31.83-13.16,55.12-13.68
			c9.87-0.24,19.95,0.2,29.45,1.28c0,0-28.3,0.1-10.83,6.2c-1.06-0.12-2.16-0.22-3.31-0.3C309.93,14.61,303.19,14.7,297.05,15.09z"
			/>
		<path class="st145" d="M329.89,448.05c-0.42-2.96-7.6-5.44-9.85-5.3c0,0-6.37,0-6.77,2.21c-0.41,2.2,4.39,2.89,7.55,3.09
			C323.98,448.25,330.3,451.02,329.89,448.05z M344.63,449.08c0,0-8.68,1.96-19.88,3.48c0,0-17.92-1.79-23.41-5.74
			c-5.49-3.94,9.75-7.4,9.75-7.4v-0.02c4.14,0.17,8.01,0.54,11.08,1.23C335.11,443.59,344.63,449.08,344.63,449.08z"/>
		<path class="st129" d="M304.32,16.37c23.4,7.16,12.53,39.65,12.53,39.65c-1.72-0.56-3.5-0.98-5.32-1.28
			c-4.16-0.69-8.31-0.74-12.35-0.2c0,0,8.48-20.42-3.9-24.31c-2.57-0.81-5.52-1.23-8.62-1.4C289.64,28.81,318.19,28.28,304.32,16.37
			z"/>
		<path class="st146" d="M281.75,440.63c0,0,16-1.72,29.33-1.23v0.02c0,0-15.24,3.46-9.75,7.4c5.49,3.95,23.41,5.74,23.41,5.74
			c-8.94,1.22-19.48,2.15-28.48,1.59C275.99,452.88,281.75,440.63,281.75,440.63z"/>
		<path class="st103" d="M305.42,262.83c2.82-2.43,3.63,3.87,2.4,8.85c-0.49,1.96-1.28,3.72-2.4,4.66
			c-3.94,3.38-10.69,36.61-10.69,44.5c0,7.87,0.56,28.14-11.56,27.59c-1.64-0.07-2.97-0.32-4.04-0.68
			c-6.77-2.31-2.99-9.46-2.99-9.46c14.07-29.85,14.07-51.81,14.07-51.81c0.47-6.34,3.38-11.83,7.89-14.63
			C302.6,269.03,301.48,266.21,305.42,262.83z"/>
		<path class="st100" d="M305.16,323.37c-2.03-10.24-0.17-17.69,2.42-28.04c-1.88,11.5,2.5,34.75,5.36,39.72
			c0.71,1.23,1.44,2.75,2.08,4.36c0.51,1.22,0.95,2.48,1.25,3.7l0.02,0.02c0.74,2.77,0.88,5.22-0.27,6.15
			c-0.61,0.51-1.6,0.56-3.07,0c-5.24-1.99-10.34-1.01-12.57-0.37c1.89-0.66,3.62-1.55,4.8-2.72
			C309.69,341.67,305.16,323.37,305.16,323.37z"/>
		<path class="st147" d="M336.3,9.85c8.28,1.17,15.69,3.73,22.38,4.92c38.84,6.82,16.91-6.45,16.91-6.45s-12.82-3.62-34.33-0.25
			L336.3,9.85z M330.99,9.19c-9.49-1.08-19.58-1.52-29.45-1.28V7.89c55.7-12.57,86.38-7.35,102.14-1
			c2.28,1.59,13.48,10.25,2.53,19.21c-11.32,9.24-57.94,1.27-64.25,0.14c-2.3-3.58-6-6.71-12.04-8.75c0-0.02-0.02-0.02-0.02-0.02
			c-2.74-0.93-5.95-1.64-9.75-2.08C302.7,9.29,330.99,9.19,330.99,9.19z"/>
		<path class="st148" d="M297.05,15.09c6.13-0.39,12.87-0.47,19.8,0c1.15,0.08,2.25,0.19,3.31,0.3c3.8,0.44,7.01,1.15,9.75,2.08
			c0,0,0.02,0,0.02,0.02c12.72,8.11,9.68,23.53,5.52,34.07c-1.08,2.72-2.21,5.12-3.18,6.98c-1.35,2.6-2.37,4.17-2.37,4.17
			c-3.94-2.97-8.31-5.25-13.06-6.69c0,0,10.86-32.49-12.53-39.65l-0.02-0.02C302.19,15.71,299.77,15.27,297.05,15.09z"/>
		<path class="st149" d="M299.08,49.28c0.3,2.97,0.1,5.25,0.1,5.25c-12.62,1.67-24.34,9.04-32.84,20.14l-0.02-0.02
			c0,0,20.9-27.33-4.48-26.57C271.43,46.17,296.7,41.88,299.08,49.28z"/>
		<path class="st150" d="M300.91,328.15c-1.69-20.83,5.64-43.08,8.73-52.93c0.3-0.96,0.59-1.89,0.83-2.77
			c2.37-8.08,2.79-12.47,2.26-15.25c-0.56-3.09-9.56-3.38-12.1,0s-6.76,3.38-8.9,7.31c-1,1.84-2.25,6.59-3.36,12.2
			c0,0,1.82-13.04,0-20.91c-0.64-2.74,0.22-4.36,1.59-5.49v-0.02c2.57-2.11,7.01-2.53,7.01-5.47c0-4.51,15.76-5.64,18.87,0
			c3.09,5.63,8.16,9.56,5.63,18.85c-2.06,7.53-7.45,13.58-10.98,22.06c-0.83,1.98-1.55,4.09-2.11,6.39
			c-0.34,0.91-0.61,1.99-0.79,3.21c-2.58,10.36-4.44,17.81-2.42,28.04c0,0,4.53,18.3,0,22.81c-1.18,1.17-2.91,2.06-4.8,2.72h-0.02
			c-0.68,0.19-1.1,0.34-1.15,0.37c-0.02,0-0.02,0-0.02,0c-5.15,1.52-11.01,1.64-11.01,1.64c3.24-0.52,6.88-1.96,10.78-4.73
			C305.7,341.38,300.91,328.15,300.91,328.15z"/>
		<path class="st151" d="M288.17,36.02c8.14,0.08,10.37,7.82,10.91,13.26c-2.38-7.4-27.65-3.11-37.23-1.2h-0.02
			c-2.26,0.46-3.65,0.78-3.65,0.78c-4.49,0.61-8.07,0.54-10.93,0c-12.74-2.3-10.9-13.62-10.76-14.38l0.02-0.03
			c2.11,9.09,16.79,5.22,16.79,5.22S275.57,35.9,288.17,36.02z"/>
		<path class="st152" d="M286.43,271.48c-0.1-2.31-0.24-4.76-0.41-7.23c0,0-0.02-0.24-0.05-0.69c-0.63-9.33-1.74-18.85-3.65-22.55
			c-4.22-8.16-4.22-8.16-4.22-8.16s2.23-1.99,2.64-5.03c0.15-1.15,0.05-2.45-0.52-3.83c-2.11-5.07-8.87-8.02-8.87-8.02
			s12.03-0.84,20.8,8.45c0,0-0.32,1.27,0,6.33s-3.95,5.37-2.18,19.56v0.02c-1.37,1.13-2.23,2.75-1.59,5.49
			c1.82,7.87,0,20.91,0,20.91c-0.56,2.89-1.1,5.98-1.54,9.02c0-0.44-0.07-6.55-0.41-14.21
			C286.43,271.51,286.43,271.49,286.43,271.48z"/>
		<path class="st153" d="M281.77,350.67c-1.06-0.27-2.21-0.63-3.33-1.08l0.69-1.84c1.06,0.35,2.4,0.61,4.04,0.68
			c12.11,0.56,11.56-19.71,11.56-27.59c0-7.89,6.76-41.12,10.69-44.5c1.11-0.95,1.91-2.7,2.4-4.66l2.65,0.78
			c-0.24,0.88-0.52,1.81-0.83,2.77c-3.09,9.85-10.42,32.1-8.73,52.93c0,0,4.8,13.23-1.96,18.03c-3.9,2.77-7.53,4.21-10.78,4.73
			C285.82,351.28,283.67,351.15,281.77,350.67z"/>
		<path class="st154" d="M281.02,302.9c-2.89,14-9.68,27.59-9.68,27.59c-2.72,2.91-6.06,6.44-7.03,7.25c0,0-0.02,0.02-0.07,0.05
			c-0.66,0.44-6.01,4-8.67,5.74c-0.29,0.19-0.56,0.42-0.83,0.69h-0.02c-0.71,0.3-17.16,6.77-35.34-7.69
			c-18.58-14.78-6.93-15.64-6.93-15.64s6.93,1.28,19.17-6.52c12.06-7.67,16.34-19.17,16.47-19.53c11.93-0.78,21.44-2.72,21.44-2.72
			l1.79-1.2c10.37,1.2,9.53,10.85,9.41,11.93L281.02,302.9z M266.7,320.89c14.36-27.86,0-21.32,0-21.32l-15.36,2.11
			c0,0-1.32,9.75-7.45,12.69c-6.12,2.94-10.56,9.49-8.45,15.41S252.34,348.76,266.7,320.89z"/>
		<path class="st155" d="M278.1,188.28c0,0-19.53,0.47-40.22,4.09c-3.77,0.64-7.57,1.4-11.32,2.3l-0.12-0.47
			c1.82-12.13,22.33-26.29,36.42-34.68c2.3,12.4,9.83,31.59,34.24,33.26c0.9,0.07,1.79,0.08,2.65,0.08v0.08h-11.59h-7.43
			L278.1,188.28z"/>
		<path class="st156" d="M271.56,340.59c1.03-4.44,5.64-10.47,7.38-14.97c0,0-1.23-2.21-3.83,0.79
			c0.59-1.17,10.05-19.98,10.59-30.07c0.17-3.09,0.57-6.79,1.13-10.59v-0.02c0.44-3.04,0.98-6.13,1.54-9.02
			c1.11-5.61,2.37-10.36,3.36-12.2c2.15-3.94,6.37-3.94,8.9-7.31s11.54-3.09,12.1,0c0.52,2.79,0.1,7.18-2.26,15.25l-2.65-0.78
			c1.23-4.98,0.42-11.28-2.4-8.85c-3.94,3.38-2.82,6.2-7.31,9.02c-4.51,2.8-7.42,8.29-7.89,14.63c0,0,0,21.96-14.07,51.81
			c0,0-3.78,7.15,2.99,9.46l-0.69,1.84c-1.86-0.74-3.67-1.74-4.98-3.01c0,0-0.02-0.02-0.05-0.03c-1.25-1.22-2.06-2.65-2.06-4.32
			C271.34,341.72,271.41,341.16,271.56,340.59z"/>
		<path class="st157" d="M230.71,257.98c14.88-0.1,27.47,8.9,27.47,8.9c0.69,1.49,1.6,3.11,2.75,4.6
			c3.09,4.02,9.16,14.11,10.41,11.07c1.27-3.04,1.27-3.04,1.27-3.04c2.28,3.18,4.02,5.03,5.3,6.08c-0.02,2.43-2.84,2.8-2.84,2.8
			h-13.87c-1.47-6.55-12.52-18.23-22.11-24.14c-3.34-2.08-6.15-2.74-8.38-2.74V257.98z"/>
		<path class="st158" d="M272.61,279.5c0,0,0,0-1.27,3.04c-1.25,3.04-7.31-7.04-10.41-11.07c-1.15-1.49-2.06-3.11-2.75-4.6
			c-1.2-2.52-1.76-4.58-1.76-4.58l12.82,12.15C270.48,276.44,271.6,278.1,272.61,279.5z"/>
		<path class="st153" d="M271.34,330.49c2.04-2.2,3.73-4.02,3.73-4.02c0.02-0.02,0.03-0.03,0.03-0.05c2.6-3.01,3.83-0.79,3.83-0.79
			c-1.74,4.49-6.35,10.52-7.38,14.97l-0.22-0.05c0-1.69-3.94,0-5.91,0c-1.93,0-2.79-1.37-1.18-2.75c0.05-0.03,0.07-0.05,0.07-0.05
			C265.28,336.92,268.62,333.39,271.34,330.49z"/>
		<radialGradient id="SVGID_2_" cx="302.7931" cy="113.576" r="38.4316" gradientUnits="userSpaceOnUse">
			<stop  offset="0" style="stop-color:#FFFFFF"/>
			<stop  offset="0.9683" style="stop-color:#FFFFB8"/>
		</radialGradient>
		<path class="st159" d="M269.82,108.02c3.92-23.31,21.84-39.73,40.04-36.68c8.92,1.49,16.23,7.38,20.93,15.73
			c-4.87-5.49-11.22-9.29-18.52-10.52c-19.53-3.28-38.55,13.01-42.47,36.37c-0.37,2.23-0.59,4.44-0.68,6.62
			C268.94,115.81,269.16,111.94,269.82,108.02z"/>
		<path class="st160" d="M266.7,299.57c0,0,14.36-6.54,0,21.32c-14.36,27.87-29.14,14.8-31.25,8.89s2.33-12.47,8.45-15.41
			c6.13-2.94,7.45-12.69,7.45-12.69L266.7,299.57z"/>
		<path class="st161" d="M261.85,48.08c25.37-0.76,4.48,26.57,4.48,26.57l0.02,0.02c-6.27,8.13-10.81,18.28-12.72,29.65
			c-1.3,7.75-1.27,15.36-0.08,22.49l-0.24,0.03c0,0-4.75,5.24-7.15-11.3c-0.08-26.94,0.03-59.9,1.1-66.68
			c2.85,0.54,6.44,0.61,10.93,0c0,0,1.39-0.32,3.65-0.78H261.85z"/>
		<path class="st162" d="M215.27,232.15c4.95-1.72,11.32-2.13,19.48-0.34c0,0,15.91,8.5,28.65,32.44c2.18,4.09,4.12,7.45,5.85,10.2
			l-12.82-12.15c0,0-1.25-1.27-3.4-2.77c-3.97-11.72-15.59-19.56-20.68-21.62c-5.2-2.11-11.69,0-11.39,5.71
			c0.3,5.69-6,12.04-6,12.04c-2.21,0.59-4.59,1.4-6.86,2.48c0,0-1.54-20.75,5.27-25.22C213.99,232.64,214.61,232.39,215.27,232.15z"
			/>
		<path class="st163" d="M262.12,154.51c0.15,1.45,0.39,3.16,0.74,5c-14.09,8.4-34.6,22.55-36.42,34.68l0.12,0.47
			c-3.85,0.9-7.62,1.93-11.18,3.13v-0.02c-18.53,1.96-11.88-17.72-2.43-18.57c9.44-0.84,14.83-16.39,14.83-16.39
			c12.43-3.87,24.9-6.57,34.06-8.29L262.12,154.51z"/>
		<path class="st164" d="M264.52,358.58c0,0-5.36,4.88-8.36,12.91c0.54-1.96,1.2-5.49,0.27-8.99c-0.24-0.9-0.22-1.79-0.02-2.64
			c0.95-4.07,6-7.31,6-7.31C265.7,347.67,264.52,358.58,264.52,358.58z"/>
		<path class="st165" d="M253.3,387.23c0,0-3.16-24.14-7.96-16.62c1.03-6.94,5.95-12.48,6.28-12.87c0.02-0.02,0.02-0.02,0.02-0.02
			c0.66,3.82,1.42,3.62,1.94,1.99l2.82,0.15c-0.2,0.84-0.22,1.74,0.02,2.64c0.93,3.5,0.27,7.03-0.27,8.99
			c-0.03,0.05-0.05,0.1-0.05,0.15c-0.19,0.46-0.34,0.93-0.47,1.4c-0.35,1.05-0.64,2.13-0.88,3.26
			C254.11,379.44,253.71,383.28,253.3,387.23z"/>
		<path class="st166" d="M254.18,355.18c0,1.6-0.24,3.4-0.59,4.53c-0.52,1.62-1.28,1.82-1.94-1.99c-0.15-0.91-0.25-1.82-0.29-2.7
			c-0.17-4.7,1.35-8.78,3.38-10.79h0.02c0.27-0.27,0.54-0.51,0.83-0.69c2.65-1.74,8.01-5.3,8.67-5.74c-1.6,1.39-0.74,2.75,1.18,2.75
			c1.98,0,5.91-1.69,5.91,0l0.22,0.05c-0.15,0.57-0.22,1.13-0.22,1.64c0,1.67,0.81,3.11,2.06,4.32c-0.64-0.41-6.86-4.24-10-2.64
			C260.09,345.61,254.18,351.25,254.18,355.18z"/>
		<path class="st167" d="M246.15,115.54c2.4,16.54,7.15,11.3,7.15,11.3l0.24-0.03c1.35,8.19,4.21,15.76,8.29,22.21
			c-4.48,0.91-9.75,2.06-15.41,3.48c0,0-0.08-8.01-0.17-19.6C246.22,127.7,246.19,121.79,246.15,115.54z"/>
		<path class="st168" d="M253.03,259.53c-2.69-1.88-6.81-4.14-11.67-4.76c-8.75-1.11-18.04-0.69-18.04-0.69s-2.7,0.24-6.3,1.08
			c-0.24,0.05-0.44,0.08-0.64,0.15c-0.46,0.1-0.93,0.22-1.4,0.35c0,0,6.3-6.35,6-12.04c-0.3-5.71,6.18-7.82,11.39-5.71
			C237.44,239.97,249.06,247.81,253.03,259.53z"/>
		<path class="st169" d="M253.3,387.23c-1.01,9.7-2.08,20.05-6.88,22.15c-10.19,0.76-13.84-13.68-14.49-16.74
			c0.74,2.7,5.07,4.78,8.6,2.8c3.78-2.11,5.05-12.87,4.63-21.54c-0.05-1.11,0.02-2.23,0.19-3.29
			C250.14,363.09,253.3,387.23,253.3,387.23z"/>
		<path class="st170" d="M182.65,335.47c25.34,35.48,68.69,19.55,68.69,19.55h0.02c0.03,0.88,0.14,1.79,0.29,2.7c0,0,0,0-0.02,0.02
			c-6.61,3.24-9,11.94-11.1,20.39c-1.3,5.22-6.15,9.63-16.93,6.01c0,0,0,0-0.02-0.02c-6.67-2.23-15.63-7.55-27.42-17.67
			c-1.39-1.18-2.69-2.38-3.94-3.58l-0.02-0.02c-2.25-2.37-3.72-3.92-4-4.22c-0.03-0.03-0.05-0.05-0.05-0.05
			c-20.85-23.43-17.1-47.74-16.78-49.6C171.44,315.18,174.27,323.75,182.65,335.47z"/>
		<path class="st133" d="M172.18,303.52c2.18-6.77,8.23-9.24,9.98-9.82l1.3,0.05c-3.7,1.42,6.44,9.36,7.21,11.61
			c0.84,2.45,9.83,11.18,22.27,8.51c0.07-0.02,0.14-0.03,0.2-0.05c18.62,0.96,24.83-17.87,24.83-17.87l0.02-0.84
			c3.46,0.05,6.88-0.07,10.12-0.27c-0.14,0.35-4.41,11.86-16.47,19.53c-12.25,7.8-19.17,6.52-19.17,6.52s-11.66,0.86,6.93,15.64
			c18.18,14.46,34.63,7.99,35.34,7.69c-2.03,2.01-3.55,6.1-3.38,10.79h-0.02c0,0-43.35,15.93-68.69-19.55
			c-8.38-11.72-11.22-20.29-11.27-26.49v-0.02c0-2.04,0.29-3.83,0.79-5.41C172.18,303.54,172.18,303.54,172.18,303.52z"/>
		<path class="st103" d="M269.55,292.12c0,0-9.51,1.94-21.44,2.72c-3.24,0.2-6.66,0.32-10.12,0.27c-2.53-0.02-5.1-0.12-7.62-0.34
			c-1.49-0.12-2.97-0.27-4.43-0.47c-1.91-0.27-3.56-0.51-4.98-0.74c-13.26-2.13-7.06-2.64-7.06-2.64h44.28h13.16L269.55,292.12z"/>
		<path class="st171" d="M246.26,132.9c0.08,11.59,0.17,19.6,0.17,19.6c-4.68,1.17-9.61,2.5-14.61,4c0,0-0.71-11.4-1.33-27.13
			c0,0,0-0.03,0-0.12c0.17-2.72,3.24-51.05,5.56-38.45c2.37,12.96,1.23,47.3,3.06,50.68c1.84,3.38,7.04-8.58,7.04-8.58H246.26z"/>
		<path class="st172" d="M246.15,115.54c0.03,6.25,0.07,12.16,0.1,17.37h-0.12c0,0-5.2,11.96-7.04,8.58
			c-1.82-3.38-0.69-37.72-3.06-50.68c-2.31-12.6-5.39,35.73-5.56,38.45c-1.25-31.42-2.15-80.02,3.67-89.59l2.35-5.19
			c-0.14,0.76-1.98,12.08,10.76,14.38C246.19,55.63,246.07,88.59,246.15,115.54z"/>
		<path class="st173" d="M240.53,378.13c2.09-8.45,4.49-17.15,11.1-20.39c-0.34,0.39-5.25,5.93-6.28,12.87
			c-0.17,1.06-0.24,2.18-0.19,3.29c0.42,8.67-0.84,19.43-4.63,21.54c-3.53,1.98-7.86-0.1-8.6-2.8c-0.03-0.15-0.07-0.29-0.08-0.37
			c-0.02-0.14-0.03-0.2-0.03-0.2c-0.27-2.87-7.74-7.64-8.21-7.92C234.38,387.75,239.23,383.35,240.53,378.13z"/>
		<path class="st174" d="M246,21.96c-17.48,16.18,15.2,9.33,15.2,9.33s13.63-3.13,25.46-2.47c3.09,0.17,6.05,0.59,8.62,1.4
			c12.38,3.89,3.9,24.31,3.9,24.31s0.2-2.28-0.1-5.25c-0.54-5.44-2.77-13.18-10.91-13.26c-12.6-0.12-34.87,3.65-34.87,3.65
			s-14.68,3.87-16.79-5.22C235.78,31.22,244.01,23.72,246,21.96z"/>
		<path class="st175" d="M237.88,192.37c20.69-3.62,40.22-4.09,40.22-4.09l2.64,4.66h7.43c0,0,13.31,20.05,30.21,18.09
			c13.72-1.6,27.45-2.8,32.11-3.21c0.05,0,0.1,0,0.14-0.02c0.3-0.02,0.56-0.03,0.78-0.05c0.49-0.05,0.76-0.07,0.76-0.07
			c3.46-0.29,7.35-0.76,11.67-1.45c14.87-2.37,33.62-0.71,48.74,2.11c0,0,0.02,0,0.05,0.02c1.1,0.47,18.62,7.86,19.63,9.7
			c1.06,1.91-1.47-0.35-16.22-2.13c0,0-0.02,0-0.03,0c-21.72-4.36-58.48-0.71-58.48-0.71c-6.82-0.91-19.44,2.84-19.44,2.84
			s-5.24-0.42-15.91,6.34c-3.9,2.47-8.95,3.13-13.78,2.99c-0.02,0-0.02,0-0.03-0.02c-11.07-2.94-5.76-7.21-26.02-21.76
			c-20.27-14.56-44.34-12.67-44.34-12.67L237.88,192.37z"/>
		<path class="st176" d="M238,295.11l-0.02,0.84c0,0-6.22,18.84-24.83,17.87c10.29-2.42,17.2-18.7,17.2-18.7l0.03-0.35
			C232.89,294.99,235.46,295.09,238,295.11z"/>
		<path class="st177" d="M226.56,194.66c3.75-0.9,7.55-1.66,11.32-2.3l0.1,0.57c0,0,24.07-1.89,44.34,12.67
			c20.26,14.55,14.95,18.82,26.02,21.76c-8.43-0.25-16.2-2.97-16.2-2.97c-8.77-9.29-20.8-8.45-20.8-8.45s-20.83-7.18-39.41-4.78
			c-16.5,2.13-29.01,9.85-36.12,16.4c0,0,5.76-15.85,12.15-19.22c0,0-2.64-6.76,0.9-8.14c2.08-0.88,4.26-1.69,6.52-2.42
			C218.94,196.59,222.71,195.56,226.56,194.66z"/>
		<path class="st107" d="M232.35,264.25c0,0,5.39,0.84,8.18,4.49c2.8,3.67-2.13,3.95-2.13,3.95s-1.37,0.14-1.81-2.11
			c-0.44-2.26-3.68-3.09-5.64-2.11c-1.98,0.98-3.8-0.84-2.96-2.53C228.84,264.25,228.89,263.18,232.35,264.25z"/>
		<path class="st23" d="M200.14,238.89c0-0.02,0-0.02,0.03-0.03c3.46-2.99,7.86-5.79,13.38-8.06l0.68,1.67
			c-0.3,0.12-0.57,0.27-0.84,0.46c-4.17,1.89-7.23,4.78-9.46,8.08c-0.44,0.49-0.79,1.06-1.06,1.71c-5.57,9.65-5,21.54-5,21.54
			l-0.02,0.69l4.66-0.69c1.08-1.01,4.87-2.72,10.47-4.11c4.76-1.18,10.86-2.11,17.72-2.16h0.02v3.53c-4.12,0-6.25,2.31-6.25,2.31
			c-3.8,7.96,5.88,9.14,5.88,9.14s10.17,2.75,8.75,8.45c-1.4,5.71,8.6,6.98,8.6,6.98h13.51h13.87c0,0,2.82-0.37,2.84-2.8
			c1.98,1.67,2.82,1.47,2.82,1.47s0.54,0.32,1.3,0.17v0.03c0.66,4.76,0.12,10.24-1.01,15.64l-0.27-0.05
			c0.12-1.08,0.96-10.73-9.41-11.93h-13.16h-44.28c0,0-6.2,0.51,7.06,2.64c0,0-14.9,21.13-29.14,7.42c-0.74-1.3-1.18-2.64-1.15-3.94
			c0,0,0.61-1.71-1.35-2.72v-0.02l-6.67-12.1l4.51-21.84C187.16,260.36,188.7,248.71,200.14,238.89z"/>
		<path class="st23" d="M234.14,39.67c-5.81,9.56-4.92,58.16-3.67,89.59c0,0.08,0,0.12,0,0.12c0.63,15.73,1.33,27.13,1.33,27.13
			c-1.35,0.41-2.7,0.83-4.05,1.27c-0.02-0.69-0.08-2.52-0.17-5.27c-0.32-9.6-0.93-30.29-1.01-51.83
			c-0.12-25.12,0.46-51.41,2.97-62.54l6.96-3.68l-0.02,0.03L234.14,39.67z"/>
		<path class="st178" d="M225.95,294.3c1.45,0.2,2.94,0.35,4.43,0.47l-0.03,0.35c0,0-6.91,16.29-17.2,18.7
			c-2.53-0.14-5.3-0.63-8.31-1.59c0,0-9.63-5.37-13.01-11.27c14.24,13.72,29.14-7.42,29.14-7.42
			C222.39,293.79,224.04,294.03,225.95,294.3z"/>
		<path class="st108" d="M230.34,272.96c0,0-9.68-1.18-5.88-9.14c0,0,2.13-2.31,6.25-2.31c2.23,0,5.03,0.66,8.38,2.74
			c9.6,5.91,20.64,17.59,22.11,24.14h-13.51c0,0-10-1.27-8.6-6.98C240.51,275.72,230.34,272.96,230.34,272.96z M232.35,264.25
			c-3.46-1.06-3.51,0-4.36,1.69c-0.84,1.69,0.98,3.51,2.96,2.53c1.96-0.98,5.2-0.15,5.64,2.11c0.44,2.25,1.81,2.11,1.81,2.11
			s4.93-0.29,2.13-3.95C237.74,265.09,232.35,264.25,232.35,264.25z"/>
		<path class="st179" d="M219.82,81.23c3.67,21.12,6.74,19.44,6.74,19.44h0.02c0.08,21.54,0.69,42.23,1.01,51.83
			c0,0-15.91,11.1-15.93-38.38c0-47.01-2.53-38.2-2.79-37.2c0-2.97,0-5.78,0-8.36c0-0.02,0-0.03,0-0.05
			c-0.02-3.89-0.02-7.26-0.02-9.97C208.85,58.54,216.17,60.11,219.82,81.23z"/>
		<path class="st180" d="M226.56,100.67c0,0-3.07,1.67-6.74-19.44c-3.65-21.12-10.96-22.69-10.96-22.69c0-4.39,0-6.98,0-6.98
			c11.45-8.51,20.69-13.43,20.69-13.43c-2.52,11.13-3.09,37.42-2.97,62.54H226.56z"/>
		<path class="st170" d="M236.59,221.78c-8.65,1.33-15.51,3.58-20.83,6.03c-2.38,1.08-4.44,2.2-6.23,3.31h-0.02
			c-6.23,2.35-11.64,1.94-7.99-1.05c0.03-0.03,0.07-0.05,0.1-0.08c2.42-1.93,8.53-4.92,20.46-8.92c1.18-0.41,2.35-0.76,3.51-1.1
			c0,0,0.02,0,0.07-0.02c34.95-10.14,55.07,7.86,55.07,7.86c-0.41,3.04-2.64,5.03-2.64,5.03S263.5,217.62,236.59,221.78z"/>
		<path class="st181" d="M195.81,227.57c7.11-6.55,19.61-14.27,36.12-16.4c18.58-2.4,39.41,4.78,39.41,4.78s6.76,2.96,8.87,8.02
			c0.57,1.39,0.68,2.69,0.52,3.83c0,0-20.12-17.99-55.07-7.86c0.83-0.32,9.7-3.83-0.78-3.38c-10.98,0.49-31.52,13.41-31.52,13.41
			C194.09,229.21,194.9,228.4,195.81,227.57z"/>
		<path class="st182" d="M217.01,255.16c3.6-0.84,6.3-1.08,6.3-1.08s9.29-0.42,18.04,0.69c4.87,0.63,8.99,2.89,11.67,4.76
			c2.15,1.5,3.4,2.77,3.4,2.77s0.56,2.06,1.76,4.58c0,0-12.59-9-27.47-8.9h-0.02c-6.86,0.05-12.96,0.98-17.72,2.16
			c0,0-0.63-3.72,3.4-4.83C216.57,255.24,216.78,255.21,217.01,255.16z"/>
		<path class="st23" d="M234.75,231.81c-8.16-1.79-14.53-1.39-19.48,0.34c-0.37,0.07-0.73,0.17-1.05,0.32l-0.68-1.67
			c6.37-2.62,14.24-4.51,24.01-5.1c42.66-2.55,47.86,32.49,48.42,37.86c0.03,0.46,0.05,0.69,0.05,0.69c0.17,2.47,0.3,4.92,0.41,7.23
			c0,0.02,0,0.03,0,0.05c-0.1,12.86-2.75,15.37-4.39,15.69c-0.76,0.15-1.3-0.17-1.3-0.17s-0.84,0.2-2.82-1.47
			c-1.28-1.05-3.02-2.91-5.3-6.08c-1.01-1.4-2.13-3.06-3.36-5.05c-1.72-2.75-3.67-6.12-5.85-10.2
			C250.67,240.31,234.75,231.81,234.75,231.81z"/>
		<path class="st183" d="M215.38,197.79c-2.26,0.73-4.44,1.54-6.52,2.42c-3.8,1.57-7.21,3.38-10.09,5.41
			c-18.21,0.2-5.41-27.22-5.41-27.22l-0.02-0.02c9.09-6.49,21.74-11.62,34.43-15.56c0,0-5.39,15.54-14.83,16.39
			c-9.44,0.84-16.1,20.53,2.43,18.57V197.79z"/>
		<path class="st184" d="M210.32,164.21c-1.08-12.74-1.37-58.15-1.45-87.27c0,0,0,0,0-0.02c0.25-1,2.79-9.82,2.79,37.2
			c0.02,49.48,15.93,38.38,15.93,38.38c0.08,2.75,0.15,4.58,0.17,5.27C221.83,159.66,215.88,161.81,210.32,164.21z"/>
		<path class="st185" d="M208.85,164.85l-0.9-18.75c0,0-0.52-10.78-3.62-13.19c-3.11-2.4-2.01-23.23-2.01-23.23
			s-6.96,9.63-7.38,3.73c-0.49-10.81-0.88-21.32-1.15-29.78c0,0,12.67-34.16,15.07-15.12c0,0.02,0,0.03,0,0.05c0,2.58,0,5.39,0,8.36
			c0,0.02,0,0.02,0,0.02c0.08,29.12,0.37,74.53,1.45,87.27C209.83,164.42,209.34,164.64,208.85,164.85z"/>
		<path class="st186" d="M207.96,146.1l0.9,18.75c-3.26,1.45-6.37,2.99-9.27,4.63c-2.04-9-3.58-33.2-4.63-56.07
			c0.42,5.9,7.38-3.73,7.38-3.73s-1.1,20.83,2.01,23.23C207.44,135.32,207.96,146.1,207.96,146.1z"/>
		<path class="st187" d="M213.55,230.8c-5.52,2.26-9.92,5.07-13.38,8.06c0.37-0.49,3.18-3.95,9.34-7.74h0.02
			c2.09-0.79,4.27-1.89,6.23-3.31c5.32-2.45,12.18-4.7,20.83-6.03c26.91-4.16,41.51,11.07,41.51,11.07s0,0,4.22,8.16
			c1.91,3.7,3.02,13.23,3.65,22.55c-0.56-5.37-5.76-40.41-48.42-37.86C227.79,226.29,219.92,228.18,213.55,230.8z"/>
		<path class="st188" d="M213.38,232.93c-6.81,4.48-5.27,25.22-5.27,25.22c-1.4,0.66-2.67,1.33-3.77,1.99c0,0-4.14-11.47-1.49-17.43
			c0.32-0.57,0.69-1.15,1.06-1.71C206.15,237.71,209.21,234.82,213.38,232.93z"/>
		<path class="st189" d="M198.77,205.61c2.87-2.03,6.28-3.83,10.09-5.41c-3.53,1.39-0.9,8.14-0.9,8.14
			c-6.39,3.38-12.15,19.22-12.15,19.22c-0.91,0.83-1.72,1.64-2.45,2.42c-4.87,3.8-7.1,7.74-7.99,11.13l-0.51-0.12l2.96-13.19
			l2.85-12.72C192.08,211.46,194.93,208.33,198.77,205.61z"/>
		<path class="st190" d="M201.62,229.99c-0.03,0.03-0.07,0.05-0.1,0.08C201.59,230.02,201.62,229.99,201.62,229.99z"/>
		<path class="st191" d="M222.08,221.07c-11.93,4-18.04,6.99-20.46,8.92c0,0-0.03,0.03-0.1,0.08c-1.06,0.78-9.68,7.43-15.49,20.78
			c0,0-2.11-4.17-0.66-9.73c0.9-3.4,3.13-7.33,7.99-11.13c0,0,20.54-12.92,31.52-13.41c10.47-0.46,1.6,3.06,0.78,3.38
			c-0.05,0.02-0.07,0.02-0.07,0.02C224.43,220.31,223.26,220.66,222.08,221.07z"/>
		<path class="st192" d="M197.84,264.94c0,0,2.09-2.21,6.5-4.8c1.1-0.66,2.37-1.33,3.77-1.99c2.26-1.08,4.65-1.89,6.86-2.48
			c0.47-0.14,0.95-0.25,1.4-0.35c-4.02,1.11-3.4,4.83-3.4,4.83c-5.61,1.39-9.39,3.09-10.47,4.11L197.84,264.94z"/>
		<path class="st193" d="M197.86,264.25c0,0-0.57-11.89,5-21.54c-2.65,5.96,1.49,17.43,1.49,17.43c-4.41,2.58-6.5,4.8-6.5,4.8
			L197.86,264.25z"/>
		<path class="st194" d="M196.17,366.45c11.79,10.12,20.74,15.44,27.42,17.67c0.02,0.02,0.02,0.02,0.02,0.02
			c0.47,0.29,7.94,5.05,8.21,7.92c0,0,0.02,0.07,0.03,0.2c0.02,0.14,0.03,0.25,0.08,0.37c0.66,3.06,4.31,17.5,14.49,16.74
			c-6.76,2.96-13.94-5.49-18.65-9.71c-3.72-3.33-26.2-26.94-35.54-36.79C193.48,364.07,194.78,365.27,196.17,366.45z"/>
		<path class="st195" d="M208.87,68.5c-2.4-19.04-15.07,15.12-15.07,15.12c-0.37-11.28-0.56-18.97-0.56-18.97
			c5.24-4.98,10.63-9.38,15.61-13.09c0,0,0,2.58,0,6.98C208.85,61.24,208.85,64.62,208.87,68.5z"/>
		<path class="st196" d="M182.94,189.04c2.31-3.9,5.93-7.45,10.41-10.66l0.02,0.02c0,0-12.81,27.42,5.41,27.22
			c-3.83,2.72-6.69,5.85-8.09,9.48l-2.85,12.72l-7.08-33.62C181.22,192.4,181.96,190.69,182.94,189.04z"/>
		<path class="st197" d="M195.68,161.52c-7.25,19.77-16.2-42.89-16.2-42.89c-0.25-5-0.49-9.82-0.68-14.19
			c0,0,4.65-23.26,12.82-25.91C192.01,98.86,193.06,139.74,195.68,161.52z"/>
		<path class="st198" d="M191.45,66.39c0,0.34,0.05,4.97,0.17,12.13c-8.18,2.65-12.82,25.91-12.82,25.91
			c-0.57-12.82-0.88-22.05-0.88-22.05c0.79-0.83,0.79-1.33,0.79-1.33C182.52,75.79,186.89,70.85,191.45,66.39z"/>
		<path class="st190" d="M200.14,238.89c-11.44,9.82-12.97,21.47-12.97,21.47l-1.13-9.51c5.81-13.35,14.43-20,15.49-20.78
			c-3.65,2.99,1.76,3.4,7.99,1.05c-6.17,3.78-8.97,7.25-9.34,7.74C200.14,238.87,200.14,238.87,200.14,238.89z"/>
		<path class="st199" d="M184.87,293.56c2.2-0.03,3.6,0.29,4.46,0.76c1.96,1.01,1.35,2.72,1.35,2.72c-0.03,1.3,0.41,2.64,1.15,3.94
			c3.38,5.9,13.01,11.27,13.01,11.27c3.01,0.96,5.78,1.45,8.31,1.59c-0.07,0.02-0.14,0.03-0.2,0.05
			c-12.43,2.67-21.42-6.06-22.27-8.51c-0.78-2.25-10.91-10.19-7.21-11.61C183.8,293.64,184.27,293.57,184.87,293.56z"/>
		<path class="st61" d="M182.16,293.71c-1.76,0.57-7.8,3.04-9.98,9.82c3.02-23.01,10.47-21.32,10.47-21.32l6.67,12.1v0.02
			c-0.86-0.47-2.26-0.79-4.46-0.76c-0.59,0.02-1.06,0.08-1.4,0.2L182.16,293.71z"/>
		<path class="st23" d="M185.37,180.37c2.97-3.45,7.04-6.61,11.81-9.49c0.78-0.47,1.59-0.95,2.4-1.4c2.91-1.64,6.01-3.18,9.27-4.63
			c0.49-0.2,0.98-0.42,1.47-0.64c5.56-2.4,11.5-4.54,17.43-6.44c1.35-0.44,2.7-0.86,4.05-1.27c5-1.5,9.93-2.84,14.61-4
			c5.66-1.42,10.93-2.57,15.41-3.48c0,0-0.05,2.15,0.29,5.49l-0.29,0.02c-9.16,1.72-21.62,4.43-34.06,8.29
			c-12.69,3.94-25.34,9.07-34.43,15.56c-4.48,3.21-8.09,6.76-10.41,10.66l-2.2-0.76c0.66-2.11,1.74-4.14,3.18-6.08v-0.02
			C184.36,181.57,184.85,180.96,185.37,180.37z"/>
		<path class="st200" d="M179.48,118.63c0,0,8.95,62.66,16.2,42.89c0.46,3.75,0.95,6.94,1.5,9.36c-4.76,2.89-8.84,6.05-11.81,9.49
			C182.84,175.56,180.78,144.51,179.48,118.63z"/>
		<path class="st201" d="M176.37,175.39c-1.3-6.4-5.37-89.04-5.37-89.04c2.58-1,4.29-1.93,5.44-2.7c0.02,1.39,0.9,78.93,7.48,98.54
			v0.02c-1.44,1.94-2.52,3.97-3.18,6.08c-1.59-4.05-3.02-8.29-4.31-12.64C176.42,175.57,176.4,175.49,176.37,175.39z"/>
		<path class="st202" d="M180.74,188.28c-11.2-15.42-18.67-31.25-23.55-45.26c0.54,1.23,12.04,27.22,13.8,9.53
			c1.42,7.67,3.18,15.41,5.37,22.84c0.03,0.1,0.05,0.19,0.07,0.25C177.72,179.98,179.16,184.22,180.74,188.28z"/>
		<path class="st203" d="M171,152.55c-1.49-8.08-2.6-16.05-3.43-23.5c-2.52-22.89-2.37-40.76-2.37-40.76
			c2.3-0.68,4.21-1.32,5.79-1.94c0,0,4.07,82.64,5.37,89.04C174.17,167.96,172.42,160.22,171,152.55z"/>
		<path class="st204" d="M167.57,129.05c0.83,7.45,1.94,15.42,3.43,23.5c-1.76,17.69-13.26-8.29-13.8-9.53
			c0-0.02-0.02-0.03-0.02-0.05c-2.55-7.28-4.39-13.94-5.69-19.63c-0.84-3.62-1.52-7.01-2.06-10.14c0,0,0,0-0.02-0.02
			c-2.25-13.09-2.23-21.23-2.23-21.23s16.89,62.2,20,37.15L167.57,129.05z"/>
		<path class="st23" d="M147.18,127.63c0.1-1.2,0-2.28-0.22-3.23l4.53-1.06c1.3,5.69,3.14,12.35,5.69,19.63
			c-4.53,18.9-8.33,36.17-11.47,51.93l-4.73-0.95c0.12-0.57-0.03-0.95-0.56-1.01c-1.6-0.2-6.76-0.39-12.32-0.56
			c11.84-0.78-1.37-4.11-1.37-4.11h10.3l3.92-11.25c0.03-0.1,0.07-0.19,0.07-0.19l-0.52-0.2c0-0.86,0.12-2.57,0.52-5.76
			c0.1-0.88,0.1-1.66,0-2.33l2.84-18.75c0.83-2.53-0.63-5.2-0.63-5.2s9.21-0.64,1.08-2.5L147.18,127.63z"/>
		<path class="st205" d="M151.48,123.34l-4.53,1.06c-1.1-4.92-5.52-6.66-5.52-6.66c4.51-6.61,7.65-4.76,7.97-4.56
			c0.02,0.02,0.02,0.02,0.02,0.02C149.96,116.33,150.64,119.73,151.48,123.34z"/>
		<path class="st206" d="M167.18,129.1c-3.11,25.05-20-37.15-20-37.15s4.51,0.25,18.03-3.67c0,0-0.15,17.87,2.37,40.76L167.18,129.1
			z"/>
		<path class="st207" d="M146.96,124.4c0.22,0.95,0.32,2.03,0.22,3.23l-2.85,14.46h-6.37h-7.18c2.97-7.53,4.97-12.57,5.71-14.46
			c1.76-4.49,3.43-7.67,4.95-9.88C141.43,117.75,145.86,119.49,146.96,124.4z"/>
		<path class="st23" d="M140.98,193.95l4.73,0.95c-4.48,22.27-7.69,41.54-9.92,58.21h-12.91c0,0,9.09-6.18,8.11-14.78
			c-0.84-7.43,1.86-20.24,2.6-23.52c0-0.02,0.02-0.03,0.02-0.03c0.02-0.05,0.03-0.08,0.05-0.14c0.07-0.22,0.1-0.41,0.1-0.59
			c0.02-0.02,0.02-0.03,0.02-0.03c0.1-2.8-6.3-2.85-6.3-2.85S140.18,197.82,140.98,193.95z"/>
		<path class="st208" d="M143.87,149.8l-2.84,18.75c-0.96-6.57-10.52-5.1-8.48-10.47c2.25-5.95,8.72-4.21,10.69-7.01
			C143.53,150.66,143.73,150.23,143.87,149.8z"/>
		<path class="st208" d="M137.95,144.59c0,0,9.22-0.78,0-2.5h6.37c8.13,1.86-1.08,2.5-1.08,2.5H137.95z"/>
		<path class="st209" d="M140.42,192.94c0.52,0.07,0.68,0.44,0.56,1.01c-0.79,3.87-13.5,17.21-13.5,17.21h-24.09h-0.02
			c2.65-6.66,5.19-13.06,7.6-19.17c0,0,8.9,0.15,17.01,0.39c0.03,0,0.08,0,0.12,0C133.66,192.55,138.81,192.74,140.42,192.94z"/>
		<path class="st210" d="M140.5,176.64l-2.55-1.01l-17.7-6.98c3.72-9.38,6.94-17.52,9.53-24.06h8.18h5.29c0,0,1.45,2.67,0.63,5.2
			c-0.14,0.44-0.34,0.86-0.63,1.27c-1.98,2.8-8.45,1.06-10.69,7.01c-2.04,5.37,7.52,3.9,8.48,10.47c0.1,0.68,0.1,1.45,0,2.33
			C140.62,174.07,140.5,175.78,140.5,176.64z"/>
		<path class="st211" d="M137.95,175.63l2.55,1.01c0.02,1.23,0.3,0.71,0.46,0.39l-3.92,11.25h-10.3h-14.27
			c1.74-4.39,3.41-8.6,5-12.64c0.02-0.02,0.02-0.03,0.03-0.05c1.37-2.89,20.46,0.05,20.46,0.05V175.63z"/>
		<path class="st197" d="M130.77,142.09h7.18c9.22,1.72,0,2.5,0,2.5h-8.18C130.11,143.73,130.45,142.9,130.77,142.09z"/>
		<path class="st212" d="M128.09,216.59c-5.88,1.59-6.08,11.81-10.63,20.53C112.53,246.59,92,248.74,92,248.74
			s9.56-12.94,10.81-21.17s8.33-11,8.33-11s6.81,0.47,12.96,0.27C125.49,216.79,126.85,216.73,128.09,216.59z"/>
		<path class="st213" d="M128.09,216.59c-1.23,0.14-2.6,0.2-3.99,0.25c0,0,4.19-2.84-2.89-4.22c6.55,0.2,12.35,0.73,12.45,1.91
			c-0.02,0.08-0.03,0.15-0.05,0.25c0,0-0.02,0.02-0.02,0.03c-0.41,0.74-1.84,1.23-3.82,1.55h-0.02
			C129.15,216.37,128.59,216.44,128.09,216.59z"/>
		<path class="st4" d="M120.43,253.11c0,0,11.2,2.82,6.3,8.11c-3.01,3.23-9.61,2.91-14.27,2.16c-2.65-0.41-4.66-0.96-5.03-1.05
			c-0.02,0-0.02-0.02-0.02-0.02c-0.02,0-0.02,0-0.03,0c-0.02-0.02-0.02-0.02-0.02-0.02s-11.71-1.49-14.24,2.62
			c-2.53,4.11-13.51,8.04-13.51,8.04l-1.52,1.98c2.92-7.35,5.81-14.65,8.65-21.83H120.43z"/>
		<path class="st214" d="M137.95,175.64c0,0-19.09-2.94-20.46-0.05c0.95-2.38,1.86-4.7,2.75-6.94l17.7,6.98V175.64z"/>
		<path class="st215" d="M122.97,338.88h-7.04c0,0,3.94-4.34-9.29-4.34c9.71,0.02,16.89,0.03,16.89,0.03s1.76,1.33,2.89,2.79
			C126.41,338.97,122.97,338.88,122.97,338.88z"/>
		<path class="st23" d="M112.46,263.39c4.66,0.74,11.27,1.06,14.27-2.16c4.9-5.29-6.3-8.11-6.3-8.11h2.45h12.91
			c-3.53,26.42-4.61,46.32-4.41,61.26h-13.87c0,0-40.16-4.75-37.49-10.41c2.69-5.66,12.67-7.25,19.16-0.41
			c6.47,6.86,30.46-16.56,18.33-22.43h9.22c0,0,3.62-5.12-2.35-5.57h-0.02l-3.38-0.03v-0.12c0,0-10.32-2.7-8.53-6.08
			c1.67-3.19-4.38-6.61-5.03-6.98C107.8,262.42,109.81,262.98,112.46,263.39z"/>
		<path class="st216" d="M111.53,275.3l9.46,0.1v0.12l3.38,0.03h0.02c5.96,0.46,2.35,5.57,2.35,5.57h-9.22h-17.7
			C117.93,280.16,113.46,276.46,111.53,275.3z"/>
		<path class="st217" d="M120.43,422.3H99.81c-8.51-14.26,3.23-25.97,3.23-25.97l0.02-0.46c3.41,0.07,6.55,0.15,9.22,0.2
			c2.92,0.07,5.29,0.1,6.84,0.12C118.56,397.82,112.36,415.95,120.43,422.3z"/>
		<path class="st218" d="M111.53,275.3l-33.45-0.35l1.52-1.98c0,0,10.98-3.94,13.51-8.04c2.53-4.11,14.24-2.62,14.24-2.62
			s0,0,0.02,0.02c0.02,0,0.02,0,0.03,0c0,0,0,0.02,0.02,0.02c0.66,0.37,6.71,3.78,5.03,6.98c-1.79,3.38,8.53,6.08,8.53,6.08
			L111.53,275.3z"/>
		<path class="st217" d="M119.17,425.95c0.12,15.19-18.62,16.12-23.11,16.12c-0.61,0-0.96-0.02-0.96-0.02l-12.6-0.3
			c0,0,5.47-15.76-6.72-15.78C92.75,425.98,109.4,425.98,119.17,425.95z"/>
		<path class="st146" d="M117.51,281.12c12.13,5.88-11.86,29.29-18.33,22.43c-6.49-6.84-16.47-5.25-19.16,0.41
			c-2.67,5.66,37.49,10.41,37.49,10.41H62.44c1.15-2.91,2.31-5.85,3.48-8.77c5.88-0.74,6.37-11.94,8.77-18.35
			c2.2-5.9,9.63-6.13,10.76-6.13c0.1,0,0.15,0,0.15,0h14.21H117.51z"/>
		<path class="st194" d="M112.28,396.08c0,0,11.13-3.73-15.2-7.18c14.22,0.46,26.61,0.78,26.61,0.78s5.64,2.38,3.67,4.49
			c-1.98,2.11-2.06,1.99-6.45,2.04c-0.32,0-0.93,0-1.77-0.02C117.56,396.18,115.2,396.15,112.28,396.08z"/>
		<path class="st219" d="M112.46,188.28h14.27c0,0,13.21,3.33,1.37,4.11c-0.03,0-0.08,0-0.12,0c-8.11-0.24-17.01-0.39-17.01-0.39
			C111.48,190.74,111.97,189.51,112.46,188.28z"/>
		<path class="st191" d="M121.21,212.62c-8.56-0.29-18.4-0.03-18.4-0.03c0.19-0.47,0.39-0.95,0.56-1.42h0.02h24.09
			c0,0,6.4,0.05,6.3,2.85c0,0,0,0.02-0.02,0.03c0,0.07-0.05,0.24-0.1,0.47C133.56,213.35,127.77,212.82,121.21,212.62z"/>
		<path class="st220" d="M111.53,275.3c1.93,1.17,6.4,4.87-11.72,5.83H85.6c0,0-0.05,0-0.15,0h-9.82c0.81-2.06,1.64-4.12,2.45-6.18
			L111.53,275.3z"/>
		<path class="st221" d="M101.24,216.57h9.9c0,0-7.08,2.77-8.33,11S92,248.74,92,248.74h-3.53c4.41-11.1,8.68-21.89,12.75-32.16
			H101.24z"/>
		<path class="st194" d="M104.1,371.79h14.22c0,0,2.06-0.39,2.06,2.06c0,2.45-5.86,2.18-10.09,2.45c-0.59,0.03-2.18,0.05-4.46,0.02
			v-0.02C105.84,376.3,109.88,373.46,104.1,371.79z"/>
		<path class="st222" d="M103.05,395.88l-0.02,0.46c0,0-11.74,11.71-3.23,25.97H65.92c0,0,14.82-4.22,16.22-12.3
			c1.42-8.08-1.96-14.68-1.96-14.68C87.75,395.51,95.97,395.71,103.05,395.88z"/>
		<path class="st223" d="M124.1,216.84c-6.15,0.2-12.96-0.27-12.96-0.27h-9.9c0.52-1.33,1.05-2.67,1.57-3.99
			c0,0,9.83-0.25,18.4,0.03C128.29,214.01,124.1,216.84,124.1,216.84z"/>
		<path class="st224" d="M101.72,445.14c11.15,8.31-26.08,7.42-26.08,7.42s-38.53-0.24-52.62-1.37c-14.07-1.11-7.03-8.09-7.03-8.09
			v-0.25c14.24,0.35,59.08,1.45,85.73,2.28V445.14z"/>
		<path class="st218" d="M92,248.74c0,0,20.53-2.15,25.46-11.62c4.54-8.72,4.75-18.94,10.63-20.53c0.59-0.07,1.15-0.14,1.67-0.22
			h0.02c1.98-0.32,3.41-0.81,3.82-1.55c-0.74,3.28-3.45,16.08-2.6,23.52c0.98,8.6-8.11,14.78-8.11,14.78h-2.45h-33.7
			c0.59-1.47,1.17-2.92,1.74-4.38H92z"/>
		<path class="st178" d="M80.18,341.28c19.44,0.17,42.18,0.24,45.19-0.32c0,0-0.15,5.22-2.69,4.97c-2.53-0.25-2.67,2.79-5.17,10.32
			c-2.5,7.53-3.7,3.45-7.08,5.27c-3.38,1.82-14.21-2.4-15.47-8.97S80.18,341.4,80.18,341.4V341.28z"/>
		<path class="st225" d="M75.77,425.97c12.2,0.02,6.72,15.78,6.72,15.78l-14-0.32c2.65-4.14-11.96-4.87-20.69-5.71
			s-8.16-1.42-7.7-5.07c0.47-3.67,12.62-4.66,12.62-4.66v-0.07C60.02,425.93,67.93,425.95,75.77,425.97z"/>
		<path class="st226" d="M80.18,395.32c0,0,3.38,6.61,1.96,14.68c-1.4,8.08-16.22,12.3-16.22,12.3h-46.3H19.6
			c2.11-5.32,4.36-10.98,6.72-16.91c0.3-0.76,4.16-0.66,4.16-0.66c5.63-0.56,8.31-8.02,10.85-9.56c2.53-1.55,12.67-0.42,14.63-0.42
			C56.78,394.75,67.59,395.02,80.18,395.32z"/>
		<path class="st202" d="M85.6,371.25c-12.97-0.54-30.58-1.28-30.58-1.28s-0.9-9,4.04-9.43l15.56-1l0.02-0.02
			c0.88,1.25,1.13,2.28,1.13,2.28s5.83,9.14,20.81,9.85c1.54,0.07,2.33,0.1,2.5,0.14C98.68,371.79,92.86,371.55,85.6,371.25z"/>
		<path class="st227" d="M65.92,305.6c3.24-8.16,6.49-16.35,9.71-24.48h9.82c-1.13,0-8.56,0.24-10.76,6.13
			C72.29,293.66,71.8,304.86,65.92,305.6z"/>
		<path class="st228" d="M62.44,314.37h55.07h13.87c0.02,0.64,0.03,1.27,0.05,1.89H93.12H61.7
			C61.93,315.64,62.19,315.01,62.44,314.37z"/>
		<path class="st229" d="M55.01,333.07c2.21-5.56,4.44-11.17,6.69-16.81h31.42c-0.27,2.6,10.71,2.21,10.71,2.21
			s15.34,0.95,15.34,7.6c0,6.64-7.04,6.99-7.04,6.99h-57.1H55.01z"/>
		<path class="st230" d="M51.68,366.16c0.34-4.65-4.98-7.03-7.11-6.76c0.57-1.45,1.15-2.92,1.74-4.41h0.02
			c0,0,10.09,4.07,11.34-2.45c0.46,1.93,2.13,2.47,8.26,2.77c4.9,0.25,7.45,2.45,8.72,4.21l-0.02,0.02l-15.56,1
			c-4.93,0.42-4.04,9.43-4.04,9.43S51.34,370.81,51.68,366.16z"/>
		<path class="st231" d="M54.42,334.57c0.05-0.08,31.78-0.05,52.22-0.03c13.23,0,9.29,4.34,9.29,4.34H52.71
			C53.27,337.46,53.84,336.01,54.42,334.57z"/>
		<path class="st232" d="M52.71,338.88h63.21h7.04c0,0,3.45,0.08,3.45-1.52c1.15,1.49,1.64,3.11-1.05,3.6
			c-3.01,0.56-25.75,0.49-45.19,0.32c-14.17-0.12-26.57-0.29-28.3-0.32C52.15,340.28,52.42,339.59,52.71,338.88z"/>
		<path class="st233" d="M44.57,359.41c2.13-0.27,7.45,2.11,7.11,6.76c0,0-6.98-5.1-9.75-0.12
			C42.79,363.85,43.67,361.64,44.57,359.41z"/>
		<path class="st23" d="M15.98,443.1c0,0-7.04,6.98,7.03,8.09c14.09,1.13,52.62,1.37,52.62,1.37s37.23,0.9,26.08-7.42v-0.02
			c11.28,0.37,19.31,0.68,20.41,0.86c4.22,0.71,3.24-3.24,3.24-3.24l-29.31-0.68c4.49,0,23.23-0.93,23.11-16.12
			c4.78-0.03,7.89-0.05,8.6-0.1c4.51-0.27,0.22-3.55,0.22-3.55h-7.55c-8.08-6.35-1.88-24.48-1.32-26.1
			c0.84,0.02,1.45,0.02,1.77,0.02c4.39-0.05,4.48,0.07,6.45-2.04c1.98-2.11-3.67-4.49-3.67-4.49s-12.38-0.32-26.61-0.78
			c-15.49-0.49-33.18-1.13-39.41-1.67c-11.94-1.03-12.53-2.35-13.09-6.59c-0.37-2.84,2.62-4.32,4.63-5c1-0.34,1.76-0.47,1.76-0.47
			s40.78,1.05,54.89,1.15c2.28,0.03,3.87,0.02,4.46-0.02c4.22-0.27,10.09,0,10.09-2.45c0-2.45-2.06-2.06-2.06-2.06H104.1h-5.02
			c-0.17-0.03-0.96-0.07-2.5-0.14c-14.98-0.71-20.81-9.85-20.81-9.85s-0.25-1.03-1.13-2.28c-1.27-1.76-3.82-3.95-8.72-4.21
			c-6.13-0.3-7.8-0.84-8.26-2.77c-0.17-0.69-0.17-1.57-0.17-2.69c0-4.21-6.54-6.54-6.54-6.54c0.3-0.78,0.63-1.57,0.93-2.37
			c1.72,0.03,14.12,0.2,28.3,0.32v0.12c0,0,13.51,4.58,14.78,11.15s12.1,10.79,15.47,8.97c3.38-1.82,4.58,2.26,7.08-5.27
			c2.5-7.53,2.64-10.58,5.17-10.32c2.53,0.25,2.69-4.97,2.69-4.97c2.69-0.49,2.2-2.11,1.05-3.6c-1.13-1.45-2.89-2.79-2.89-2.79
			s-7.18-0.02-16.89-0.03c-20.44-0.02-52.17-0.05-52.22,0.03c0.2-0.51,0.41-1,0.59-1.5h0.02h57.1c0,0,7.04-0.35,7.04-6.99
			c0-6.66-15.34-7.6-15.34-7.6s-10.98,0.39-10.71-2.21h38.31c0.76,34.02,8.43,41.08,8.43,41.08s65.33,117.78-14.65,118.81
			C45.26,477.17,0.2,471.19,0.2,471.19s4.27-10.74,11.28-28.45c0,0,1.62,0.03,4.49,0.1V443.1z"/>
		<path class="st234" d="M50.95,343.33c0,0,6.54,2.33,6.54,6.54c0,1.11,0,1.99,0.17,2.69c-1.25,6.52-11.34,2.45-11.34,2.45h-0.02
			C47.84,351.15,49.38,347.26,50.95,343.33z"/>
		<path class="st235" d="M105.84,376.32c-14.11-0.1-54.89-1.15-54.89-1.15s-0.76,0.14-1.76,0.47l-0.24-0.96
			c1.18-0.32,1.99-0.64,1.99-0.64s5.44-4.02,12.18-2.25c6.76,1.76,22.47-0.54,22.47-0.54c7.26,0.3,13.08,0.54,13.48,0.54h5.02
			c5.78,1.67,1.74,4.51,1.74,4.51V376.32z"/>
		<path class="st236" d="M41.32,395.17c-2.53,1.54-5.22,9-10.85,9.56c0,0-3.85-0.1-4.16,0.66c4.27-10.76,8.9-22.43,13.77-34.7
			c0.54,5.36,5.9,4.75,8.87,3.99l0.24,0.96c-2.01,0.68-5,2.16-4.63,5c0.56,4.24,1.15,5.56,13.09,6.59
			c6.23,0.54,23.92,1.18,39.41,1.67c26.34,3.45,15.2,7.18,15.2,7.18c-2.67-0.05-5.81-0.14-9.22-0.2
			c-7.08-0.17-15.31-0.37-22.87-0.56c-12.59-0.3-23.4-0.57-24.23-0.57C53.99,394.75,43.86,393.62,41.32,395.17z"/>
		<path class="st237" d="M52.71,425.98c0,0-12.15,1-12.62,4.66c-0.46,3.65-1.03,4.22,7.7,5.07s23.35,1.57,20.69,5.71l-55.95-1.28
			h-0.02c1.77-4.46,3.7-9.33,5.78-14.53l0.61,0.24c0,0,14.97,0.03,33.8,0.07V425.98z"/>
		<path class="st238" d="M41.27,367.7v-0.02c0.22-0.54,0.44-1.1,0.66-1.64c2.77-4.98,9.75,0.12,9.75,0.12
			c-0.34,4.65,3.34,3.8,3.34,3.8s17.6,0.74,30.58,1.28c0,0-15.71,2.3-22.47,0.54c-6.74-1.77-12.18,2.25-12.18,2.25
			s-0.81,0.32-1.99,0.64c-2.97,0.76-8.33,1.37-8.87-3.99C40.48,369.7,40.87,368.7,41.27,367.7z"/>
		<path class="st239" d="M19.62,422.3h46.3h33.89h20.63h7.55c0,0,4.29,3.28-0.22,3.55c-0.71,0.05-3.82,0.07-8.6,0.1
			c-9.76,0.03-26.42,0.03-43.4,0.02c-7.84-0.02-15.74-0.03-23.06-0.05c-18.84-0.03-33.8-0.07-33.8-0.07l-0.61-0.24
			c0.42-1.08,0.86-2.18,1.3-3.31H19.62z"/>
		<path class="st222" d="M101.72,445.12c-26.66-0.83-71.49-1.93-85.73-2.28c-2.87-0.07-4.49-0.1-4.49-0.1
			c0.34-0.84,0.68-1.72,1.03-2.6h0.02l55.95,1.28l14,0.32l12.6,0.3c0,0,0.35,0.02,0.96,0.02l29.31,0.68c0,0,0.98,3.95-3.24,3.24
			C121.03,445.8,113,445.5,101.72,445.12z"/>
	</g>
	<g>
	</g>
</g>
</svg>
