<?xml version="1.0" encoding="utf-8"?>
<!-- Generator: Adobe Illustrator 23.0.1, SVG Export Plug-In . SVG Version: 6.00 Build 0)  -->
<svg version="1.1" id="Layer_1" xmlns="http://www.w3.org/2000/svg" xmlns:xlink="http://www.w3.org/1999/xlink" x="0px" y="0px"
	 viewBox="0 0 480 480" style="enable-background:new 0 0 480 480;" xml:space="preserve">
<style type="text/css">
	.st0{display:none;}
	.st1{display:inline;fill:#FFFFFF;}
	.st2{fill:#FFFFFF;}
</style>
<g class="st0">
	<path class="st1" d="M434.78,237.06L242.87,40.96c-1.69-1.73-4.43-1.73-6.13,0L45.22,236.67c-1.69,1.73-1.69,4.53,0,6.26
		l191.91,196.1c0.81,0.83,1.92,1.3,3.06,1.3c1.15,0,2.25-0.47,3.06-1.3l191.53-195.71C436.47,241.59,436.47,238.79,434.78,237.06z
		 M240.19,429.65L54.41,239.8l185.4-189.45L368.25,181.6l-131.6,134.48l-59.81-61.12l45.74-46.74c1.69-1.73,1.69-4.53,0-6.26
		c-1.69-1.73-4.43-1.73-6.13,0l-48.8,49.87c-1.69,1.73-1.69,4.53,0,6.26l65.93,67.37c0.84,0.86,1.95,1.3,3.06,1.3
		c1.11,0,2.22-0.43,3.06-1.3l134.67-137.61l51.22,52.34L240.19,429.65z"/>
	<path class="st1" d="M242.63,196.65c3.8,0,7.59-1.48,10.47-4.43c2.8-2.86,4.34-6.67,4.34-10.72c0-4.05-1.55-7.85-4.35-10.71
		c-5.79-5.91-15.19-5.92-20.98-0.02c-5.78,5.91-5.77,15.52,0.02,21.44C235.02,195.16,238.83,196.65,242.63,196.65z M238.24,177.03
		c1.2-1.22,2.77-1.83,4.35-1.83c1.58,0,3.17,0.62,4.38,1.85c1.17,1.19,1.81,2.78,1.81,4.46c0,1.68-0.64,3.26-1.8,4.45
		c-2.41,2.45-6.32,2.45-8.72-0.01C235.84,183.48,235.84,179.48,238.24,177.03z"/>
</g>
<g class="st0">
	<path class="st1" d="M475.01,236.89c-0.31-0.34-31.33-34.74-75.07-67.7c-59.16-44.57-112.21-65.55-157.73-62.28
		c-0.73,0.05-1.4,0.29-2,0.64c-4.96-0.86-9.93-1.51-14.9-1.88c-42.68-3.18-92.8,18.04-148.99,63.07
		c-41.5,33.25-71.11,67.91-71.41,68.26c-1.58,1.85-1.54,4.62,0.09,6.43c0.29,0.33,29.89,33.11,71.37,65.41
		c56.08,43.68,106.08,65.83,148.59,65.83c5.14,0,10.21-0.32,15.22-0.88c4.89,0.56,9.85,0.88,14.87,0.88
		c39.25,0,88.24-22.14,145.61-65.79c42.41-32.27,73.93-65.01,74.24-65.33C476.66,241.7,476.71,238.78,475.01,236.89z M82.21,301.24
		c-33.38-25.97-58.93-52.26-67.31-61.18c18.38-20.57,121.82-131.35,209.71-124.78c63.33,4.71,128.83,52.71,128.83,124.86
		c0,62.67-50.47,116.31-113.25,123.9c-59.66-7.39-107.93-58.48-110.38-119.07h95.59c2.61,0,4.72-2.16,4.72-4.83
		s-2.12-4.83-4.72-4.83H124.99c-2.61,0-4.72,2.16-4.72,4.83c0,53.38,33.1,100.66,79.5,122.18
		C156.97,353.69,113.41,325.53,82.21,301.24z M284.66,360.89c45.84-22.15,78.23-68.54,78.23-120.74
		c0-57.35-38.05-100.48-85.14-121.22c84.34,16.34,169.92,102.88,187.17,121.12C447.23,257.73,360.46,341.4,284.66,360.89z"/>
	<path class="st1" d="M274.76,258.32c10.42,0,18.9-8.66,18.9-19.31c0-10.65-8.48-19.31-18.9-19.31s-18.9,8.66-18.9,19.31
		C255.86,249.66,264.34,258.32,274.76,258.32z M274.76,229.35c5.21,0,9.45,4.33,9.45,9.65c0,5.32-4.24,9.66-9.45,9.66
		s-9.45-4.33-9.45-9.66C265.31,233.68,269.55,229.35,274.76,229.35z"/>
</g>
<g>
	<path class="st2" d="M441.69,378.65L298.05,83.62c-0.78-1.6-2.35-2.61-4.06-2.62c-0.01,0-0.01,0-0.02,0c-1.7,0-3.27,1-4.06,2.59
		l-90.95,183.85l-44.79-83.78c-0.8-1.49-2.29-2.43-3.92-2.45c-0.02,0-0.04,0-0.07,0c-1.6,0-3.09,0.89-3.92,2.34L38.46,372.6
		c-1.3,2.28-0.6,5.24,1.57,6.61c2.16,1.36,4.98,0.63,6.28-1.65l103.76-181.95l43.86,82.03l-47.88,96.79
		c-0.73,1.48-0.68,3.26,0.13,4.7c0.82,1.43,2.28,2.32,3.87,2.35l102.81,1.5c0.02,0,0.04,0,0.06,0c1.61,0,3.11-0.89,3.94-2.36
		c0.83-1.48,0.86-3.32,0.05-4.82l-52.57-98.33l89.61-181.15l136.13,279.61l-101.32-1.48c-0.02,0-0.04,0-0.06,0
		c-2.5,0-4.54,2.11-4.58,4.75c-0.04,2.66,1.98,4.85,4.51,4.88l108.92,1.59c0.02,0,0.04,0,0.06,0c1.58,0,3.05-0.86,3.89-2.28
		C442.35,381.95,442.43,380.15,441.69,378.65z M245.03,373.22l-87.43-1.27l41.69-84.28L245.03,373.22z"/>
	<path class="st2" d="M297.72,360.46c-10.09,0-18.3,8.65-18.3,19.27c0,10.63,8.21,19.27,18.3,19.27c10.09,0,18.3-8.65,18.3-19.27
		C316.02,369.1,307.81,360.46,297.72,360.46z M297.72,389.36c-5.05,0-9.15-4.32-9.15-9.64c0-5.31,4.11-9.64,9.15-9.64
		c5.05,0,9.15,4.32,9.15,9.64C306.87,385.04,302.77,389.36,297.72,389.36z"/>
</g>
</svg>
